<?xml version="1.0" encoding="utf-8"?>
<!-- Generator: Adobe Illustrator 24.2.1, SVG Export Plug-In . SVG Version: 6.00 Build 0)  -->
<svg version="1.1" id="Camada_1" xmlns:xodm="http://www.corel.com/coreldraw/odm/2003"
	 xmlns="http://www.w3.org/2000/svg" xmlns:xlink="http://www.w3.org/1999/xlink" x="0px" y="0px" viewBox="0 0 45.5 26.3"
	 style="enable-background:new 0 0 45.5 26.3;" xml:space="preserve">
<style type="text/css">
	.st0{fill:none;stroke:#000000;stroke-width:0.9929;stroke-linejoin:round;stroke-miterlimit:39.2456;}
	.st1{stroke:#000000;stroke-width:0.9929;stroke-linejoin:round;stroke-miterlimit:39.2456;}
</style>
<g id="Camada_x0020_1">
	<g id="_3003455263616">
		<path class="st0" d="M28.8,0.5l12.7,2.7c0,0,0,0.1,0,0.1L15,14.7c-0.6,0.3-1.3,0.2-1.9-0.1L0.7,8.5c-0.1,0-0.1-0.1,0-0.1l27-7.8
			C28.1,0.5,28.4,0.5,28.8,0.5L28.8,0.5z"/>
		<path class="st1" d="M14.3,22.1L1.6,15c-0.2-0.1-0.3-0.3-0.3-0.5L0.5,8.7c0-0.1,0.1-0.2,0.2-0.2l12.5,6.1c0.5,0.3,1.2,0.3,1.7,0
			L41.4,3.3c0.1,0,0.1,0,0.1,0.1l-0.1,3.5L40,6.6L15.9,18l0.2,3.2L14.3,22.1L14.3,22.1z"/>
		<path class="st0" d="M15.9,18l4.8,2.5c0.3,0.1,0.6,0.1,0.9,0L44.9,7.8c0,0,0-0.1,0-0.1L40,6.5L15.9,18L15.9,18z"/>
		<path class="st1" d="M21.5,23.8l23.4-13.5c0,0,0.1-0.1,0.1-0.1V7.9c0-0.1-0.1-0.1-0.1-0.1L21.7,20.5c-0.3,0.2-0.7,0.2-0.9,0
			L15.9,18l0.2,3.2l5,2.6C21.3,23.8,21.4,23.8,21.5,23.8z"/>
		<polygon points="3,15.8 3.3,17.7 4.1,17.7 4,15.8 		"/>
		<path d="M13.3,24.3L12.8,21l1.4,1l0.1,2.2C14.3,24.2,14.1,24.8,13.3,24.3z"/>
		<path d="M21.7,23.3l0.2,1.5c0,0,0.3,0.1,0.3,0.3c0,0.2-0.4,0.4-0.2,0.9c0.2,0.4,0.5,0.5,1,0.3c0.5-0.3,0.5-0.7,0.3-0.9
			s-0.3-0.4-0.4-0.4c-0.1,0-0.2,0-0.2,0c0-0.1,0.1-0.1,0.1-0.2c0-0.1,0.2-2.3,0.2-2.3L21.7,23.3L21.7,23.3z"/>
		<path d="M34.2,16v1c0,0,0.1,0.2,0.2,0.2c0.1,0.1,0,0.2,0,0.3s-0.3,0.2-0.2,0.3c0,0.2,0.2,0.8,0.5,0.7c0.3-0.1,0.8-0.3,0.8-0.6
			c0-0.3-0.4-0.6-0.5-0.6c-0.1,0,0.6-1.5,0.4-1.9C35.1,15,34.2,16,34.2,16z"/>
		<path d="M43.1,11c0,0-0.1,0.9-0.1,1c0.1,0,0.2,0.2,0.2,0.3c0,0.1-0.3,0.4-0.1,0.7c0.2,0.2,0.5,0.3,0.7,0.2
			c0.2-0.1,0.4-0.4,0.3-0.5c-0.1-0.1-0.2-0.3-0.5-0.3c0,0-0.1,0,0-0.1c0.1-0.1,0.5-1.1,0.5-1.5C43.9,10.2,43.1,11,43.1,11L43.1,11z"
			/>
	</g>
</g>
</svg>
