<?xml version="1.0" encoding="utf-8"?>
<!-- Generator: Adobe Illustrator 24.2.1, SVG Export Plug-In . SVG Version: 6.00 Build 0)  -->
<svg version="1.1" id="Camada_1" xmlns:xodm="http://www.corel.com/coreldraw/odm/2003"
	 xmlns="http://www.w3.org/2000/svg" xmlns:xlink="http://www.w3.org/1999/xlink" x="0px" y="0px" viewBox="0 0 44.6 25.7"
	 style="enable-background:new 0 0 44.6 25.7;" xml:space="preserve">
<g id="Camada_x0020_1">
	<path d="M3.8,25.7H0.6c-0.3,0-0.6-0.3-0.6-0.6v-19c0-0.3,0.3-0.6,0.6-0.6h3.2c4,0,6.7-1.4,9.3-2.7l0,0C15.7,1.4,18.4,0,22.3,0
		s6.6,1.4,9.2,2.7c2.6,1.3,5.3,2.7,9.3,2.7H44c0.3,0,0.6,0.3,0.6,0.6v19c0,0.3-0.3,0.6-0.6,0.6h-3.2H3.8L3.8,25.7z M36.8,10.5
		l2.1,2.1h0.2l1.2-1.2V9.5L39,8.2C39,8.2,36.8,10.5,36.8,10.5z M38.5,12.5l-1.9-1.9l-1.9,1.9C34.7,12.5,38.5,12.5,38.5,12.5z
		 M39.1,8.1l1.1,1.1V6.9L39.1,8.1L39.1,8.1z M37.4,6.3L39,7.9l1.2-1.2C39.2,6.6,38.2,6.5,37.4,6.3L37.4,6.3z M11.9,4.7l0.9,0.9
		L15,3.3l-0.1-0.1c-0.4,0.2-0.8,0.4-1.2,0.6l0,0C13,4.1,12.5,4.4,11.9,4.7L11.9,4.7z M12.6,5.7l-0.9-0.9c-1,0.5-2,0.9-3.2,1.2
		l1.9,1.9C10.4,7.9,12.6,5.7,12.6,5.7z M17.4,5.7l-2.2-2.2l-2.2,2.2l2.2,2.2L17.4,5.7z M10.4,8.3l-2.2,2.2l2.1,2.1h0.2l2.1-2.1
		L10.4,8.3L10.4,8.3z M10,12.6L8,10.6l-1.9,1.9C6.1,12.6,10,12.6,10,12.6z M5.8,12.6l2.1-2.1L5.6,8.3L4.4,9.5v1.8l1.2,1.2H5.8z
		 M4.4,9.2l1.1-1.1L4.4,7V9.2L4.4,9.2z M4.4,6.7l1.2,1.2l1.6-1.6C6.4,6.5,5.4,6.6,4.4,6.7L4.4,6.7z M15.3,3.3l2.2,2.2l2.2-2.2
		l-1.5-1.5C17.5,2,16.7,2.3,16,2.6l0,0L15.3,3.3L15.3,3.3z M15.1,3.1L15.1,3.1l0.3-0.2L15.1,3.1L15.1,3.1z M26.9,10.5l-2.2-2.2
		l-2.2,2.2l2.1,2.1h0.2L26.9,10.5L26.9,10.5z M24.5,8.1l-2.2-2.2l-2.2,2.2l2.2,2.2L24.5,8.1z M24.2,12.6l-1.9-1.9l-1.9,1.9H24.2z
		 M22.1,10.5l-2.2-2.2l-2.2,2.2l2.1,2.1H20L22.1,10.5L22.1,10.5z M19.5,12.6l-1.9-1.9l-1.9,1.9C15.6,12.6,19.5,12.6,19.5,12.6z
		 M24.7,3.5l-2.2,2.2l2.2,2.2l2.2-2.2L24.7,3.5z M27.1,10.6l-1.9,1.9H29C29,12.6,27.1,10.6,27.1,10.6z M31.6,10.5l-2.2-2.2l-2.2,2.2
		l2.1,2.1h0.2L31.6,10.5L31.6,10.5z M27.1,10.3l2.2-2.2l-2.2-2.2l-2.2,2.2L27.1,10.3z M38.8,8.1l-1.8-1.8c-0.2,0-0.4-0.1-0.6-0.1
		l-2,2l2.2,2.2L38.8,8.1L38.8,8.1z M34.2,7.9L36.1,6c-1.1-0.3-2.2-0.8-3.2-1.2L32,5.7C32,5.7,34.2,7.9,34.2,7.9z M7.6,6.2L5.8,8.1
		L8,10.3l2.2-2.2l-2-2C8,6.1,7.8,6.2,7.6,6.2L7.6,6.2z M40.2,11.7l-0.8,0.8h0.8V11.7z M5.2,12.6l-0.8-0.8v0.8H5.2z M18.5,1.7
		l1.4,1.4l1.9-1.9C20.6,1.2,19.5,1.4,18.5,1.7z M26.4,1.8l-1.5,1.5l2.2,2.2l2.2-2.2l-0.7-0.7C27.8,2.3,27.1,2,26.4,1.8L26.4,1.8z
		 M24.7,3.1l1.4-1.4c-1-0.3-2.1-0.5-3.4-0.5L24.7,3.1z M29.2,2.9l0.2,0.2l0.1-0.1L29.2,2.9L29.2,2.9z M29.7,3.2l-0.1,0.1l2.2,2.2
		l0.9-0.9c-0.6-0.3-1.1-0.6-1.7-0.9C30.6,3.6,30.2,3.4,29.7,3.2L29.7,3.2z M12.8,10.6l-1.9,1.9h3.8L12.8,10.6z M27.2,5.7l2.2,2.2
		l2.2-2.2l-2.2-2.2L27.2,5.7z M34.3,12.6l2.1-2.1l-2.2-2.2L32,10.5l2.1,2.1H34.3L34.3,12.6z M33.7,12.6l-1.9-1.9l-1.9,1.9
		C29.9,12.6,33.7,12.6,33.7,12.6z M31.8,10.3L34,8.1l-2.2-2.2l-2.2,2.2L31.8,10.3z M19.9,3.5l-2.2,2.2l2.2,2.2l2.2-2.2L19.9,3.5z
		 M15.1,8.3l-2.2,2.2l2.1,2.1h0.2l2.1-2.1L15.1,8.3L15.1,8.3z M15,8.1l-2.2-2.2l-2.2,2.2l2.2,2.2L15,8.1z M24.5,3.3l-2.1-2.1h-0.1
		h-0.1l-2.1,2.1l2.2,2.2L24.5,3.3L24.5,3.3z M19.7,8.1l-2.2-2.2l-2.2,2.2l2.2,2.2C17.5,10.3,19.7,8.1,19.7,8.1z M18.9,22.8
		c-0.3,0-0.5-0.2-0.5-0.5c0-0.3,0.2-0.5,0.5-0.5h6.7c0.3,0,0.5,0.2,0.5,0.5c0,0.3-0.2,0.5-0.5,0.5C25.6,22.8,18.9,22.8,18.9,22.8z
		 M40.2,19H4.4v5.5h35.9C40.2,24.5,40.2,19,40.2,19z M4.4,17.8h35.9v-4.1H4.4C4.4,13.8,4.4,17.8,4.4,17.8z M41.5,24.5h2V6.7h-2v6.5
		v5.3L41.5,24.5L41.5,24.5z M1.2,24.5h2v-6v-5.3V6.7h-2V24.5L1.2,24.5z"/>
</g>
</svg>
