<?xml version="1.0" encoding="utf-8"?>
<!-- Generator: Adobe Illustrator 24.2.1, SVG Export Plug-In . SVG Version: 6.00 Build 0)  -->
<svg version="1.1" id="Camada_1" xmlns:xodm="http://www.corel.com/coreldraw/odm/2003"
	 xmlns="http://www.w3.org/2000/svg" xmlns:xlink="http://www.w3.org/1999/xlink" x="0px" y="0px" viewBox="0 0 44.4 25.9"
	 style="enable-background:new 0 0 44.4 25.9;" xml:space="preserve">
<style type="text/css">
	.st0{fill:none;stroke:#000000;stroke-width:0.9999;stroke-miterlimit:13.1568;}
</style>
<g id="Camada_x0020_1">
	<g id="_3141056732784">
		<line class="st0" x1="19.7" y1="9.6" x2="0.5" y2="3.1"/>
		<path class="st0" d="M0.5,3.1C0.5,3.1,0.5,3,0.6,3"/>
		<line class="st0" x1="0.6" y1="3" x2="20.3" y2="0.5"/>
		<path class="st0" d="M20.3,0.5c0.2,0,0.5,0,0.7,0"/>
		<line class="st0" x1="21" y1="0.5" x2="43.9" y2="5.3"/>
		<path class="st0" d="M43.9,5.3c0.1,0,0.1,0.1,0,0.1"/>
		<line class="st0" x1="43.9" y1="5.4" x2="21.5" y2="9.8"/>
		<path class="st0" d="M21.5,9.8c-0.6,0.1-1.2,0.1-1.7-0.1"/>
		<path d="M43.7,6.7L21.4,11c-0.6,0.1-1.2,0.1-1.7-0.1L0.4,4.3c-0.1,0-0.1,0-0.1,0.1v8.5c0,0.2,0.1,0.4,0.3,0.5l0.8,0.4c0,0,0,0,0,0
			v1.4c0,0.2,0.1,0.3,0.3,0.3c0.2,0,0.3-0.1,0.3-0.3v-1.1l6.9,3.6c0,0,0,0,0,0.1v1.6c0,0.2,0.2,0.4,0.4,0.4c0.2,0,0.4-0.2,0.4-0.4
			v-1.2l9.7,5.1c0,0,0,0,0,0v2c0,0.3,0.2,0.5,0.5,0.5c0.3,0,0.5-0.2,0.5-0.5v-1.7c0.2,0,0.4,0,0.6-0.1l8.5-2.5v1.2
			c0,0.2,0.2,0.5,0.5,0.5s0.5-0.2,0.5-0.5v-1.4l0.9-0.3v1.1c0,0.2,0.2,0.5,0.5,0.5c0.2,0,0.5-0.2,0.5-0.5v-1.4l8.7-2.6v1.1
			c0,0.2,0.1,0.3,0.3,0.3c0.2,0,0.3-0.1,0.3-0.3v-1.3l1.8-0.5c0.1,0,0.2-0.1,0.2-0.2L44,6.9C44,6.8,43.9,6.7,43.7,6.7L43.7,6.7z"/>
	</g>
</g>
</svg>
