<?xml version="1.0" encoding="utf-8"?>
<!-- Generator: Adobe Illustrator 24.2.1, SVG Export Plug-In . SVG Version: 6.00 Build 0)  -->
<svg version="1.1" id="Camada_1" xmlns:xodm="http://www.corel.com/coreldraw/odm/2003"
	 xmlns="http://www.w3.org/2000/svg" xmlns:xlink="http://www.w3.org/1999/xlink" x="0px" y="0px" viewBox="0 0 44.5 36.6"
	 style="enable-background:new 0 0 44.5 36.6;" xml:space="preserve">
<g id="Camada_x0020_1">
	<path d="M23.9,0l-1.5,0.3v6.3c0,0-2.2-0.7-3.9,0.1c-1.7,0.8-3.2,2.3-3.2,2.3l0.9,0.8L4.3,13.4c0,0-1.8,0.7-2.4,2.8L1.2,16L0,16.3
		v11.1L1.1,28l1.1-0.4v-3.1l15.8,6.9v4.3l1.7,0.9l1.7-0.9v-4.2l20.6-11v2.6l1.2,0.3l1.2-0.7V3.6L23.9,0L23.9,0z M16.4,8.9L16.4,8.9
		c0,0,2.1-2.5,5.8-1.8c3.8,0.6,7,1.6,7,1.6s-1.2,1.8-3.9,2.5S17.2,10.3,16.4,8.9z M21.4,30.2L21.4,30.2V22l-1.7-0.6L2.6,16.3
		c0,0,0.6-1.8,2.3-2.4c1.7-0.6,11.5-3.6,11.5-3.6l15.9,4.1c0,0,3.2,0.5,3.4,2.8c0.2,2.3,0.2,5.6,0.2,5.6L21.4,30.2L21.4,30.2z
		 M39.8,13.2L39.8,13.2C38.4,14,36.3,15,36.1,15c-0.1,0-4.3-1.4-5.2-1.7c-1-0.2-4-1.1-5-1.6c0,0,3.3-2.9,6.7-2.8
		C34.7,9,41.3,12,41.3,12S40.7,12.7,39.8,13.2L39.8,13.2z"/>
</g>
</svg>
