<?xml version="1.0" encoding="utf-8"?>
<!-- Generator: Adobe Illustrator 24.2.1, SVG Export Plug-In . SVG Version: 6.00 Build 0)  -->
<svg version="1.1" id="Camada_1" xmlns:xodm="http://www.corel.com/coreldraw/odm/2003"
	 xmlns="http://www.w3.org/2000/svg" xmlns:xlink="http://www.w3.org/1999/xlink" x="0px" y="0px" viewBox="0 0 39.7 39.7"
	 style="enable-background:new 0 0 39.7 39.7;" xml:space="preserve">
<g id="Camada_x0020_1">
	<path d="M19.8,39.7C8.9,39.7,0,30.8,0,19.8S8.9,0,19.8,0s19.8,8.9,19.8,19.8S30.8,39.7,19.8,39.7z M11.5,6.5l6.5-2.2l-2.5-2.7
		c-2.2,0.5-4.2,1.5-6,2.7L11.5,6.5L11.5,6.5z M18.2,4.5l-6.5,2.2l3.2,3.5L21.4,8L18.2,4.5z M18.5,4.4l3.2,3.5l6.5-2.2l-3.2-3.5
		C24.9,2.2,18.5,4.4,18.5,4.4z M15.7,1.5l2.5,2.7l6.5-2.2l-0.3-0.4C22.9,1.2,21.4,1,19.8,1l0,0C18.4,1,17,1.2,15.7,1.5L15.7,1.5z
		 M34.7,8.3l-11.2,6.4c-0.5,0.3-1.1,0.6-1.7,0.8c-0.6,0.2-1.2,0.4-1.8,0.5c-0.9,0.2-1.8,0.2-2.8,0.1c-0.9-0.1-1.8-0.3-2.7-0.6l0,0
		l0-0.1l-0.1,0.1c-3.8-1.4-7.7-2.8-11.5-4.2c-1.3,2.6-2,5.4-2,8.5c0,10.4,8.5,18.8,18.8,18.8s18.8-8.5,18.8-18.8
		C38.7,15.5,37.2,11.5,34.7,8.3L34.7,8.3z M11.1,6.6L9.1,4.4C7.3,5.6,5.8,7.1,4.6,8.8l0.1,0.1C4.7,8.9,11.1,6.6,11.1,6.6z M31.9,9.2
		l1.5-0.5l1.1-0.7c-1-1.2-2-2.3-3.3-3.2l-2.6,0.9L31.9,9.2L31.9,9.2z M31.9,9.6L31.9,9.6l-6.5,2.2l0.9,1
		C26.3,12.8,31.9,9.6,31.9,9.6z M18.4,13.9l6.5-2.2l-3.2-3.5l-6.5,2.2L18.4,13.9z M25.1,11.9l-6.5,2.2l1.4,1.5
		c0.6-0.1,1.1-0.3,1.7-0.5c0.6-0.2,1.1-0.5,1.6-0.8l0.1,0.1l-0.1-0.1L26,13L25.1,11.9L25.1,11.9z M21.9,8.1l3.2,3.5l6.5-2.2
		l-3.2-3.5C28.4,5.9,21.9,8.1,21.9,8.1z M18.1,14l-3.2-3.5l-6.5,2.2l0.2,0.2l6,2.2L18.1,14L18.1,14z M14.6,10.3l-3.2-3.5L4.9,9.1
		l3.2,3.5L14.6,10.3z M4.6,9.2L4.2,9.4c-0.4,0.6-0.7,1.1-1,1.7l4.5,1.6l0.1,0C7.8,12.7,4.6,9.2,4.6,9.2z M28.5,5.5L31,4.6
		c-1.6-1.2-3.4-2.1-5.3-2.7l-0.4,0.1L28.5,5.5z M25,1.8l0.1,0c-0.1,0-0.2,0-0.2-0.1C24.9,1.7,25,1.8,25,1.8z M15.1,15.4
		c0.7,0.2,1.5,0.4,2.2,0.4c0.8,0.1,1.6,0,2.4-0.1l-1.4-1.5C18.3,14.3,15.1,15.4,15.1,15.4z"/>
	<path d="M35,7.8l-11.8,6.8c-2.7,1.5-5.8,1.8-8.7,0.8L2.6,11.1c-1.3,2.6-2.1,5.6-2.1,8.8c0,2.5,0.5,4.9,1.3,7.1l12.3,4.5
		c1.3,0.5,2.6,0.7,3.9,0.7c2,0,3.9-0.5,5.7-1.5l15.4-8.8c0.1-0.6,0.1-1.2,0.1-1.8C39.2,15.3,37.6,11.1,35,7.8L35,7.8z M6.9,26.4
		L6.9,26.4C6.9,26.4,6.9,26.4,6.9,26.4c-0.1,0.1-0.2,0.1-0.2,0.1c0,0-0.1,0-0.1,0c0,0-0.1,0-0.1,0.1l0,0c0,0,0,0,0,0
		c-0.1,0-0.1,0.1-0.2,0.1c0,0,0,0,0,0c0,0,0,0,0,0c0,0,0,0,0,0c0,0,0,0,0,0c0,0,0,0,0,0c0,0,0,0,0,0c0,0,0,0,0,0c0,0,0,0,0,0
		c0,0,0,0,0,0.1c0,0,0,0,0,0v0c0,0,0,0,0,0v0c0,0,0,0,0,0v0c0,0,0,0,0,0v0c0,0,0,0,0,0l0,0c0,0,0,0,0,0h0c0,0,0,0,0,0.1
		c0,0.3-0.2,0.5-0.5,0.5c-0.2,0-0.5-0.2-0.5-0.5c0,0,0,0,0-0.1h0c0,0,0,0,0,0c0,0,0,0,0,0v0c0,0,0,0,0,0v0c0,0,0,0,0,0v0
		c0,0,0,0,0,0v0c0,0,0,0,0,0c0,0,0-0.1,0-0.1c0,0,0,0,0-0.1c0,0,0,0,0,0c0,0,0-0.1,0-0.1c0,0,0,0,0,0c0,0,0,0,0,0c0,0,0,0,0,0l0,0
		c0,0,0,0,0,0l0,0c0,0,0,0,0,0l0,0c0,0,0,0,0,0l0,0c0,0,0,0,0,0l0,0c0,0,0,0,0,0l0,0c0,0,0,0,0,0l0,0c0,0,0,0,0,0l0,0c0,0,0,0,0,0
		l0,0c0,0,0,0,0,0l0,0c0,0,0,0,0,0l0,0c0,0,0,0,0,0l0,0c0,0,0,0,0,0l0,0c0,0,0,0,0,0l0,0c0,0,0,0,0,0l0,0c0,0,0,0,0,0l0,0
		c0,0,0,0,0,0l0,0c0,0,0,0,0,0l0,0c0,0,0,0,0,0l0,0c0,0,0,0,0,0l0,0c0,0,0,0,0,0l0,0c0,0,0,0,0,0l0,0c0,0,0,0,0,0l0,0c0,0,0,0,0,0h0
		c0,0,0,0,0,0l0,0c0,0,0,0,0,0l0,0c0,0,0,0,0,0C6.1,26,6.2,26,6.4,26.1C6.7,26.2,6.9,26.3,6.9,26.4C7,26.4,7,26.4,6.9,26.4L6.9,26.4
		z M13.3,25.9L13.3,25.9C13.3,25.9,13.3,25.9,13.3,25.9c0,0.1,0,0.1,0,0.1c0,0,0,0,0,0c-0.1,0.2-0.2,0.3-0.4,0.5l0,0c0,0,0,0,0,0
		l0,0c-0.1,0-0.1,0.1-0.2,0.1c-0.2,0.1-0.4,0.2-0.6,0.2c-0.3,0.1-0.7,0.1-1.1,0.1c-0.2,0-0.4,0-0.6,0c-0.5,0-1-0.1-1.6-0.2
		c-0.2,0-0.3-0.1-0.5-0.1c-0.3-0.1-0.6-0.2-0.9-0.2c0,0-0.1,0-0.1,0c-0.5-0.2-1.1-0.5-1.1-0.5l0,0c0,0,0,0,0,0
		c-0.5-0.3-0.8-0.5-0.9-0.8c-0.1-0.1-0.1-0.3-0.1-0.4c0,0,0,0,0-0.1c0,0,0,0,0,0c0,0,0,0,0,0c0,0,0,0,0,0v0c0,0,0,0,0,0v0
		c0,0,0,0,0,0v0c0,0,0,0,0,0v0c0,0,0,0,0,0c0,0,0-0.1,0-0.1c0,0,0,0,0,0l0,0c0,0,0,0,0,0c0,0,0-0.1,0-0.1c0,0,0,0,0,0c0,0,0,0,0,0
		c0,0,0,0,0,0c0,0,0,0,0,0l0,0c0,0,0,0,0,0l0,0c0,0,0,0,0,0l0,0c0,0,0,0,0,0l0,0c0,0,0,0,0,0l0,0c0,0,0,0,0,0l0,0c0,0,0,0,0,0l0,0
		c0,0,0,0,0,0l0,0c0,0,0,0,0,0l0,0c0,0,0,0,0,0l0,0c0,0,0,0,0,0l0,0c0,0,0,0,0,0l0,0c0,0,0,0,0,0c0,0,0,0,0,0c0,0,0,0,0,0l0,0
		c0,0,0,0,0,0l0,0c0,0,0,0,0,0l0,0c0,0,0,0,0,0l0,0c0,0,0,0,0,0l0,0c0,0,0,0,0,0h0c0,0,0,0,0,0l0,0c0,0,0,0,0,0l0,0c0,0,0,0,0,0l0,0
		c0,0,0,0,0,0l0,0c0,0,0,0,0,0l0,0c0,0,0,0,0,0l0,0c0,0,0,0,0,0l0,0c0,0,0,0,0,0c0.1,0.1,0.3,0.1,0.4,0.2c0.3,0.1,0.5,0.2,0.6,0.3
		c0,0-0.1,0-0.1,0c0,0,0,0-0.1,0c-0.1,0-0.1,0.1-0.2,0.1c0,0,0,0-0.1,0l0,0c0,0,0,0,0,0c0,0-0.1,0-0.1,0.1l0,0c0,0,0,0,0,0
		c-0.1,0-0.1,0.1-0.2,0.1c0,0,0,0,0,0c0,0,0,0,0,0c0,0,0,0,0,0c0,0,0,0,0,0c0,0,0,0,0,0c0,0,0,0,0,0c0,0,0,0,0,0c0,0,0,0,0,0
		c0,0,0,0,0,0.1c0,0,0,0,0,0v0c0,0,0,0,0,0v0c0,0,0,0,0,0v0c0,0,0,0,0,0v0c0,0,0,0,0,0v0c0,0,0,0,0,0h0h0c0,0,0,0,0,0c0,0,0,0,0,0
		c0,0.1,0,0.1,0,0.1c0,0,0,0,0,0c0.1,0.1,0.2,0.1,0.2,0.2c0,0,0.1,0,0.1,0.1l0,0l0,0c0,0,0,0,0.1,0c0,0,0.1,0,0.1,0.1
		c0,0,0.1,0,0.1,0.1c0,0,0.1,0,0.1,0l0,0c0.1,0,0.2,0.1,0.3,0.1c0,0,0,0,0,0l0,0c0,0,0,0,0,0l0,0l0,0l0,0c0,0,1,0.4,1.7,0.5l0,0
		c0.1,0,0.1,0,0.2,0c0,0,0.1,0,0.1,0c0.2,0,0.4,0.1,0.6,0.1c0.2,0,0.3,0,0.5,0c0.2,0,0.3,0,0.5,0c0.1,0,0.2,0,0.3,0c0,0,0.1,0,0.1,0
		c0,0,0.1,0,0.1,0c0.1,0,0.2,0,0.3,0c0,0,0,0,0.1,0c0,0,0,0,0,0c0,0,0,0,0.1,0c0.1,0,0.3-0.1,0.4-0.1c0,0,0,0,0,0c0,0,0,0,0,0h0
		c0,0,0,0,0,0h0c0,0,0,0,0,0l0,0c0,0-0.1,0-0.1,0v0v0c0,0,0,0,0,0c0,0,0,0-0.1,0c0,0,0,0,0,0c0,0,0,0,0,0c-0.1,0-0.1,0-0.2,0
		c-0.2,0-0.3,0-0.5,0c0,0,0,0,0,0c-0.1,0-0.2,0-0.3,0c-0.1,0-0.2,0-0.2,0c0,0,0,0,0,0c-0.4,0-0.8,0.1-1.1,0.1c-0.1,0-0.2,0-0.3,0
		c-0.3-0.1-0.7-0.1-1-0.3c-0.3-0.1-0.5-0.2-0.7-0.2c0,0,0,0,0,0l0,0c0,0,0,0,0.1,0l0,0c0,0,0.1,0,0.1,0l0,0c0,0,0,0,0.1,0l0,0
		c0,0,0,0,0.1,0l0,0c0,0,0.1,0,0.1,0l0,0c0,0,0,0,0.1,0l0,0c0,0,0,0,0.1,0l0,0c0,0,0.1,0,0.1,0l0,0c0,0,0,0,0.1,0l0,0
		c0,0,0.1,0,0.1,0l0,0c0,0,0.1,0,0.1,0l0,0c0,0,0,0,0.1,0l0,0c0,0,0.1,0,0.1,0c0,0,0,0,0,0c0,0,0.1,0,0.1,0c0,0,0.1,0,0.1,0
		c0,0,0,0,0,0c0.1,0,0.2,0,0.3-0.1c0,0,0,0,0.1,0c0.3,0,0.5-0.1,0.8-0.1c0.3,0,0.5,0,0.7,0c0.4,0,0.7,0,1,0.1c0.1,0,0.1,0,0.2,0
		c0,0,0,0,0,0c0,0,0,0,0.1,0c0,0,0,0,0,0c0,0,0,0,0.1,0c0,0,0,0,0.1,0c0,0,0,0,0,0c0.1,0,0.1,0,0.2,0.1v0v0c0,0,0,0,0,0l0,0
		c0,0,0,0,0,0c0,0,0,0,0,0c0,0,0,0,0,0l0,0c0,0,0,0,0,0c0,0,0.1,0,0.1,0.1c0,0,0,0,0,0l0,0c0,0,0.1,0,0.1,0.1c0,0,0,0,0.1,0
		c0,0,0,0,0,0c0,0,0,0,0,0c0,0,0,0,0.1,0.1C13.2,25.5,13.3,25.7,13.3,25.9C13.3,25.8,13.3,25.8,13.3,25.9
		C13.3,25.8,13.3,25.9,13.3,25.9L13.3,25.9z M13.3,23.3L13.3,23.3C13.3,23.3,13.3,23.3,13.3,23.3c0,0.1,0,0.1,0,0.1c0,0,0,0,0,0
		c-0.1,0.2-0.2,0.3-0.4,0.5l0,0c0,0,0,0,0,0l0,0c-0.1,0-0.1,0.1-0.2,0.1c-0.2,0.1-0.4,0.2-0.6,0.2c-0.3,0.1-0.7,0.1-1.1,0.1
		c-0.2,0-0.4,0-0.6,0c-0.5,0-1-0.1-1.6-0.2c-0.2,0-0.3-0.1-0.5-0.1c-0.3-0.1-0.6-0.2-0.9-0.2c0,0-0.1,0-0.1,0
		c-0.5-0.2-1.1-0.5-1.1-0.5c0,0,0,0,0,0c-0.5-0.3-0.8-0.5-0.9-0.8c-0.1-0.1-0.1-0.3-0.1-0.4c0,0,0-0.1,0-0.1l0,0v0c0,0,0,0,0,0v0
		c0,0,0,0,0,0v0c0,0,0,0,0,0v0c0,0,0,0,0,0c0,0,0-0.1,0-0.1c0,0,0,0,0,0l0,0c0,0,0,0,0,0c0,0,0-0.1,0-0.1c0,0,0,0,0,0c0,0,0,0,0,0
		c0,0,0,0,0,0l0,0c0,0,0,0,0,0l0,0c0,0,0,0,0,0l0,0c0,0,0,0,0,0l0,0c0,0,0,0,0,0l0,0c0,0,0,0,0,0l0,0c0,0,0,0,0,0l0,0c0,0,0,0,0,0
		l0,0c0,0,0,0,0,0l0,0c0,0,0,0,0,0l0,0c0,0,0,0,0,0l0,0c0,0,0,0,0,0l0,0c0,0,0,0,0,0l0,0c0,0,0,0,0,0l0,0c0,0,0,0,0,0l0,0
		c0,0,0,0,0,0l0,0c0,0,0,0,0,0l0,0c0,0,0,0,0,0l0,0c0,0,0,0,0,0h0c0,0,0,0,0,0l0,0c0,0,0,0,0,0l0,0c0,0,0,0,0,0l0,0c0,0,0,0,0,0l0,0
		c0,0,0,0,0,0h0c0,0,0,0,0,0l0,0c0,0,0,0,0,0l0,0c0,0,0,0,0,0c0.1,0.1,0.3,0.1,0.4,0.2c0.3,0.1,0.5,0.2,0.6,0.3c0,0-0.1,0-0.1,0
		c0,0,0,0-0.1,0c-0.1,0-0.1,0.1-0.2,0.1c0,0-0.1,0-0.1,0c0,0-0.1,0-0.1,0.1l0,0c0,0,0,0,0,0c-0.1,0-0.1,0.1-0.2,0.1c0,0,0,0,0,0
		c0,0,0,0,0,0c0,0,0,0,0,0c0,0,0,0,0,0c0,0,0,0,0,0c0,0,0,0,0,0c0,0,0,0,0,0c0,0,0,0,0,0c0,0,0,0,0,0.1c0,0,0,0,0,0v0c0,0,0,0,0,0v0
		c0,0,0,0,0,0v0c0,0,0,0,0,0v0c0,0,0,0,0,0v0v0l0,0c0,0.1,0,0.1,0,0.2c0,0,0,0,0,0c0.1,0.1,0.2,0.1,0.2,0.2c0,0,0.1,0,0.1,0.1l0,0
		l0,0c0,0,0,0,0.1,0c0,0,0.1,0,0.1,0.1v0v0l0,0l0,0l0,0c0,0,0.1,0,0.1,0.1c0,0,0.1,0,0.1,0l0,0c0.1,0,0.2,0.1,0.3,0.1c0,0,0,0,0,0
		l0,0c0,0,0,0,0,0c0,0,0,0,0,0s0,0,0,0l0,0c0,0,1,0.4,1.7,0.5c0.1,0,0.1,0,0.2,0c0,0,0.1,0,0.1,0c0.2,0,0.4,0.1,0.6,0.1
		c0.2,0,0.3,0,0.5,0c0.2,0,0.3,0,0.5,0c0.1,0,0.2,0,0.3,0c0,0,0.1,0,0.1,0c0,0,0.1,0,0.1,0c0.1,0,0.2,0,0.3,0c0,0,0,0,0.1,0
		c0,0,0,0,0,0c0,0,0,0,0.1,0c0.1,0,0.3-0.1,0.4-0.1c0,0,0,0,0,0c0,0,0,0,0,0l0,0c0,0,0,0,0,0h0c0,0,0,0,0,0l0,0l0,0c0,0-0.1,0-0.1,0
		v0v0c0,0,0,0,0,0c0,0,0,0-0.1,0c0,0,0,0,0,0c0,0,0,0,0,0c-0.1,0-0.1,0-0.2,0c-0.2,0-0.3,0-0.5,0c0,0,0,0,0,0c-0.1,0-0.2,0-0.3,0
		c-0.1,0-0.2,0-0.2,0c0,0,0,0,0,0c-0.4,0-0.8,0.1-1.1,0.1c-0.1,0-0.2,0-0.3,0c-0.3-0.1-0.7-0.1-1-0.3c-0.3-0.1-0.5-0.2-0.7-0.2
		c0,0,0,0,0,0c0,0,0,0,0,0c0,0,0,0,0.1,0l0,0c0,0,0.1,0,0.1,0l0,0c0,0,0,0,0.1,0l0,0c0,0,0,0,0.1,0l0,0c0,0,0.1,0,0.1,0l0,0
		c0,0,0,0,0.1,0l0,0c0,0,0,0,0.1,0l0,0c0,0,0.1,0,0.1,0l0,0c0,0,0,0,0.1,0l0,0c0,0,0.1,0,0.1,0l0,0c0,0,0.1,0,0.1,0l0,0
		c0,0,0,0,0.1,0l0,0c0,0,0.1,0,0.1,0c0,0,0,0,0,0c0.1,0,0.2,0,0.3-0.1c0,0,0,0,0,0c0.1,0,0.2,0,0.3-0.1c0,0,0,0,0.1,0
		c0.3,0,0.5-0.1,0.8-0.1c0.3,0,0.5,0,0.7,0c0.4,0,0.7,0,1,0.1c0.1,0,0.1,0,0.2,0c0,0,0,0,0,0c0,0,0,0,0.1,0c0,0,0,0,0,0
		c0,0,0,0,0.1,0c0,0,0,0,0.1,0c0,0,0,0,0,0c0,0,0,0,0,0c0.1,0,0.1,0.1,0.2,0.1c0,0,0,0,0,0l0,0c0,0,0,0,0,0c0,0,0,0,0.1,0
		c0,0,0,0,0.1,0c0,0,0,0,0,0l0,0c0,0,0.1,0.1,0.1,0.1c0,0,0,0,0,0c0,0,0,0,0,0c0,0,0,0,0,0c0,0,0,0,0.1,0.1
		C13.2,23,13.3,23.1,13.3,23.3C13.3,23.2,13.3,23.2,13.3,23.3C13.3,23.3,13.3,23.3,13.3,23.3L13.3,23.3z M13.3,20.7L13.3,20.7
		C13.3,20.7,13.3,20.8,13.3,20.7c0,0.1,0,0.1,0,0.1c0,0,0,0,0,0c-0.1,0.2-0.2,0.3-0.4,0.5l0,0c0,0,0,0,0,0l0,0
		c-0.1,0-0.1,0.1-0.2,0.1c-0.2,0.1-0.4,0.2-0.6,0.2c-0.3,0.1-0.7,0.1-1.1,0.1c-0.2,0-0.4,0-0.6,0c-0.5,0-1-0.1-1.6-0.2
		c-0.2,0-0.3-0.1-0.5-0.1c-0.3-0.1-0.6-0.2-0.9-0.2c0,0-0.1,0-0.1,0c-0.5-0.2-1.1-0.5-1.1-0.5l0,0c0,0,0,0,0,0
		c-0.5-0.3-0.8-0.5-0.9-0.8c-0.1-0.1-0.1-0.3-0.1-0.4c0,0,0,0,0-0.1c0,0,0,0,0,0c0,0,0,0,0,0c0,0,0,0,0,0v0c0,0,0,0,0,0v0
		c0,0,0,0,0,0v0c0,0,0,0,0,0v0c0,0,0,0,0,0c0,0,0-0.1,0-0.1c0,0,0,0,0-0.1c0,0,0,0,0,0c0,0,0-0.1,0-0.1c0,0,0,0,0,0c0,0,0,0,0,0
		c0,0,0,0,0,0c0,0,0,0,0,0l0,0c0,0,0,0,0,0l0,0c0,0,0,0,0,0l0,0c0,0,0,0,0,0l0,0c0,0,0,0,0,0l0,0c0,0,0,0,0,0l0,0c0,0,0,0,0,0l0,0
		c0,0,0,0,0,0l0,0c0,0,0,0,0,0l0,0c0,0,0,0,0,0l0,0c0,0,0,0,0,0l0,0c0,0,0,0,0,0l0,0c0,0,0,0,0,0c0,0,0,0,0,0c0,0,0,0,0,0l0,0
		c0,0,0,0,0,0l0,0c0,0,0,0,0,0l0,0c0,0,0,0,0,0l0,0c0,0,0,0,0,0l0,0c0,0,0,0,0,0l0,0c0,0,0,0,0,0l0,0c0,0,0,0,0,0l0,0c0,0,0,0,0,0
		l0,0c0,0,0,0,0,0l0,0c0,0,0,0,0,0h0c0,0,0,0,0,0l0,0c0,0,0,0,0,0l0,0c0,0,0,0,0,0c0.1,0.1,0.3,0.1,0.4,0.2c0.3,0.1,0.5,0.2,0.6,0.3
		c0,0-0.1,0-0.1,0c0,0,0,0-0.1,0c-0.1,0-0.1,0.1-0.2,0.1c0,0,0,0-0.1,0l0,0c0,0,0,0,0,0c0,0-0.1,0-0.1,0.1l0,0c0,0,0,0,0,0
		C6.4,19,6.4,19,6.3,19c0,0,0,0,0,0c0,0,0,0,0,0c0,0,0,0,0,0c0,0,0,0,0,0c0,0,0,0,0,0c0,0,0,0,0,0c0,0,0,0,0,0c0,0,0,0,0,0
		c0,0,0,0,0,0.1c0,0,0,0,0,0v0c0,0,0,0,0,0v0c0,0,0,0,0,0v0c0,0,0,0,0,0v0c0,0,0,0,0,0l0,0c0,0,0,0,0,0h0h0c0,0,0,0,0,0s0,0,0,0
		c0,0.1,0,0.1,0,0.1c0,0,0,0,0,0c0.1,0.1,0.2,0.1,0.2,0.2c0,0,0.1,0,0.1,0.1l0,0l0,0c0,0,0,0,0.1,0c0,0,0.1,0,0.1,0.1
		c0,0,0.1,0,0.1,0.1c0,0,0.1,0,0.1,0l0,0c0.1,0,0.2,0.1,0.3,0.1c0,0,0,0,0,0l0,0c0,0,0,0,0,0l0,0l0,0l0,0c0,0,1,0.4,1.7,0.5
		c0.1,0,0.1,0,0.2,0c0,0,0.1,0,0.1,0c0.2,0,0.4,0.1,0.6,0.1c0.2,0,0.3,0,0.5,0c0.2,0,0.3,0,0.5,0c0.1,0,0.2,0,0.3,0c0,0,0.1,0,0.1,0
		c0,0,0.1,0,0.1,0c0.1,0,0.2,0,0.3,0c0,0,0,0,0.1,0c0,0,0,0,0,0c0,0,0,0,0.1,0c0.1,0,0.3-0.1,0.4-0.1c0,0,0,0,0,0c0,0,0,0,0,0l0,0
		c0,0,0,0,0,0h0c0,0,0,0,0,0l0,0c0,0-0.1,0-0.1,0v0v0c0,0,0,0,0,0c0,0,0,0-0.1,0c0,0,0,0,0,0c0,0,0,0,0,0c-0.1,0-0.1,0-0.2,0
		c-0.2,0-0.3,0-0.5,0c0,0,0,0,0,0c-0.1,0-0.2,0-0.3,0c-0.1,0-0.2,0-0.2,0c0,0,0,0,0,0c-0.4,0-0.8,0.1-1.1,0.1c-0.1,0-0.2,0-0.3,0
		c-0.3-0.1-0.7-0.1-1-0.3c-0.3-0.1-0.5-0.2-0.7-0.2c0,0,0,0,0,0l0,0c0,0,0,0,0.1,0l0,0c0,0,0.1,0,0.1,0l0,0c0,0,0,0,0.1,0l0,0
		c0,0,0,0,0.1,0l0,0c0,0,0.1,0,0.1,0l0,0c0,0,0,0,0.1,0l0,0c0,0,0,0,0.1,0l0,0c0,0,0.1,0,0.1,0l0,0c0,0,0,0,0.1,0l0,0
		c0,0,0.1,0,0.1,0h0c0,0,0.1,0,0.1,0l0,0c0,0,0,0,0.1,0l0,0c0,0,0.1,0,0.1,0c0,0,0,0,0,0c0,0,0.1,0,0.1,0c0,0,0.1,0,0.1,0
		c0,0,0,0,0,0c0.1,0,0.2,0,0.3-0.1c0,0,0,0,0.1,0c0.3,0,0.5-0.1,0.8-0.1c0.3,0,0.5,0,0.7,0c0.4,0,0.7,0,1,0.1c0.1,0,0.1,0,0.2,0
		c0,0,0,0,0,0c0,0,0,0,0.1,0c0,0,0,0,0,0c0,0,0,0,0.1,0c0,0,0,0,0.1,0c0,0,0,0,0,0c0.1,0,0.1,0,0.2,0.1v0v0c0,0,0,0,0,0l0,0
		c0,0,0,0,0,0c0,0,0,0,0,0c0,0,0,0,0,0l0,0c0,0,0,0,0,0c0,0,0.1,0,0.1,0.1c0,0,0,0,0,0l0,0c0,0,0.1,0,0.1,0.1c0,0,0,0,0.1,0
		c0,0,0,0,0,0c0,0,0,0,0,0c0,0,0,0,0.1,0.1C13.2,20.4,13.3,20.5,13.3,20.7C13.3,20.7,13.3,20.7,13.3,20.7
		C13.3,20.7,13.3,20.7,13.3,20.7L13.3,20.7z M13.3,15.5L13.3,15.5C13.3,15.5,13.3,15.5,13.3,15.5C13.3,15.5,13.3,15.6,13.3,15.5
		c0,0.1,0,0.1,0,0.1c0,0,0,0,0,0.1c0,0.1-0.1,0.1-0.1,0.2C13,15.9,12.9,16,12.8,16c-0.2,0-0.4-0.1-0.4-0.3l0,0c0,0-0.1-0.1-0.2-0.1
		c0,0,0,0-0.1,0c-0.1,0-0.2-0.1-0.3-0.1c-0.1,0-0.1,0-0.2,0c-0.2,0-0.3,0-0.5,0c0,0,0,0,0,0c-0.1,0-0.2,0-0.3,0c-0.1,0-0.2,0-0.2,0
		c0,0,0,0,0,0c-0.4,0-0.8,0.1-1.1,0.1c-0.1,0-0.2,0-0.3,0.1c-0.1,0-0.1,0-0.2,0c-0.2,0-0.4,0.1-0.6,0.1c-0.4,0.1-0.8,0.2-1.1,0.4
		c0,0,0,0,0,0c0,0,0,0,0,0l0,0c-0.2,0.1-0.3,0.2-0.5,0.2c0,0-0.1,0-0.1,0.1l0,0c0,0,0,0,0,0c-0.1,0-0.1,0.1-0.2,0.1c0,0,0,0,0,0
		c0,0,0,0,0,0l0,0c0,0-0.1,0.1-0.2,0.1c0,0,0,0,0,0.1c0,0,0,0,0,0c0,0.1,0,0.2,0,0.2c0,0,0,0,0,0c0.1,0.1,0.2,0.1,0.2,0.2
		c0,0,0.1,0,0.1,0.1l0,0l0,0c0,0,0,0,0.1,0c0,0,0.1,0,0.1,0.1l0,0v0l0,0l0,0l0,0c0,0,0.1,0,0.1,0.1c0,0,0.1,0,0.1,0l0,0
		c0.1,0,0.2,0.1,0.3,0.1c0,0,0,0,0,0l0,0c0,0,0,0,0,0c0,0,0,0,0,0c0,0,0,0,0,0l0,0c0,0,1,0.4,1.7,0.5c0.1,0,0.1,0,0.2,0
		c0,0,0.1,0,0.1,0c0.2,0,0.4,0.1,0.6,0.1c0.2,0,0.3,0,0.5,0c0.2,0,0.3,0,0.5,0c0.1,0,0.2,0,0.3,0c0,0,0.1,0,0.1,0c0,0,0.1,0,0.1,0
		c0.1,0,0.2,0,0.3,0c0,0,0,0,0.1,0c0,0,0,0,0,0c0,0,0,0,0.1,0c0.1,0,0.3-0.1,0.4-0.1c0,0,0,0,0,0c0,0,0,0,0,0l0,0c0,0,0,0,0,0h0
		c0,0,0,0,0,0l0,0l0,0c0,0-0.1,0-0.1,0v0v0c0,0,0,0,0,0c0,0,0,0-0.1,0c0,0,0,0,0,0c0,0,0,0,0,0c-0.1,0-0.1,0-0.2,0
		c-0.2,0-0.3,0-0.5,0c0,0,0,0,0,0c-0.1,0-0.2,0-0.3,0c-0.1,0-0.2,0-0.2,0c0,0,0,0,0,0c-0.4,0-0.8,0.1-1.1,0.1c-0.1,0-0.2,0-0.3,0
		c-0.3-0.1-0.7-0.1-1-0.3c-0.3-0.1-0.5-0.2-0.7-0.2c0,0,0,0,0,0c0,0,0,0,0,0c0,0,0,0,0.1,0l0,0c0,0,0.1,0,0.1,0l0,0c0,0,0,0,0.1,0
		l0,0c0,0,0,0,0.1,0l0,0c0,0,0.1,0,0.1,0l0,0c0,0,0,0,0.1,0l0,0c0,0,0,0,0.1,0l0,0c0,0,0.1,0,0.1,0l0,0c0,0,0,0,0.1,0l0,0
		c0,0,0.1,0,0.1,0l0,0c0,0,0.1,0,0.1,0l0,0c0,0,0,0,0.1,0l0,0c0,0,0.1,0,0.1,0c0,0,0,0,0,0c0.1,0,0.2,0,0.3-0.1c0,0,0,0,0,0
		c0.1,0,0.2,0,0.3-0.1c0,0,0,0,0.1,0c0.3,0,0.5-0.1,0.8-0.1c0.3,0,0.5,0,0.7,0c0.4,0,0.7,0,1,0.1c0.1,0,0.1,0,0.2,0c0,0,0,0,0,0
		c0,0,0,0,0.1,0c0,0,0,0,0,0c0,0,0,0,0.1,0c0,0,0,0,0.1,0c0,0,0,0,0,0c0,0,0,0,0,0c0.1,0,0.1,0.1,0.2,0.1c0,0,0,0,0,0l0,0
		c0,0,0,0,0,0c0,0,0,0,0.1,0c0,0,0,0,0.1,0c0,0,0,0,0,0l0,0c0,0,0.1,0.1,0.1,0.1c0,0,0,0,0,0c0,0,0,0,0,0c0,0,0,0,0,0
		c0,0,0,0,0.1,0.1c0.1,0.1,0.2,0.3,0.2,0.4c0,0,0,0,0,0c0,0,0,0,0,0.1c0,0,0,0,0,0c0,0,0,0,0,0.1c0,0,0,0,0,0
		c-0.1,0.2-0.2,0.3-0.4,0.5l0,0c0,0,0,0,0,0l0,0c-0.1,0-0.1,0.1-0.2,0.1c-0.2,0.1-0.4,0.2-0.6,0.2c-0.3,0.1-0.7,0.1-1.1,0.1
		c-0.2,0-0.4,0-0.6,0c-0.5,0-1-0.1-1.6-0.2c-0.2,0-0.3-0.1-0.5-0.1c-0.3-0.1-0.6-0.2-0.9-0.2c0,0-0.1,0-0.1,0
		c-0.5-0.2-1.1-0.5-1.1-0.5c0,0,0,0,0,0c-0.5-0.3-0.8-0.5-0.9-0.8c-0.1-0.1-0.1-0.3-0.1-0.4c0,0,0-0.1,0-0.1c0,0,0-0.1,0-0.1v0
		c0,0,0,0,0,0c0,0,0-0.1,0-0.1c0,0,0,0,0-0.1l0,0c0,0,0-0.1,0.1-0.1c0,0,0,0,0,0c0.2-0.4,0.6-0.7,1.2-1c0,0,0.1,0,0.1,0l0,0
		c0.6-0.3,1.3-0.5,2.1-0.7c0,0,0,0,0,0c0.5-0.1,1-0.2,1.5-0.2c0.3,0,0.5,0,0.7,0c0.4,0,0.7,0,1,0.1c0.1,0,0.1,0,0.2,0
		c0.2,0.1,0.4,0.1,0.6,0.2c0.1,0.1,0.3,0.2,0.4,0.3c0,0,0,0,0.1,0.1C13.2,15.3,13.3,15.4,13.3,15.5C13.3,15.5,13.3,15.5,13.3,15.5
		L13.3,15.5L13.3,15.5z M17.1,29.7L17.1,29.7C17.1,29.7,17.1,29.7,17.1,29.7c-0.1,0.1-0.2,0.1-0.3,0.1c0,0-0.1,0-0.1,0
		c0,0-0.1,0-0.1,0.1l0,0c0,0,0,0,0,0c-0.1,0-0.1,0.1-0.2,0.1c0,0,0,0,0,0c0,0,0,0,0,0c0,0,0,0,0,0c0,0,0,0,0,0c0,0,0,0,0,0
		c0,0,0,0,0,0c0,0,0,0,0,0c0,0,0,0,0,0c0,0,0,0,0,0.1c0,0,0,0,0,0v0c0,0,0,0,0,0v0c0,0,0,0,0,0v0c0,0,0,0,0,0v0c0,0,0,0,0,0v0
		c0,0,0,0,0,0h0c0,0,0,0,0,0.1c0,0.3-0.2,0.5-0.5,0.5c-0.3,0-0.5-0.2-0.5-0.5c0,0,0,0,0-0.1h0v0c0,0,0,0,0,0v0c0,0,0,0,0,0v0
		c0,0,0,0,0,0v0c0,0,0,0,0,0v0c0,0,0,0,0,0c0,0,0-0.1,0-0.1c0,0,0,0,0-0.1l0,0c0,0,0,0,0,0c0,0,0-0.1,0-0.1c0,0,0,0,0,0c0,0,0,0,0,0
		s0,0,0,0l0,0c0,0,0,0,0,0l0,0c0,0,0,0,0,0l0,0c0,0,0,0,0,0l0,0c0,0,0,0,0,0l0,0c0,0,0,0,0,0l0,0c0,0,0,0,0,0l0,0c0,0,0,0,0,0l0,0
		c0,0,0,0,0,0l0,0c0,0,0,0,0,0l0,0c0,0,0,0,0,0l0,0c0,0,0,0,0,0l0,0c0,0,0,0,0,0l0,0c0,0,0,0,0,0l0,0c0,0,0,0,0,0l0,0c0,0,0,0,0,0
		l0,0c0,0,0,0,0,0l0,0c0,0,0,0,0,0l0,0c0,0,0,0,0,0l0,0c0,0,0,0,0,0l0,0c0,0,0,0,0,0l0,0c0,0,0,0,0,0l0,0c0,0,0,0,0,0l0,0
		c0,0,0,0,0,0l0,0c0,0,0,0,0,0l0,0c0,0,0,0,0,0l0,0c0,0,0,0,0,0c0.1,0.1,0.3,0.1,0.5,0.2C16.8,29.5,17,29.6,17.1,29.7
		C17.2,29.6,17.1,29.7,17.1,29.7L17.1,29.7z M24.1,29.1L24.1,29.1C24.1,29.1,24.1,29.1,24.1,29.1c0,0.1,0,0.1,0,0.1c0,0,0,0,0,0
		c-0.1,0.2-0.2,0.4-0.4,0.5l0,0c0,0,0,0,0,0l0,0c-0.1,0-0.1,0.1-0.2,0.1c-0.2,0.1-0.4,0.2-0.7,0.2c-0.4,0.1-0.7,0.1-1.2,0.1
		c-0.2,0-0.5,0-0.7,0c-0.6,0-1.1-0.1-1.7-0.2c-0.2,0-0.4-0.1-0.6-0.1c-0.3-0.1-0.7-0.2-1-0.3c0,0-0.1,0-0.2-0.1
		c-0.6-0.2-1.2-0.5-1.2-0.5l0,0c0,0,0,0,0,0c-0.5-0.3-0.8-0.6-1-0.9c-0.1-0.1-0.1-0.3-0.1-0.4c0,0,0-0.1,0-0.1c0,0,0,0,0,0
		c0,0,0,0,0,0c0,0,0,0,0,0v0c0,0,0,0,0,0v0c0,0,0,0,0,0v0c0,0,0,0,0,0v0c0,0,0,0,0,0c0,0,0-0.1,0-0.1c0,0,0,0,0-0.1l0,0c0,0,0,0,0,0
		c0,0,0-0.1,0-0.1c0,0,0,0,0,0s0,0,0,0c0,0,0,0,0,0s0,0,0,0l0,0c0,0,0,0,0,0l0,0c0,0,0,0,0,0l0,0c0,0,0,0,0,0l0,0c0,0,0,0,0,0l0,0
		c0,0,0,0,0,0l0,0c0,0,0,0,0,0l0,0c0,0,0,0,0,0l0,0c0,0,0,0,0,0l0,0c0,0,0,0,0,0l0,0c0,0,0,0,0,0l0,0c0,0,0,0,0,0l0,0c0,0,0,0,0,0
		c0,0,0,0,0,0c0,0,0,0,0,0l0,0c0,0,0,0,0,0l0,0c0,0,0,0,0,0l0,0c0,0,0,0,0,0l0,0c0,0,0,0,0,0l0,0c0,0,0,0,0,0l0,0c0,0,0,0,0,0l0,0
		c0,0,0,0,0,0l0,0c0,0,0,0,0,0l0,0c0,0,0,0,0,0l0,0c0,0,0,0,0,0h0c0,0,0,0,0,0l0,0c0,0,0,0,0,0l0,0c0,0,0,0,0,0
		c0.1,0.1,0.3,0.1,0.5,0.2c0.3,0.1,0.5,0.2,0.7,0.3c0,0-0.1,0-0.1,0c0,0,0,0-0.1,0c-0.1,0-0.1,0.1-0.2,0.1c0,0,0,0-0.1,0l0,0
		c0,0,0,0,0,0c0,0-0.1,0-0.1,0.1l0,0c0,0,0,0,0,0c-0.1,0-0.1,0.1-0.2,0.1c0,0,0,0,0,0c0,0,0,0,0,0c0,0,0,0,0,0c0,0,0,0,0,0
		c0,0,0,0,0,0c0,0,0,0,0,0c0,0,0,0,0,0c0,0,0,0,0,0c0,0,0,0,0,0.1c0,0,0,0,0,0v0c0,0,0,0,0,0v0c0,0,0,0,0,0v0c0,0,0,0,0,0v0
		c0,0,0,0,0,0v0c0,0,0,0,0,0h0h0c0,0,0,0,0,0c0,0,0,0,0,0c0,0.1,0,0.1,0,0.2c0,0,0,0,0,0c0.1,0.1,0.2,0.2,0.3,0.2c0,0,0.1,0,0.1,0.1
		l0,0l0,0c0,0,0,0,0.1,0c0,0,0.1,0,0.1,0.1c0,0,0.1,0,0.1,0.1c0,0,0.1,0,0.1,0l0,0c0.1,0,0.2,0.1,0.3,0.1c0,0,0,0,0,0l0,0
		c0,0,0,0,0,0l0,0l0,0l0,0c0,0,1.1,0.4,1.8,0.5c0.1,0,0.1,0,0.2,0c0,0,0.1,0,0.1,0c0.2,0,0.5,0.1,0.7,0.1c0.2,0,0.4,0,0.6,0
		c0.2,0,0.4,0,0.5,0c0.1,0,0.2,0,0.3,0c0,0,0.1,0,0.1,0c0,0,0.1,0,0.1,0c0.1,0,0.2,0,0.4,0c0,0,0,0,0.1,0c0,0,0,0,0,0c0,0,0,0,0.1,0
		c0.1,0,0.3-0.1,0.5-0.2c0,0,0,0-0.1,0c0,0,0,0,0,0l0,0c0,0,0,0,0,0l0,0c0,0,0,0,0,0l0,0c0,0-0.1,0-0.1,0v0v0c0,0,0,0,0,0
		c0,0,0,0-0.1,0c0,0,0,0,0,0c0,0,0,0,0,0c-0.1,0-0.1,0-0.2,0c-0.2,0-0.4,0-0.6-0.1c0,0,0,0,0,0c-0.1,0-0.2,0-0.3,0
		c-0.1,0-0.2,0-0.3,0c0,0,0,0,0,0c-0.4,0-0.8,0.1-1.2,0.1c-0.1,0-0.2,0-0.3,0.1c-0.3-0.1-0.7-0.2-1.1-0.3c-0.4-0.1-0.6-0.2-0.8-0.3
		c0,0,0,0,0.1,0l0,0c0,0,0,0,0.1,0l0,0c0,0,0.1,0,0.1,0l0,0c0,0,0.1,0,0.1,0l0,0c0,0,0.1,0,0.1,0l0,0c0,0,0.1,0,0.1,0l0,0
		c0,0,0,0,0.1,0l0,0c0,0,0.1,0,0.1,0l0,0c0,0,0.1,0,0.1,0l0,0c0,0,0,0,0.1,0l0,0c0,0,0.1,0,0.1,0l0,0c0,0,0.1,0,0.1,0l0,0
		c0,0,0,0,0.1,0l0,0c0,0,0.1,0,0.1,0c0,0,0,0,0.1,0c0,0,0.1,0,0.1,0c0,0,0.1,0,0.1,0c0,0,0,0,0,0c0.1,0,0.2,0,0.4-0.1c0,0,0,0,0.1,0
		c0.3,0,0.6-0.1,0.9-0.1c0.3,0,0.6,0,0.8,0c0.4,0,0.8,0,1.1,0.1c0.1,0,0.1,0,0.2,0c0,0,0,0,0.1,0c0,0,0.1,0,0.1,0c0,0,0,0,0,0
		c0,0,0,0,0.1,0c0,0,0,0,0.1,0c0,0,0,0,0,0c0.1,0,0.1,0,0.2,0.1v0l0,0c0,0,0,0,0.1,0l0,0c0,0,0,0,0,0c0,0,0,0,0,0c0,0,0,0,0,0l0,0
		c0,0,0,0,0,0c0,0,0.1,0,0.1,0.1c0,0,0,0,0,0l0,0c0,0,0.1,0.1,0.1,0.1c0,0,0,0,0.1,0.1c0,0,0,0,0,0c0,0,0,0,0,0c0,0,0,0,0.1,0.1
		C24,28.7,24.1,28.8,24.1,29.1C24.1,29,24.1,29,24.1,29.1C24.1,29,24.1,29.1,24.1,29.1L24.1,29.1z M24.1,26.3L24.1,26.3
		C24.1,26.3,24.1,26.3,24.1,26.3c0,0.1,0,0.1,0,0.1c0,0,0,0,0,0c-0.1,0.2-0.2,0.4-0.4,0.5l0,0c0,0,0,0,0,0l0,0
		c-0.1,0-0.1,0.1-0.2,0.1c-0.2,0.1-0.4,0.2-0.7,0.2c-0.4,0.1-0.7,0.1-1.2,0.1c-0.2,0-0.5,0-0.7,0c-0.6,0-1.1-0.1-1.7-0.2
		c-0.2,0-0.4-0.1-0.6-0.1c-0.3-0.1-0.7-0.2-1-0.3c0,0-0.1,0-0.2-0.1c-0.6-0.2-1.2-0.5-1.2-0.5c0,0,0,0,0,0c-0.5-0.3-0.8-0.6-1-0.9
		c-0.1-0.1-0.1-0.3-0.1-0.4c0,0,0-0.1,0-0.1l0,0l0,0v0c0,0,0,0,0,0v0c0,0,0,0,0,0v0c0,0,0,0,0,0v0c0,0,0,0,0,0c0,0,0-0.1,0-0.1
		c0,0,0,0,0-0.1l0,0c0,0,0,0,0,0c0,0,0-0.1,0-0.1c0,0,0,0,0,0c0,0,0,0,0,0c0,0,0,0,0,0l0,0c0,0,0,0,0,0l0,0c0,0,0,0,0,0l0,0
		c0,0,0,0,0,0l0,0c0,0,0,0,0,0l0,0c0,0,0,0,0,0l0,0c0,0,0,0,0,0l0,0c0,0,0,0,0,0l0,0c0,0,0,0,0,0l0,0c0,0,0,0,0,0l0,0c0,0,0,0,0,0
		l0,0c0,0,0,0,0,0l0,0c0,0,0,0,0,0l0,0c0,0,0,0,0,0l0,0c0,0,0,0,0,0l0,0c0,0,0,0,0,0l0,0c0,0,0,0,0,0l0,0c0,0,0,0,0,0l0,0
		c0,0,0,0,0,0l0,0c0,0,0,0,0,0l0,0c0,0,0,0,0,0l0,0c0,0,0,0,0,0l0,0c0,0,0,0,0,0l0,0c0,0,0,0,0,0l0,0c0,0,0,0,0,0l0,0c0,0,0,0,0,0
		l0,0c0,0,0,0,0,0c0.1,0.1,0.3,0.1,0.5,0.2c0.3,0.1,0.5,0.2,0.7,0.3c0,0-0.1,0-0.1,0c0,0,0,0-0.1,0c-0.1,0-0.1,0.1-0.2,0.1
		c0,0-0.1,0-0.1,0c0,0-0.1,0-0.1,0.1l0,0c0,0,0,0,0,0c-0.1,0-0.1,0.1-0.2,0.1c0,0,0,0,0,0c0,0,0,0,0,0c0,0,0,0,0,0c0,0,0,0,0,0
		c0,0,0,0,0,0c0,0,0,0,0,0c0,0,0,0,0,0c0,0,0,0,0,0c0,0,0,0,0,0.1c0,0,0,0,0,0v0c0,0,0,0,0,0v0c0,0,0,0,0,0v0c0,0,0,0,0,0v0
		c0,0,0,0,0,0v0c0,0,0,0,0,0l0,0c0,0.1,0,0.2,0,0.2c0,0,0,0,0,0c0.1,0.1,0.2,0.2,0.3,0.2c0,0,0.1,0,0.1,0.1l0,0l0,0c0,0,0,0,0.1,0
		c0,0,0.1,0,0.1,0.1v0l0,0l0,0l0,0l0,0c0,0,0.1,0,0.1,0.1c0,0,0.1,0,0.1,0l0,0c0.1,0,0.2,0.1,0.3,0.1c0,0,0,0,0,0l0,0c0,0,0,0,0,0
		c0,0,0,0,0,0c0,0,0,0,0,0l0,0c0,0,1.1,0.4,1.8,0.5c0.1,0,0.1,0,0.2,0c0,0,0.1,0,0.1,0c0.2,0,0.5,0.1,0.7,0.1c0.2,0,0.4,0,0.6,0
		c0.2,0,0.4,0,0.5,0c0.1,0,0.2,0,0.3,0c0,0,0.1,0,0.1,0c0,0,0.1,0,0.1,0c0.1,0,0.2,0,0.4,0c0,0,0,0,0.1,0c0,0,0,0,0,0c0,0,0,0,0.1,0
		c0.1,0,0.3-0.1,0.5-0.2c0,0,0,0-0.1,0c0,0,0,0,0,0l0,0c0,0,0,0,0,0h0c0,0,0,0,0,0l0,0l0,0c0,0-0.1,0-0.1,0v0v0c0,0,0,0,0,0
		c0,0,0,0-0.1,0c0,0,0,0,0,0c0,0,0,0,0,0c-0.1,0-0.1,0-0.2,0c-0.2,0-0.4,0-0.6-0.1c0,0,0,0,0,0c-0.1,0-0.2,0-0.3,0
		c-0.1,0-0.2,0-0.3,0c0,0,0,0,0,0c-0.4,0-0.8,0.1-1.2,0.1c-0.1,0-0.2,0-0.3,0c-0.3-0.1-0.7-0.2-1.1-0.3c-0.4-0.1-0.6-0.2-0.8-0.3
		c0,0,0,0,0.1,0c0,0,0,0,0,0c0,0,0,0,0.1,0l0,0c0,0,0.1,0,0.1,0l0,0c0,0,0.1,0,0.1,0l0,0c0,0,0.1,0,0.1,0l0,0c0,0,0.1,0,0.1,0l0,0
		c0,0,0,0,0.1,0l0,0c0,0,0.1,0,0.1,0l0,0c0,0,0.1,0,0.1,0l0,0c0,0,0,0,0.1,0l0,0c0,0,0.1,0,0.1,0l0,0c0,0,0.1,0,0.1,0l0,0
		c0,0,0,0,0.1,0l0,0c0,0,0.1,0,0.1,0c0,0,0,0,0.1,0c0.1,0,0.2,0,0.3-0.1c0,0,0,0,0,0c0.1,0,0.2,0,0.4-0.1c0,0,0,0,0.1,0
		c0.3,0,0.6-0.1,0.9-0.1c0.3,0,0.6,0,0.8,0c0.4,0,0.8,0,1.1,0.1c0.1,0,0.1,0,0.2,0c0,0,0,0,0.1,0c0,0,0.1,0,0.1,0c0,0,0,0,0,0
		c0,0,0,0,0.1,0c0,0,0,0,0.1,0c0,0,0,0,0,0s0,0,0,0c0.1,0,0.2,0.1,0.2,0.1c0,0,0,0,0,0l0,0c0,0,0,0,0,0c0,0,0,0,0.1,0c0,0,0,0,0.1,0
		c0,0,0,0,0,0l0,0c0,0,0.1,0.1,0.1,0.1c0,0,0,0,0,0c0,0,0,0,0,0c0,0,0,0,0,0c0,0,0,0,0.1,0.1C24,25.9,24.1,26,24.1,26.3
		C24.1,26.2,24.1,26.2,24.1,26.3C24.1,26.2,24.1,26.2,24.1,26.3L24.1,26.3z M24.1,23.4L24.1,23.4C24.1,23.5,24.1,23.5,24.1,23.4
		c0,0.1,0,0.1,0,0.1c0,0,0,0,0,0c-0.1,0.2-0.2,0.4-0.4,0.5l0,0c0,0,0,0,0,0l0,0c-0.1,0-0.1,0.1-0.2,0.1c-0.2,0.1-0.4,0.2-0.7,0.2
		c-0.4,0.1-0.7,0.1-1.2,0.1c-0.2,0-0.5,0-0.7,0c-0.6,0-1.1-0.1-1.7-0.2c-0.2,0-0.4-0.1-0.6-0.1c-0.3-0.1-0.7-0.2-1-0.3
		c0,0-0.1,0-0.2-0.1c-0.6-0.2-1.2-0.5-1.2-0.5l0,0c0,0,0,0,0,0c-0.5-0.3-0.8-0.6-1-0.9c-0.1-0.1-0.1-0.3-0.1-0.4c0,0,0-0.1,0-0.1
		c0,0,0,0,0,0c0,0,0,0,0,0c0,0,0,0,0,0v0c0,0,0,0,0,0v0c0,0,0,0,0,0v0c0,0,0,0,0,0v0c0,0,0,0,0,0c0,0,0-0.1,0-0.1c0,0,0,0,0-0.1l0,0
		c0,0,0,0,0,0c0,0,0-0.1,0-0.1c0,0,0,0,0,0c0,0,0,0,0,0c0,0,0,0,0,0c0,0,0,0,0,0l0,0c0,0,0,0,0,0l0,0c0,0,0,0,0,0l0,0c0,0,0,0,0,0
		l0,0c0,0,0,0,0,0l0,0c0,0,0,0,0,0l0,0c0,0,0,0,0,0l0,0c0,0,0,0,0,0l0,0c0,0,0,0,0,0l0,0c0,0,0,0,0,0l0,0c0,0,0,0,0,0l0,0
		c0,0,0,0,0,0l0,0c0,0,0,0,0,0c0,0,0,0,0,0c0,0,0,0,0,0l0,0c0,0,0,0,0,0l0,0c0,0,0,0,0,0l0,0c0,0,0,0,0,0l0,0c0,0,0,0,0,0l0,0
		c0,0,0,0,0,0l0,0c0,0,0,0,0,0l0,0c0,0,0,0,0,0l0,0c0,0,0,0,0,0l0,0c0,0,0,0,0,0l0,0c0,0,0,0,0,0h0c0,0,0,0,0,0l0,0c0,0,0,0,0,0l0,0
		c0,0,0,0,0,0c0.1,0.1,0.3,0.1,0.5,0.2c0.3,0.1,0.5,0.2,0.7,0.3c0,0-0.1,0-0.1,0c0,0,0,0-0.1,0c-0.1,0-0.1,0.1-0.2,0.1
		c0,0,0,0-0.1,0l0,0c0,0,0,0,0,0c0,0-0.1,0-0.1,0.1l0,0c0,0,0,0,0,0c-0.1,0-0.1,0.1-0.2,0.1c0,0,0,0,0,0c0,0,0,0,0,0c0,0,0,0,0,0
		c0,0,0,0,0,0c0,0,0,0,0,0c0,0,0,0,0,0c0,0,0,0,0,0c0,0,0,0,0,0c0,0,0,0,0,0.1c0,0,0,0,0,0v0c0,0,0,0,0,0v0c0,0,0,0,0,0v0
		c0,0,0,0,0,0v0c0,0,0,0,0,0v0c0,0,0,0,0,0h0h0c0,0,0,0,0,0c0,0,0,0,0,0c0,0.1,0,0.1,0,0.2c0,0,0,0,0,0c0.1,0.1,0.2,0.2,0.3,0.2
		c0,0,0.1,0,0.1,0.1l0,0l0,0c0,0,0,0,0.1,0c0,0,0.1,0,0.1,0.1c0,0,0.1,0,0.1,0.1c0,0,0.1,0,0.1,0l0,0c0.1,0,0.2,0.1,0.3,0.1
		c0,0,0,0,0,0l0,0c0,0,0,0,0,0l0,0l0,0l0,0c0,0,1.1,0.4,1.8,0.5c0.1,0,0.1,0,0.2,0c0,0,0.1,0,0.1,0c0.2,0,0.5,0.1,0.7,0.1
		c0.2,0,0.4,0,0.6,0c0.2,0,0.4,0,0.5,0c0.1,0,0.2,0,0.3,0c0,0,0.1,0,0.1,0c0,0,0.1,0,0.1,0c0.1,0,0.2,0,0.4,0c0,0,0,0,0.1,0
		c0,0,0,0,0,0c0,0,0,0,0.1,0c0.1,0,0.3-0.1,0.5-0.2c0,0,0,0-0.1,0c0,0,0,0,0,0l0,0c0,0,0,0,0,0h0c0,0,0,0,0,0l0,0c0,0-0.1,0-0.1,0v0
		v0c0,0,0,0,0,0c0,0,0,0-0.1,0c0,0,0,0,0,0c0,0,0,0,0,0c-0.1,0-0.1,0-0.2,0c-0.2,0-0.4,0-0.6-0.1c0,0,0,0,0,0c-0.1,0-0.2,0-0.3,0
		c-0.1,0-0.2,0-0.3,0c0,0,0,0,0,0c-0.4,0-0.8,0.1-1.2,0.1c-0.1,0-0.2,0-0.3,0c-0.3-0.1-0.7-0.2-1.1-0.3c-0.4-0.1-0.6-0.2-0.8-0.3
		c0,0,0,0,0.1,0l0,0c0,0,0,0,0.1,0l0,0c0,0,0.1,0,0.1,0l0,0c0,0,0.1,0,0.1,0l0,0c0,0,0.1,0,0.1,0l0,0c0,0,0.1,0,0.1,0l0,0
		c0,0,0,0,0.1,0l0,0c0,0,0.1,0,0.1,0l0,0c0,0,0.1,0,0.1,0l0,0c0,0,0,0,0.1,0l0,0c0,0,0.1,0,0.1,0l0,0c0,0,0.1,0,0.1,0l0,0
		c0,0,0,0,0.1,0l0,0c0,0,0.1,0,0.1,0c0,0,0,0,0.1,0c0,0,0.1,0,0.1,0c0,0,0.1,0,0.1,0c0,0,0,0,0,0c0.1,0,0.2,0,0.4-0.1c0,0,0,0,0.1,0
		c0.3,0,0.6-0.1,0.9-0.1c0.3,0,0.6,0,0.8,0c0.4,0,0.8,0,1.1,0.1c0.1,0,0.1,0,0.2,0c0,0,0,0,0.1,0c0,0,0.1,0,0.1,0c0,0,0,0,0,0
		c0,0,0,0,0.1,0c0,0,0,0,0.1,0c0,0,0,0,0,0c0.1,0,0.1,0,0.2,0.1v0l0,0c0,0,0,0,0.1,0l0,0c0,0,0,0,0,0c0,0,0,0,0,0c0,0,0,0,0,0l0,0
		c0,0,0,0,0,0c0,0,0.1,0,0.1,0.1c0,0,0,0,0,0l0,0c0,0,0.1,0.1,0.1,0.1c0,0,0,0,0.1,0.1c0,0,0,0,0,0c0,0,0,0,0,0c0,0,0,0,0.1,0.1
		C24,23.1,24.1,23.2,24.1,23.4C24.1,23.4,24.1,23.4,24.1,23.4C24.1,23.4,24.1,23.4,24.1,23.4L24.1,23.4z M24.1,17.7L24.1,17.7
		C24.1,17.7,24.1,17.7,24.1,17.7C24.1,17.7,24.1,17.8,24.1,17.7c0,0.1,0,0.1,0,0.1c0,0,0,0,0,0.1c0,0.1-0.1,0.2-0.2,0.2
		c-0.1,0.1-0.2,0.1-0.3,0.1c-0.2,0-0.4-0.2-0.5-0.4c0,0,0,0,0,0c0,0-0.1-0.1-0.2-0.1c0,0-0.1,0-0.1,0c-0.1,0-0.2-0.1-0.3-0.1
		c-0.1,0-0.1,0-0.2,0c-0.2,0-0.4,0-0.6-0.1c0,0,0,0,0,0c-0.1,0-0.2,0-0.3,0c-0.1,0-0.2,0-0.3,0c0,0,0,0,0,0c-0.4,0-0.8,0.1-1.2,0.1
		c-0.1,0-0.2,0-0.4,0.1c-0.1,0-0.1,0-0.2,0c-0.2,0-0.4,0.1-0.7,0.1c-0.5,0.1-0.9,0.2-1.2,0.4c0,0,0,0,0,0c0,0,0,0,0,0l0,0
		c-0.2,0.1-0.4,0.2-0.5,0.3c0,0-0.1,0-0.1,0.1l0,0c0,0,0,0,0,0c-0.1,0-0.1,0.1-0.2,0.1c0,0,0,0,0,0c0,0,0,0,0,0l0,0
		c-0.1,0-0.1,0.1-0.2,0.2c0,0,0,0,0,0.1c0,0,0,0,0,0c0,0.1,0,0.2,0,0.2c0,0,0,0,0,0c0.1,0.1,0.2,0.2,0.3,0.2c0,0,0.1,0,0.1,0.1l0,0
		l0,0c0,0,0,0,0.1,0c0,0,0.1,0,0.1,0.1l0,0v0l0,0l0,0l0,0l0,0c0,0,0.1,0,0.1,0.1c0,0,0.1,0,0.1,0l0,0c0.1,0,0.2,0.1,0.3,0.1
		c0,0,0,0,0,0l0,0c0,0,0,0,0,0c0,0,0,0,0,0c0,0,0,0,0,0l0,0c0,0,1.1,0.4,1.8,0.5c0.1,0,0.1,0,0.2,0c0,0,0.1,0,0.1,0
		c0.2,0,0.5,0.1,0.7,0.1c0.2,0,0.4,0,0.6,0c0.2,0,0.4,0,0.5,0c0.1,0,0.2,0,0.3,0c0,0,0.1,0,0.1,0c0,0,0.1,0,0.1,0c0.1,0,0.2,0,0.4,0
		c0,0,0,0,0.1,0c0,0,0,0,0,0c0,0,0,0,0.1,0c0.1,0,0.3-0.1,0.5-0.2c0,0,0,0-0.1,0c0,0,0,0,0,0l0,0c0,0,0,0,0,0h0c0,0,0,0,0,0l0,0l0,0
		c0,0-0.1,0-0.1,0v0v0c0,0,0,0,0,0c0,0,0,0-0.1,0c0,0,0,0,0,0c0,0,0,0,0,0c-0.1,0-0.1,0-0.2,0c-0.2,0-0.4,0-0.6-0.1c0,0,0,0,0,0
		c-0.1,0-0.2,0-0.3,0c-0.1,0-0.2,0-0.3,0c0,0,0,0,0,0c-0.4,0-0.8,0.1-1.2,0.1c-0.1,0-0.2,0-0.3,0.1c-0.3-0.1-0.7-0.2-1.1-0.3
		C18,20.1,17.8,20,17.6,20c0,0,0,0,0.1,0c0,0,0,0,0,0c0,0,0,0,0.1,0l0,0c0,0,0.1,0,0.1,0l0,0c0,0,0.1,0,0.1,0l0,0c0,0,0.1,0,0.1,0
		l0,0c0,0,0.1,0,0.1,0l0,0c0,0,0,0,0.1,0l0,0c0,0,0.1,0,0.1,0l0,0c0,0,0.1,0,0.1,0l0,0c0,0,0,0,0.1,0l0,0c0,0,0.1,0,0.1,0l0,0
		c0,0,0.1,0,0.1,0l0,0c0,0,0,0,0.1,0l0,0c0,0,0.1,0,0.1,0c0,0,0,0,0.1,0c0.1,0,0.2,0,0.3-0.1c0,0,0,0,0,0c0.1,0,0.2,0,0.4-0.1
		c0,0,0,0,0.1,0c0.3,0,0.6-0.1,0.9-0.1c0.3,0,0.6,0,0.8,0c0.4,0,0.8,0,1.1,0.1c0.1,0,0.1,0,0.2,0c0,0,0,0,0.1,0c0,0,0.1,0,0.1,0
		c0,0,0,0,0,0c0,0,0,0,0.1,0c0,0,0,0,0.1,0c0,0,0,0,0,0s0,0,0,0c0.1,0,0.2,0.1,0.2,0.1c0,0,0,0,0,0l0,0c0,0,0,0,0,0c0,0,0,0,0.1,0
		c0,0,0,0,0.1,0c0,0,0,0,0,0l0,0c0,0,0.1,0.1,0.1,0.1c0,0,0,0,0,0c0,0,0,0,0,0c0,0,0,0,0,0c0,0,0,0,0.1,0.1c0.1,0.1,0.2,0.3,0.2,0.4
		c0,0,0,0,0,0c0,0,0,0,0,0.1c0,0,0,0,0,0c0,0,0,0,0,0.1c0,0,0,0,0,0c-0.1,0.2-0.2,0.4-0.4,0.5l0,0c0,0,0,0,0,0l0,0
		c-0.1,0-0.1,0.1-0.2,0.1c-0.2,0.1-0.4,0.2-0.7,0.2c-0.4,0.1-0.7,0.1-1.2,0.1c-0.2,0-0.5,0-0.7,0c-0.6,0-1.1-0.1-1.7-0.2
		c-0.2,0-0.4-0.1-0.6-0.1c-0.3-0.1-0.7-0.2-1-0.3c0,0-0.1,0-0.2-0.1c-0.6-0.2-1.2-0.5-1.2-0.5c0,0,0,0,0,0c-0.5-0.3-0.8-0.6-1-0.9
		c-0.1-0.1-0.1-0.3-0.1-0.4c0,0,0-0.1,0-0.1c0,0,0-0.1,0-0.1v0c0,0,0,0,0,0c0,0,0-0.1,0-0.1c0,0,0,0,0-0.1c0-0.1,0-0.1,0.1-0.2
		c0,0,0,0,0,0c0.2-0.4,0.6-0.7,1.3-1.1c0,0,0.1,0,0.1,0l0,0c0.7-0.3,1.5-0.6,2.4-0.7c0,0,0,0,0.1,0c0.6-0.1,1.1-0.2,1.6-0.2
		c0.3,0,0.6,0,0.8,0c0.4,0,0.8,0,1.1,0.1c0.1,0,0.1,0,0.2,0c0.2,0.1,0.4,0.1,0.6,0.2c0.2,0.1,0.3,0.2,0.4,0.3c0,0,0,0,0.1,0.1
		C24,17.4,24.1,17.6,24.1,17.7C24.1,17.7,24.1,17.7,24.1,17.7L24.1,17.7L24.1,17.7z M27.9,24.3L27.9,24.3
		C27.9,24.3,27.9,24.3,27.9,24.3c-0.1,0.1-0.2,0.1-0.2,0.1c0,0-0.1,0-0.1,0c0,0-0.1,0-0.1,0.1l0,0c0,0,0,0,0,0
		c-0.1,0-0.1,0.1-0.2,0.1c0,0,0,0,0,0c0,0,0,0,0,0c0,0,0,0,0,0c0,0,0,0,0,0c0,0,0,0,0,0c0,0,0,0,0,0s0,0,0,0c0,0,0,0,0,0
		c0,0,0,0,0,0.1c0,0,0,0,0,0v0c0,0,0,0,0,0v0c0,0,0,0,0,0v0c0,0,0,0,0,0v0c0,0,0,0,0,0v0c0,0,0,0,0,0h0c0,0,0,0,0,0.1
		c0,0.3-0.2,0.5-0.5,0.5c-0.2,0-0.5-0.2-0.5-0.5c0,0,0,0,0-0.1h0v0c0,0,0,0,0,0v0c0,0,0,0,0,0v0c0,0,0,0,0,0v0c0,0,0,0,0,0v0
		c0,0,0,0,0,0c0,0,0-0.1,0-0.1c0,0,0,0,0-0.1c0,0,0,0,0,0c0,0,0-0.1,0-0.1c0,0,0,0,0,0c0,0,0,0,0,0c0,0,0,0,0,0l0,0c0,0,0,0,0,0l0,0
		c0,0,0,0,0,0l0,0c0,0,0,0,0,0l0,0c0,0,0,0,0,0l0,0c0,0,0,0,0,0l0,0c0,0,0,0,0,0l0,0c0,0,0,0,0,0l0,0c0,0,0,0,0,0l0,0c0,0,0,0,0,0
		l0,0c0,0,0,0,0,0l0,0c0,0,0,0,0,0l0,0c0,0,0,0,0,0l0,0c0,0,0,0,0,0l0,0c0,0,0,0,0,0l0,0c0,0,0,0,0,0l0,0c0,0,0,0,0,0l0,0
		c0,0,0,0,0,0l0,0c0,0,0,0,0,0l0,0c0,0,0,0,0,0l0,0c0,0,0,0,0,0l0,0c0,0,0,0,0,0l0,0c0,0,0,0,0,0l0,0c0,0,0,0,0,0h0c0,0,0,0,0,0l0,0
		c0,0,0,0,0,0l0,0c0,0,0,0,0,0c0.1,0.1,0.3,0.1,0.4,0.2C27.6,24.1,27.9,24.2,27.9,24.3C28,24.2,27.9,24.3,27.9,24.3L27.9,24.3z
		 M34.3,23.7L34.3,23.7C34.3,23.8,34.3,23.8,34.3,23.7c0,0.1,0,0.1,0,0.1c0,0,0,0,0,0c-0.1,0.2-0.2,0.3-0.4,0.5l0,0c0,0,0,0,0,0l0,0
		c-0.1,0-0.1,0.1-0.2,0.1c-0.2,0.1-0.4,0.2-0.6,0.2c-0.3,0.1-0.7,0.1-1.1,0.1c-0.2,0-0.4,0-0.6,0c-0.5,0-1-0.1-1.6-0.2
		c-0.2,0-0.3-0.1-0.5-0.1c-0.3-0.1-0.6-0.2-0.9-0.2c0,0-0.1,0-0.1,0c-0.5-0.2-1.1-0.5-1.1-0.5l0,0c0,0,0,0,0,0
		c-0.5-0.3-0.8-0.5-0.9-0.8c-0.1-0.1-0.1-0.3-0.1-0.4c0,0,0,0,0-0.1c0,0,0,0,0,0c0,0,0,0,0,0c0,0,0,0,0,0v0c0,0,0,0,0,0v0
		c0,0,0,0,0,0v0c0,0,0,0,0,0v0c0,0,0,0,0,0c0,0,0-0.1,0-0.1c0,0,0,0,0,0l0,0c0,0,0,0,0,0c0,0,0-0.1,0-0.1c0,0,0,0,0,0s0,0,0,0
		c0,0,0,0,0,0c0,0,0,0,0,0l0,0c0,0,0,0,0,0l0,0c0,0,0,0,0,0l0,0c0,0,0,0,0,0l0,0c0,0,0,0,0,0l0,0c0,0,0,0,0,0l0,0c0,0,0,0,0,0l0,0
		c0,0,0,0,0,0l0,0c0,0,0,0,0,0l0,0c0,0,0,0,0,0l0,0c0,0,0,0,0,0l0,0c0,0,0,0,0,0l0,0c0,0,0,0,0,0c0,0,0,0,0,0c0,0,0,0,0,0l0,0
		c0,0,0,0,0,0l0,0c0,0,0,0,0,0l0,0c0,0,0,0,0,0l0,0c0,0,0,0,0,0l0,0c0,0,0,0,0,0l0,0c0,0,0,0,0,0l0,0c0,0,0,0,0,0l0,0c0,0,0,0,0,0
		l0,0c0,0,0,0,0,0l0,0c0,0,0,0,0,0h0c0,0,0,0,0,0l0,0c0,0,0,0,0,0l0,0c0,0,0,0,0,0c0.1,0.1,0.3,0.1,0.4,0.2c0.3,0.1,0.5,0.2,0.6,0.3
		c0,0-0.1,0-0.1,0c0,0,0,0-0.1,0c-0.1,0-0.1,0.1-0.2,0.1c0,0,0,0-0.1,0l0,0c0,0,0,0,0,0c0,0-0.1,0-0.1,0.1l0,0c0,0,0,0,0,0
		c-0.1,0-0.1,0.1-0.2,0.1c0,0,0,0,0,0c0,0,0,0,0,0c0,0,0,0,0,0c0,0,0,0,0,0c0,0,0,0,0,0c0,0,0,0,0,0c0,0,0,0,0,0c0,0,0,0,0,0
		c0,0,0,0,0,0.1c0,0,0,0,0,0v0c0,0,0,0,0,0v0c0,0,0,0,0,0v0c0,0,0,0,0,0v0c0,0,0,0,0,0v0c0,0,0,0,0,0h0h0c0,0,0,0,0,0s0,0,0,0
		c0,0.1,0,0.1,0,0.1c0,0,0,0,0,0c0.1,0.1,0.2,0.1,0.2,0.2c0,0,0.1,0,0.1,0.1l0,0l0,0c0,0,0,0,0.1,0c0,0,0.1,0,0.1,0.1s0.1,0,0.1,0.1
		c0,0,0.1,0,0.1,0l0,0c0.1,0,0.2,0.1,0.3,0.1c0,0,0,0,0,0l0,0c0,0,0,0,0,0l0,0l0,0l0,0c0,0,1,0.4,1.7,0.5c0.1,0,0.1,0,0.2,0
		c0,0,0.1,0,0.1,0c0.2,0,0.4,0.1,0.6,0.1c0.2,0,0.3,0,0.5,0c0.2,0,0.3,0,0.5,0c0.1,0,0.2,0,0.3,0c0,0,0.1,0,0.1,0c0,0,0.1,0,0.1,0
		c0.1,0,0.2,0,0.3,0c0,0,0,0,0.1,0c0,0,0,0,0,0c0,0,0,0,0.1,0c0.1,0,0.3-0.1,0.4-0.1c0,0,0,0,0,0c0,0,0,0,0,0l0,0c0,0,0,0,0,0h0
		c0,0,0,0,0,0l0,0c0,0-0.1,0-0.1,0v0v0c0,0,0,0,0,0c0,0,0,0-0.1,0c0,0,0,0,0,0c0,0,0,0,0,0c-0.1,0-0.1,0-0.2,0c-0.2,0-0.3,0-0.5,0
		c0,0,0,0,0,0c-0.1,0-0.2,0-0.3,0c-0.1,0-0.2,0-0.2,0c0,0,0,0,0,0c-0.4,0-0.8,0.1-1.1,0.1c-0.1,0-0.2,0-0.3,0
		c-0.3-0.1-0.7-0.1-1-0.3c-0.3-0.1-0.5-0.2-0.7-0.2c0,0,0,0,0,0l0,0c0,0,0,0,0.1,0l0,0c0,0,0.1,0,0.1,0l0,0c0,0,0,0,0.1,0l0,0
		c0,0,0,0,0.1,0l0,0c0,0,0.1,0,0.1,0l0,0c0,0,0,0,0.1,0l0,0c0,0,0,0,0.1,0l0,0c0,0,0.1,0,0.1,0l0,0c0,0,0,0,0.1,0l0,0
		c0,0,0.1,0,0.1,0l0,0c0,0,0.1,0,0.1,0l0,0c0,0,0,0,0.1,0l0,0c0,0,0.1,0,0.1,0c0,0,0,0,0,0c0,0,0.1,0,0.1,0c0,0,0.1,0,0.1,0
		c0,0,0,0,0,0c0.1,0,0.2,0,0.3-0.1c0,0,0,0,0.1,0c0.3,0,0.5-0.1,0.8-0.1c0.3,0,0.5,0,0.7,0c0.4,0,0.7,0,1,0.1c0.1,0,0.1,0,0.2,0
		c0,0,0,0,0,0c0,0,0,0,0.1,0c0,0,0,0,0,0c0,0,0,0,0.1,0c0,0,0,0,0.1,0c0,0,0,0,0,0c0.1,0,0.1,0,0.2,0.1v0l0,0c0,0,0,0,0,0l0,0
		c0,0,0,0,0,0c0,0,0,0,0,0c0,0,0,0,0,0l0,0c0,0,0,0,0,0c0,0,0.1,0,0.1,0.1c0,0,0,0,0,0l0,0c0,0,0.1,0,0.1,0.1c0,0,0,0,0.1,0
		c0,0,0,0,0,0c0,0,0,0,0,0c0,0,0,0,0.1,0.1C34.2,23.4,34.3,23.5,34.3,23.7C34.3,23.7,34.3,23.7,34.3,23.7
		C34.3,23.7,34.3,23.7,34.3,23.7L34.3,23.7z M34.3,21.2L34.3,21.2C34.3,21.2,34.3,21.2,34.3,21.2c0,0.1,0,0.1,0,0.1c0,0,0,0,0,0
		c-0.1,0.2-0.2,0.3-0.4,0.5l0,0c0,0,0,0,0,0l0,0c-0.1,0-0.1,0.1-0.2,0.1c-0.2,0.1-0.4,0.2-0.6,0.2c-0.3,0.1-0.7,0.1-1.1,0.1
		c-0.2,0-0.4,0-0.6,0c-0.5,0-1-0.1-1.6-0.2c-0.2,0-0.3-0.1-0.5-0.1c-0.3-0.1-0.6-0.2-0.9-0.2c0,0-0.1,0-0.1,0
		c-0.5-0.2-1.1-0.5-1.1-0.5c0,0,0,0,0,0c-0.5-0.3-0.8-0.5-0.9-0.8c-0.1-0.1-0.1-0.3-0.1-0.4c0,0,0-0.1,0-0.1l0,0v0c0,0,0,0,0,0v0
		c0,0,0,0,0,0v0c0,0,0,0,0,0v0c0,0,0,0,0,0c0,0,0-0.1,0-0.1c0,0,0,0,0-0.1c0,0,0,0,0,0c0,0,0-0.1,0-0.1c0,0,0,0,0,0c0,0,0,0,0,0
		c0,0,0,0,0,0l0,0c0,0,0,0,0,0l0,0c0,0,0,0,0,0l0,0c0,0,0,0,0,0l0,0c0,0,0,0,0,0l0,0c0,0,0,0,0,0l0,0c0,0,0,0,0,0l0,0c0,0,0,0,0,0
		l0,0c0,0,0,0,0,0l0,0c0,0,0,0,0,0l0,0c0,0,0,0,0,0l0,0c0,0,0,0,0,0l0,0c0,0,0,0,0,0l0,0c0,0,0,0,0,0l0,0c0,0,0,0,0,0l0,0
		c0,0,0,0,0,0l0,0c0,0,0,0,0,0l0,0c0,0,0,0,0,0l0,0c0,0,0,0,0,0h0c0,0,0,0,0,0l0,0c0,0,0,0,0,0l0,0c0,0,0,0,0,0l0,0c0,0,0,0,0,0l0,0
		c0,0,0,0,0,0h0c0,0,0,0,0,0l0,0c0,0,0,0,0,0l0,0c0,0,0,0,0,0c0.1,0.1,0.3,0.1,0.4,0.2c0.3,0.1,0.5,0.2,0.6,0.3c0,0-0.1,0-0.1,0
		c0,0,0,0-0.1,0c-0.1,0-0.1,0.1-0.2,0.1c0,0-0.1,0-0.1,0c0,0-0.1,0-0.1,0.1l0,0c0,0,0,0,0,0c-0.1,0-0.1,0.1-0.2,0.1c0,0,0,0,0,0
		c0,0,0,0,0,0c0,0,0,0,0,0c0,0,0,0,0,0c0,0,0,0,0,0c0,0,0,0,0,0c0,0,0,0,0,0c0,0,0,0,0,0c0,0,0,0,0,0.1c0,0,0,0,0,0v0c0,0,0,0,0,0v0
		c0,0,0,0,0,0v0c0,0,0,0,0,0v0c0,0,0,0,0,0v0v0l0,0c0,0.1,0,0.1,0,0.2c0,0,0,0,0,0c0.1,0.1,0.2,0.1,0.2,0.2c0,0,0.1,0,0.1,0.1l0,0
		l0,0c0,0,0,0,0.1,0c0,0,0.1,0,0.1,0.1l0,0l0,0l0,0c0,0,0.1,0,0.1,0.1c0,0,0.1,0,0.1,0l0,0c0.1,0,0.2,0.1,0.3,0.1c0,0,0,0,0,0l0,0
		c0,0,0,0,0,0c0,0,0,0,0,0s0,0,0,0l0,0c0,0,1,0.4,1.7,0.5c0.1,0,0.1,0,0.2,0c0,0,0.1,0,0.1,0c0.2,0,0.4,0.1,0.6,0.1
		c0.2,0,0.3,0,0.5,0c0.2,0,0.3,0,0.5,0c0.1,0,0.2,0,0.3,0c0,0,0.1,0,0.1,0c0,0,0.1,0,0.1,0c0.1,0,0.2,0,0.3,0c0,0,0,0,0.1,0
		c0,0,0,0,0,0c0,0,0,0,0.1,0c0.1,0,0.3-0.1,0.4-0.1c0,0,0,0,0,0c0,0,0,0,0,0l0,0c0,0,0,0,0,0h0c0,0,0,0,0,0l0,0l0,0c0,0-0.1,0-0.1,0
		v0v0c0,0,0,0,0,0c0,0,0,0-0.1,0c0,0,0,0,0,0c0,0,0,0,0,0c-0.1,0-0.1,0-0.2,0c-0.2,0-0.3,0-0.5,0c0,0,0,0,0,0c-0.1,0-0.2,0-0.3,0
		c-0.1,0-0.2,0-0.2,0c0,0,0,0,0,0c-0.4,0-0.8,0.1-1.1,0.1c-0.1,0-0.2,0-0.3,0c-0.3-0.1-0.7-0.1-1-0.3c-0.3-0.1-0.5-0.2-0.7-0.2
		c0,0,0,0,0,0c0,0,0,0,0,0c0,0,0,0,0.1,0l0,0c0,0,0.1,0,0.1,0l0,0c0,0,0,0,0.1,0l0,0c0,0,0,0,0.1,0l0,0c0,0,0.1,0,0.1,0l0,0
		c0,0,0,0,0.1,0l0,0c0,0,0,0,0.1,0l0,0c0,0,0.1,0,0.1,0l0,0c0,0,0,0,0.1,0l0,0c0,0,0.1,0,0.1,0h0c0,0,0.1,0,0.1,0l0,0c0,0,0,0,0.1,0
		l0,0c0,0,0.1,0,0.1,0c0,0,0,0,0,0c0.1,0,0.2,0,0.3-0.1c0,0,0,0,0,0c0.1,0,0.2,0,0.3-0.1c0,0,0,0,0.1,0c0.3,0,0.5-0.1,0.8-0.1
		c0.3,0,0.5,0,0.7,0c0.4,0,0.7,0,1,0.1c0.1,0,0.1,0,0.2,0c0,0,0,0,0,0c0,0,0,0,0.1,0c0,0,0,0,0,0c0,0,0,0,0.1,0s0,0,0.1,0
		c0,0,0,0,0,0c0,0,0,0,0,0c0.1,0,0.1,0.1,0.2,0.1c0,0,0,0,0,0l0,0c0,0,0,0,0,0c0,0,0,0,0.1,0c0,0,0,0,0.1,0c0,0,0,0,0,0l0,0
		c0,0,0.1,0.1,0.1,0.1c0,0,0,0,0,0c0,0,0,0,0,0c0,0,0,0,0,0c0,0,0,0,0.1,0.1C34.2,20.8,34.3,21,34.3,21.2
		C34.3,21.1,34.3,21.1,34.3,21.2C34.3,21.1,34.3,21.2,34.3,21.2L34.3,21.2z M34.3,18.6L34.3,18.6C34.3,18.6,34.3,18.6,34.3,18.6
		c0,0.1,0,0.1,0,0.1c0,0,0,0,0,0c-0.1,0.2-0.2,0.3-0.4,0.5l0,0c0,0,0,0,0,0l0,0c-0.1,0-0.1,0.1-0.2,0.1c-0.2,0.1-0.4,0.2-0.6,0.2
		c-0.3,0.1-0.7,0.1-1.1,0.1c-0.2,0-0.4,0-0.6,0c-0.5,0-1-0.1-1.6-0.2c-0.2,0-0.3-0.1-0.5-0.1c-0.3-0.1-0.6-0.2-0.9-0.2
		c0,0-0.1,0-0.1,0c-0.5-0.2-1.1-0.5-1.1-0.5l0,0c0,0,0,0,0,0c-0.5-0.3-0.8-0.5-0.9-0.8c-0.1-0.1-0.1-0.3-0.1-0.4c0,0,0,0,0-0.1
		c0,0,0,0,0,0c0,0,0,0,0,0c0,0,0,0,0,0v0c0,0,0,0,0,0v0c0,0,0,0,0,0v0c0,0,0,0,0,0v0c0,0,0,0,0,0c0,0,0-0.1,0-0.1c0,0,0,0,0-0.1
		c0,0,0,0,0,0c0,0,0-0.1,0-0.1c0,0,0,0,0,0s0,0,0,0c0,0,0,0,0,0c0,0,0,0,0,0l0,0c0,0,0,0,0,0l0,0c0,0,0,0,0,0l0,0c0,0,0,0,0,0l0,0
		c0,0,0,0,0,0l0,0c0,0,0,0,0,0l0,0c0,0,0,0,0,0l0,0c0,0,0,0,0,0l0,0c0,0,0,0,0,0l0,0c0,0,0,0,0,0l0,0c0,0,0,0,0,0l0,0c0,0,0,0,0,0
		l0,0c0,0,0,0,0,0c0,0,0,0,0,0c0,0,0,0,0,0l0,0c0,0,0,0,0,0l0,0c0,0,0,0,0,0l0,0c0,0,0,0,0,0l0,0c0,0,0,0,0,0l0,0c0,0,0,0,0,0l0,0
		c0,0,0,0,0,0l0,0c0,0,0,0,0,0l0,0c0,0,0,0,0,0l0,0c0,0,0,0,0,0l0,0c0,0,0,0,0,0h0c0,0,0,0,0,0l0,0c0,0,0,0,0,0l0,0c0,0,0,0,0,0
		c0.1,0.1,0.3,0.1,0.4,0.2c0.3,0.1,0.5,0.2,0.6,0.3c0,0-0.1,0-0.1,0c0,0,0,0-0.1,0c-0.1,0-0.1,0.1-0.2,0.1c0,0,0,0-0.1,0l0,0
		c0,0,0,0,0,0c0,0-0.1,0-0.1,0.1l0,0c0,0,0,0,0,0c-0.1,0-0.1,0.1-0.2,0.1c0,0,0,0,0,0c0,0,0,0,0,0c0,0,0,0,0,0c0,0,0,0,0,0
		c0,0,0,0,0,0c0,0,0,0,0,0c0,0,0,0,0,0c0,0,0,0,0,0c0,0,0,0,0,0.1c0,0,0,0,0,0v0c0,0,0,0,0,0v0c0,0,0,0,0,0v0c0,0,0,0,0,0v0
		c0,0,0,0,0,0v0c0,0,0,0,0,0h0h0c0,0,0,0,0,0s0,0,0,0c0,0.1,0,0.1,0,0.1c0,0,0,0,0,0c0.1,0.1,0.2,0.1,0.2,0.2c0,0,0.1,0,0.1,0.1l0,0
		l0,0c0,0,0,0,0.1,0c0,0,0.1,0,0.1,0.1c0,0,0.1,0,0.1,0.1c0,0,0.1,0,0.1,0l0,0c0.1,0,0.2,0.1,0.3,0.1c0,0,0,0,0,0l0,0c0,0,0,0,0,0
		l0,0l0,0l0,0c0,0,1,0.4,1.7,0.5c0.1,0,0.1,0,0.2,0c0,0,0.1,0,0.1,0c0.2,0,0.4,0.1,0.6,0.1c0.2,0,0.3,0,0.5,0c0.2,0,0.3,0,0.5,0
		c0.1,0,0.2,0,0.3,0c0,0,0.1,0,0.1,0c0,0,0.1,0,0.1,0c0.1,0,0.2,0,0.3,0c0,0,0,0,0.1,0c0,0,0,0,0,0c0,0,0,0,0.1,0
		c0.1,0,0.3-0.1,0.4-0.1c0,0,0,0,0,0c0,0,0,0,0,0l0,0c0,0,0,0,0,0h0c0,0,0,0,0,0l0,0c0,0-0.1,0-0.1,0v0v0c0,0,0,0,0,0c0,0,0,0-0.1,0
		c0,0,0,0,0,0c0,0,0,0,0,0c-0.1,0-0.1,0-0.2,0c-0.2,0-0.3,0-0.5,0c0,0,0,0,0,0c-0.1,0-0.2,0-0.3,0c-0.1,0-0.2,0-0.2,0c0,0,0,0,0,0
		c-0.4,0-0.8,0.1-1.1,0.1c-0.1,0-0.2,0-0.3,0c-0.3-0.1-0.7-0.1-1-0.3c-0.3-0.1-0.5-0.2-0.7-0.2c0,0,0,0,0,0l0,0c0,0,0,0,0.1,0l0,0
		c0,0,0.1,0,0.1,0l0,0c0,0,0,0,0.1,0l0,0c0,0,0,0,0.1,0l0,0c0,0,0.1,0,0.1,0l0,0c0,0,0,0,0.1,0l0,0c0,0,0,0,0.1,0l0,0
		c0,0,0.1,0,0.1,0l0,0c0,0,0,0,0.1,0l0,0c0,0,0.1,0,0.1,0h0c0,0,0.1,0,0.1,0l0,0c0,0,0,0,0.1,0l0,0c0,0,0.1,0,0.1,0c0,0,0,0,0,0
		c0,0,0.1,0,0.1,0c0,0,0.1,0,0.1,0c0,0,0,0,0,0c0.1,0,0.2,0,0.3-0.1c0,0,0,0,0.1,0c0.3,0,0.5-0.1,0.8-0.1c0.3,0,0.5,0,0.7,0
		c0.4,0,0.7,0,1,0.1c0.1,0,0.1,0,0.2,0c0,0,0,0,0,0c0,0,0,0,0.1,0c0,0,0,0,0,0c0,0,0,0,0.1,0c0,0,0,0,0.1,0c0,0,0,0,0,0
		c0.1,0,0.1,0,0.2,0.1v0l0,0c0,0,0,0,0,0l0,0c0,0,0,0,0,0c0,0,0,0,0,0c0,0,0,0,0,0l0,0c0,0,0,0,0,0c0,0,0.1,0,0.1,0.1c0,0,0,0,0,0
		l0,0c0,0,0.1,0,0.1,0.1c0,0,0,0,0.1,0c0,0,0,0,0,0c0,0,0,0,0,0c0,0,0,0,0.1,0.1C34.2,18.3,34.3,18.4,34.3,18.6
		C34.3,18.5,34.3,18.5,34.3,18.6C34.3,18.6,34.3,18.6,34.3,18.6L34.3,18.6z M34.3,13.4L34.3,13.4C34.3,13.4,34.3,13.4,34.3,13.4
		C34.3,13.4,34.3,13.4,34.3,13.4c0,0.1,0,0.1,0,0.1c0,0,0,0,0,0.1c0,0.1-0.1,0.1-0.1,0.2c-0.1,0.1-0.2,0.1-0.3,0.1
		c-0.2,0-0.4-0.1-0.4-0.3l0,0c0,0-0.1-0.1-0.2-0.1c0,0,0,0-0.1,0c-0.1,0-0.2-0.1-0.3-0.1c-0.1,0-0.1,0-0.2,0c-0.2,0-0.3,0-0.5,0
		c0,0,0,0,0,0c-0.1,0-0.2,0-0.3,0c-0.1,0-0.2,0-0.2,0c0,0,0,0,0,0c-0.4,0-0.8,0.1-1.1,0.1c-0.1,0-0.2,0-0.3,0.1c-0.1,0-0.1,0-0.2,0
		c-0.2,0-0.4,0.1-0.6,0.1c-0.4,0.1-0.8,0.2-1.1,0.4c0,0,0,0,0,0c0,0,0,0,0,0l0,0c-0.2,0.1-0.3,0.2-0.5,0.2c0,0-0.1,0-0.1,0.1l0,0
		c0,0,0,0,0,0c-0.1,0-0.1,0.1-0.2,0.1c0,0,0,0,0,0c0,0,0,0,0,0l0,0c0,0-0.1,0.1-0.2,0.1c0,0,0,0,0,0.1c0,0,0,0,0,0
		c0,0.1,0,0.2,0,0.2c0,0,0,0,0,0c0.1,0.1,0.2,0.1,0.2,0.2c0,0,0.1,0,0.1,0.1l0,0l0,0c0,0,0,0,0.1,0c0,0,0.1,0,0.1,0.1l0,0v0l0,0l0,0
		l0,0l0,0c0,0,0.1,0,0.1,0.1c0,0,0.1,0,0.1,0l0,0c0.1,0,0.2,0.1,0.3,0.1c0,0,0,0,0,0l0,0c0,0,0,0,0,0c0,0,0,0,0,0s0,0,0,0l0,0
		c0,0,1,0.4,1.7,0.5c0.1,0,0.1,0,0.2,0c0,0,0.1,0,0.1,0c0.2,0,0.4,0.1,0.6,0.1c0.2,0,0.3,0,0.5,0c0.2,0,0.3,0,0.5,0
		c0.1,0,0.2,0,0.3,0c0,0,0.1,0,0.1,0c0,0,0.1,0,0.1,0c0.1,0,0.2,0,0.3,0c0,0,0,0,0.1,0c0,0,0,0,0,0c0,0,0,0,0.1,0
		c0.1,0,0.3-0.1,0.4-0.1c0,0,0,0,0,0c0,0,0,0,0,0l0,0c0,0,0,0,0,0h0c0,0,0,0,0,0l0,0l0,0c0,0-0.1,0-0.1,0v0v0c0,0,0,0,0,0
		c0,0,0,0-0.1,0c0,0,0,0,0,0c0,0,0,0,0,0c-0.1,0-0.1,0-0.2,0c-0.2,0-0.3,0-0.5,0c0,0,0,0,0,0c-0.1,0-0.2,0-0.3,0c-0.1,0-0.2,0-0.2,0
		c0,0,0,0,0,0c-0.4,0-0.8,0.1-1.1,0.1c-0.1,0-0.2,0-0.3,0c-0.3-0.1-0.7-0.1-1-0.3c-0.3-0.1-0.5-0.2-0.7-0.2c0,0,0,0,0,0c0,0,0,0,0,0
		c0,0,0,0,0.1,0l0,0c0,0,0.1,0,0.1,0l0,0c0,0,0,0,0.1,0l0,0c0,0,0,0,0.1,0l0,0c0,0,0.1,0,0.1,0l0,0c0,0,0,0,0.1,0l0,0c0,0,0,0,0.1,0
		l0,0c0,0,0.1,0,0.1,0l0,0c0,0,0,0,0.1,0l0,0c0,0,0.1,0,0.1,0l0,0c0,0,0.1,0,0.1,0l0,0c0,0,0,0,0.1,0l0,0c0,0,0.1,0,0.1,0
		c0,0,0,0,0,0c0.1,0,0.2,0,0.3-0.1c0,0,0,0,0,0c0.1,0,0.2,0,0.3-0.1c0,0,0,0,0.1,0c0.3,0,0.5-0.1,0.8-0.1c0.3,0,0.5,0,0.7,0
		c0.4,0,0.7,0,1,0.1c0.1,0,0.1,0,0.2,0c0,0,0,0,0,0c0,0,0,0,0.1,0c0,0,0,0,0,0c0,0,0,0,0.1,0c0,0,0,0,0.1,0c0,0,0,0,0,0c0,0,0,0,0,0
		c0.1,0,0.1,0.1,0.2,0.1c0,0,0,0,0,0l0,0c0,0,0,0,0,0c0,0,0,0,0.1,0c0,0,0,0,0.1,0c0,0,0,0,0,0l0,0c0,0,0.1,0.1,0.1,0.1c0,0,0,0,0,0
		c0,0,0,0,0,0c0,0,0,0,0,0c0,0,0,0,0.1,0.1c0.1,0.1,0.2,0.3,0.2,0.4c0,0,0,0,0,0c0,0,0,0,0,0.1c0,0,0,0,0,0c0,0,0,0,0,0.1
		c0,0,0,0,0,0c-0.1,0.2-0.2,0.3-0.4,0.5l0,0c0,0,0,0,0,0l0,0c-0.1,0-0.1,0.1-0.2,0.1c-0.2,0.1-0.4,0.2-0.6,0.2
		c-0.3,0.1-0.7,0.1-1.1,0.1c-0.2,0-0.4,0-0.6,0c-0.5,0-1-0.1-1.6-0.2c-0.2,0-0.3-0.1-0.5-0.1c-0.3-0.1-0.6-0.2-0.9-0.2
		c0,0-0.1,0-0.1,0c-0.5-0.2-1.1-0.5-1.1-0.5c0,0,0,0,0,0c-0.5-0.3-0.8-0.5-0.9-0.8c-0.1-0.1-0.1-0.3-0.1-0.4c0,0,0-0.1,0-0.1
		c0,0,0-0.1,0-0.1v0c0,0,0,0,0,0c0,0,0-0.1,0-0.1c0,0,0,0,0,0l0,0c0,0,0-0.1,0.1-0.1c0,0,0,0,0,0c0.2-0.4,0.6-0.7,1.2-1
		c0,0,0.1,0,0.1,0l0,0c0.6-0.3,1.3-0.5,2.1-0.7c0,0,0,0,0,0c0.5-0.1,1-0.2,1.5-0.2c0.3,0,0.5,0,0.7,0c0.4,0,0.7,0,1,0.1
		c0.1,0,0.1,0,0.2,0c0.2,0.1,0.4,0.1,0.6,0.2c0.1,0.1,0.3,0.2,0.4,0.3c0,0,0,0,0.1,0.1C34.2,13.1,34.3,13.2,34.3,13.4
		C34.3,13.4,34.3,13.4,34.3,13.4L34.3,13.4L34.3,13.4z"/>
</g>
</svg>
