<?xml version="1.0" encoding="utf-8"?>
<!-- Generator: Adobe Illustrator 24.2.1, SVG Export Plug-In . SVG Version: 6.00 Build 0)  -->
<svg version="1.1" id="Camada_1" xmlns:xodm="http://www.corel.com/coreldraw/odm/2003"
	 xmlns="http://www.w3.org/2000/svg" xmlns:xlink="http://www.w3.org/1999/xlink" x="0px" y="0px" viewBox="0 0 44.5 22.8"
	 style="enable-background:new 0 0 44.5 22.8;" xml:space="preserve">
<g id="Camada_x0020_1">
	<g id="_3141059180720">
		<path d="M24.8,0.1c6.2,1.3,12.4,2.7,18.5,4c0.3,0.1,0.5,0.2,0.6,0.4c0.1,0.1,0.1,0.1,0.1,0.2c0.1,0.1,0.1,0.3,0.1,0.4
			c0,0.1,0,0.3,0,0.4c0,0.1-0.1,0.2-0.1,0.3C44.1,6,44,6.1,43.8,6.2c0,0-0.1,0.1-0.1,0.1l-0.1-0.1l0.1,0.1l-20,11.5l-0.1,0.1
			c-0.4,0.2-0.8,0.3-1.3,0.4c-0.5,0-1,0-1.5-0.2c-5-1.7-16.2-5.3-20.1-7.3c-0.3-0.1-0.4-0.4-0.5-0.6C0.1,10,0.1,9.8,0.1,9.7
			c0-0.1,0-0.3,0.1-0.4c0.1-0.2,0.2-0.4,0.4-0.6l0,0c0.1,0,0.1-0.1,0.2-0.1l22.4-8.4C23.4,0.1,23.7,0,24,0C24.3,0,24.5,0,24.8,0.1
			L24.8,0.1z M43.3,4.3l-0.5-0.1l-1.3,0.5l0.9,1l1.6-0.6c0-0.2-0.1-0.3-0.2-0.5l0-0.1C43.7,4.5,43.5,4.4,43.3,4.3L43.3,4.3z
			 M42.4,4.1l-1.8-0.4l0.7,0.8L42.4,4.1z M40.2,3.7l-0.2,0l-1.8,0.6l0.9,1l1.9-0.7L40.2,3.7L40.2,3.7z M39.6,3.5L37.3,3l-0.2,0.1
			l0.9,1C38.1,4.1,39.6,3.5,39.6,3.5z M36.7,2.9l-2.1-0.5l-0.7,0.2l0.9,1L36.7,2.9L36.7,2.9L36.7,2.9z M34.2,2.3l-0.7-0.1l0.3,0.3
			C33.7,2.5,34.2,2.3,34.2,2.3z M32.3,1.9l-0.5-0.1l-1.2,0.4l0.9,1l1.9-0.7l-0.4-0.4L32.3,1.9L32.3,1.9z M31.4,1.7l-1.5-0.3L30.5,2
			L31.4,1.7z M29.5,1.3L29,1.2l-1.7,0.6l0.9,1l1.9-0.7L29.5,1.3L29.5,1.3z M44,5.5l0-0.1l-1.5,0.5l0.5,0.5l0.5-0.3
			C43.7,6,43.8,6,43.8,5.9l0,0c0-0.1,0.1-0.1,0.1-0.1C44,5.6,44,5.5,44,5.5L44,5.5z M23.6,17.6l0.8-0.4l-0.2-0.2l-1.9,0.7l0.4,0.4
			c0.2,0,0.3-0.1,0.5-0.1C23.3,17.7,23.4,17.7,23.6,17.6L23.6,17.6z M24.6,17l1.2-0.7l-1.4,0.5L24.6,17z M26.8,15.7l1.3-0.7
			l-0.7-0.8l-1.9,0.7l0.9,1L26.8,15.7L26.8,15.7z M30.1,13.8l1.7-0.9l-0.1-0.1l-1.9,0.7L30.1,13.8L30.1,13.8z M33.6,11.8L33.6,11.8
			l-0.9-1l-1.9,0.7l0.9,1L33.6,11.8L33.6,11.8z M33.8,11.7l1.7-0.9l-0.6-0.7l-1.9,0.7L33.8,11.7L33.8,11.7z M35.7,10.6l1.7-0.9
			L37,9.3L35.1,10L35.7,10.6L35.7,10.6z M40.4,7.9l0.7-0.4l-0.8-0.9l-1.9,0.7l0.9,1L40.4,7.9L40.4,7.9z M0.9,10.6l0.2,0.1l0.1,0
			l-0.9-1c0,0.2,0,0.4,0.1,0.5c0,0,0.1,0.1,0.1,0.1l0,0c0,0,0.1,0.1,0.1,0.1C0.8,10.5,0.8,10.5,0.9,10.6L0.9,10.6z M10.4,14l1.7,0.6
			l1.1-0.4l-0.9-1L10.4,14C10.3,13.9,10.4,14,10.4,14z M17.3,16.5l1.3,0.5L17.7,16l-0.9,0.3L17.3,16.5z M19,17.1l1.9,0.7l1-0.3
			l-0.9-1L19,17.1L19,17.1z M0.9,8.8C0.7,8.9,0.6,9,0.5,9.1c0,0.1-0.1,0.1-0.1,0.2l1.9-0.7L2,8.4C2,8.4,0.9,8.8,0.9,8.8z M11,5
			l-0.3,0.1l0.5,0.5L13,5l-0.5-0.5C12.5,4.4,11,5,11,5z M10.4,5.2L8.5,5.9L9,6.4l1.9-0.7C10.9,5.7,10.4,5.2,10.4,5.2z M24,0.2
			c-0.2,0-0.5,0.1-0.7,0.2h0L24,1.2l1.9-0.7l-1.1-0.2C24.6,0.2,24.3,0.2,24,0.2L24,0.2z M19.9,15l1.9-0.7l-0.9-1L19,14
			C19,14,19.9,15,19.9,15z M22,14.5l-1.9,0.7l0.9,1l1.9-0.7L22,14.5z M21.1,13.3l0.9,1l1.9-0.7l-0.9-1L21.1,13.3z M18.8,13.8
			l1.9-0.7l-0.9-1l-1.9,0.7L18.8,13.8z M19.7,15.1l-0.9-1l-1.9,0.7l0.9,1L19.7,15.1z M15.5,10.3l1.9-0.7l-0.9-1l-1.9,0.7L15.5,10.3z
			 M17.6,9.8l-1.9,0.7l0.9,1l1.9-0.7L17.6,9.8z M16.7,8.6l0.9,1l1.9-0.7l-0.9-1L16.7,8.6z M14.4,9.1l1.9-0.7l-0.9-1l-1.9,0.7
			C13.5,8.1,14.4,9.1,14.4,9.1z M15.3,10.4l-0.9-1L12.4,10l0.9,1C13.3,11,15.3,10.4,15.3,10.4z M0.5,9.5l0.9,1l1.9-0.7l-0.9-1
			C2.4,8.8,0.5,9.5,0.5,9.5z M3.5,10l-1.9,0.7l0.1,0.2l1.6,0.6L4.5,11C4.5,11,3.5,10,3.5,10z M2.7,8.8l0.9,1l1.9-0.7l-0.9-1L2.7,8.8
			z M32.6,12.4l-0.7,0.2l0.1,0.1L32.6,12.4z M31.5,12.5l-0.9-1l-1.9,0.7l0.9,1L31.5,12.5z M26.2,16l-0.9-1l-1.9,0.7l0.9,1L26.2,16z
			 M22.1,17.4l1.9-0.7l-0.9-1l-1.9,0.7C21.2,16.4,22.1,17.4,22.1,17.4z M22.2,14.4l0.9,1l1.9-0.7l-0.9-1
			C24.1,13.8,22.2,14.4,22.2,14.4z M20.8,16.3l-0.9-1l-1.9,0.7l0.9,1L20.8,16.3z M17.7,12.7l1.9-0.7l-0.9-1l-1.9,0.7L17.7,12.7z
			 M18.9,10.9l0.9,1l1.9-0.7l-0.9-1L18.9,10.9z M17.5,12.7l-0.9-1l-1.9,0.7l0.9,1L17.5,12.7z M13.3,8l1.9-0.7l-0.9-1L12.4,7L13.3,8z
			 M14.5,6.2l0.9,1l1.9-0.7l-0.9-1C16.5,5.6,14.5,6.2,14.5,6.2z M12.2,6.8l1.9-0.7l-0.9-1l-1.9,0.7L12.2,6.8z M13.1,8l-0.9-1
			l-1.9,0.7l0.9,1L13.1,8z M15.6,7.4l0.9,1l1.9-0.7l-0.9-1L15.6,7.4z M14.2,9.2l-0.9-1l-1.9,0.7l0.9,1L14.2,9.2z M14.7,15.5
			L14.7,15.5l1.8,0.7l1-0.4l-0.9-1C16.6,14.8,14.7,15.5,14.7,15.5z M13.4,5.1l0.9,1l1.9-0.7l-0.9-1C15.3,4.4,13.4,5.1,13.4,5.1z
			 M12,6.9l-0.9-1L9.1,6.5l0.9,1C10.1,7.5,12,6.9,12,6.9z M20,12.1l0.9,1l1.9-0.7l-0.9-1C21.9,11.4,20,12.1,20,12.1z M18.6,13.9
			l-0.9-1l-1.9,0.7l0.9,1L18.6,13.9z M14.5,15.3l1.9-0.7l-0.9-1l-1.9,0.7L14.5,15.3z M16.7,5.5l0.9,1l1.9-0.7l-0.9-1
			C18.6,4.8,16.7,5.5,16.7,5.5z M15.6,4.3l0.9,1l1.9-0.7l-0.9-1C17.5,3.6,15.6,4.3,15.6,4.3z M13.3,4.9l1.9-0.7l-0.6-0.6l-1.9,0.7
			L13.3,4.9L13.3,4.9z M27.6,14.1l0.7,0.7l1.7-0.9l-0.4-0.5L27.6,14.1L27.6,14.1z M25.3,14.7l1.9-0.7l-0.9-1l-1.9,0.7L25.3,14.7z
			 M14.9,3.5l0.6,0.6l1.9-0.7l-0.6-0.6L14.9,3.5z M13.1,11.1l-0.9-1l-1.9,0.7l0.9,1L13.1,11.1z M15.5,10.6l-1.9,0.7l0.9,1l1.9-0.7
			L15.5,10.6z M23.1,12.3l1.9-0.7l-0.9-1l-1.9,0.7C22.2,11.3,23.1,12.3,23.1,12.3z M25.2,11.8l-1.9,0.7l0.9,1l1.9-0.7
			C26.1,12.8,25.2,11.8,25.2,11.8z M24.3,10.6l0.9,1l1.9-0.7l-0.9-1C26.2,9.9,24.3,10.6,24.3,10.6z M22,11.2l1.9-0.7l-0.9-1
			l-1.9,0.7L22,11.2z M25.4,11.8l0.9,1l1.9-0.7l-0.9-1C27.4,11.1,25.4,11.8,25.4,11.8z M39.2,8.6L39.2,8.6l-1.9,0.6l0.3,0.3
			L39.2,8.6L39.2,8.6z M19.8,9.1l-1.9,0.7l0.9,1l1.9-0.7L19.8,9.1z M18.9,7.8l0.9,1l1.9-0.7l-0.9-1C20.8,7.2,18.9,7.8,18.9,7.8z
			 M42.3,5.7l-0.9-1l-1.9,0.7l0.9,1C40.3,6.4,42.3,5.7,42.3,5.7z M40.1,6.5l-0.9-1l-1.9,0.7l0.9,1L40.1,6.5z M42.4,5.9l-1.9,0.7
			l0.8,0.8L43,6.5L42.4,5.9z M15.3,13.5l-0.9-1l-1.9,0.7l0.9,1L15.3,13.5z M14.3,12.3l-0.9-1L11.4,12l0.9,1L14.3,12.3z M26.6,13
			l0.9,1l1.9-0.7l-0.9-1L26.6,13z M17.8,6.7l0.9,1L20.7,7l-0.9-1C19.7,6,17.8,6.7,17.8,6.7z M37.1,6L39,5.3l-0.9-1L36.2,5L37.1,6z
			 M38,7.2l-0.9-1l-1.9,0.7l0.9,1L38,7.2z M39.1,8.4l-0.9-1l-1.9,0.7l0.9,1C37.1,9.1,39.1,8.4,39.1,8.4z M21.3,17.9
			c0.2,0,0.3,0.1,0.5,0.1c0.2,0,0.4,0,0.6,0l-0.3-0.4L21.3,17.9L21.3,17.9z M36,4.8l1.9-0.7l-0.9-1l-1.9,0.7L36,4.8z M36.9,6.1
			l-0.9-1L34,5.7l0.9,1L36.9,6.1z M35.8,4.9l-0.9-1l-1.9,0.7l0.9,1C33.9,5.6,35.8,4.9,35.8,4.9z M8.8,6.5L8.4,6L6.5,6.7l0.4,0.4
			C6.9,7.1,8.8,6.5,8.8,6.5z M20,9l0.9,1l1.9-0.7l-0.9-1C21.9,8.3,20,9,20,9z M23.3,9.4l0.9,1l1.9-0.7l-0.9-1
			C25.2,8.8,23.3,9.4,23.3,9.4z M12.1,10l-0.9-1L9.2,9.7l0.9,1C10.1,10.7,12.1,10,12.1,10z M34.7,3.7l-0.9-1l-1.9,0.7l0.9,1
			L34.7,3.7z M13.4,14.4l-0.9,0.3l1.8,0.7C14.3,15.4,13.4,14.4,13.4,14.4z M6.6,7.2L6.3,6.8L4.4,7.5l0.3,0.3L6.6,7.2L6.6,7.2z
			 M8.9,6.6L7,7.3l0.9,1l1.9-0.7L8.9,6.6z M7.7,8.4l-0.9-1L4.9,8l0.9,1C5.8,9,7.7,8.4,7.7,8.4z M10,7.8L8.1,8.5l0.9,1L11,8.8L10,7.8
			z M8.8,9.5l-0.9-1L6,9.2l0.9,1C6.9,10.2,8.8,9.5,8.8,9.5z M12.1,13.1l-0.9-1l-1.9,0.7l0.9,1L12.1,13.1z M9.9,10.7L9,9.7L7,10.4
			l0.9,1L9.9,10.7z M11,11.9l-0.9-1l-1.9,0.7l0.9,1L11,11.9z M4.1,7.6L2.2,8.3l0.3,0.3L4.4,8C4.4,8,4.1,7.6,4.1,7.6z M30.7,11.3
			l1.9-0.7l-0.9-1l-1.9,0.7L30.7,11.3z M31.9,9.6l0.9,1l1.9-0.7l-0.9-1C33.8,8.9,31.9,9.6,31.9,9.6z M29.6,10.1l1.9-0.7l-0.9-1
			l-1.9,0.7C28.6,9.1,29.6,10.1,29.6,10.1z M30.4,11.4l-0.9-1l-1.9,0.7l0.9,1C28.5,12.1,30.4,11.4,30.4,11.4z M3.8,10l0.9,1l1.9-0.7
			l-0.9-1L3.8,10z M4.7,11.2l-1,0.3l1.9,0.7l0.1,0C5.6,12.2,4.7,11.2,4.7,11.2z M30.8,8.4l0.9,1l1.9-0.7l-0.9-1
			C32.7,7.7,30.8,8.4,30.8,8.4z M28.5,9l1.9-0.7l-0.9-1L27.5,8C27.5,8,28.5,9,28.5,9z M29.3,10.2l-0.9-1l-1.9,0.7l0.9,1
			C27.4,10.9,29.3,10.2,29.3,10.2z M25.2,5.4l1.9-0.7l-0.9-1l-1.9,0.7L25.2,5.4z M27.3,4.9l-1.9,0.7l0.9,1l1.9-0.7
			C28.2,5.9,27.3,4.9,27.3,4.9z M26.4,3.7l0.9,1L29.2,4l-0.9-1L26.4,3.7z M24.1,4.3L26,3.6l-0.9-1l-1.9,0.7
			C23.1,3.3,24.1,4.3,24.1,4.3z M24.9,5.5l-0.9-1l-1.9,0.7l0.9,1C23,6.2,24.9,5.5,24.9,5.5z M28.4,6.1l-1.9,0.7l0.9,1l1.9-0.7
			C29.3,7.1,28.4,6.1,28.4,6.1z M27.5,4.9l0.9,1l1.9-0.7l-0.9-1L27.5,4.9z M26.1,6.7l-0.9-1l-1.9,0.7l0.9,1
			C24.1,7.4,26.1,6.7,26.1,6.7z M28.6,6l0.9,1l1.9-0.7l-0.9-1C30.5,5.4,28.6,6,28.6,6z M27.1,7.9l-0.9-1l-1.9,0.7l0.9,1L27.1,7.9z
			 M29.7,7.2l0.9,1l1.9-0.7l-0.9-1L29.7,7.2z M28.2,9l-0.9-1l-1.9,0.7l0.9,1C26.3,9.7,28.2,9,28.2,9z M21.9,5l1.9-0.7l-0.9-1L21,4
			L21.9,5z M22.8,6.2l-0.9-1l-1.9,0.7l0.9,1C20.9,6.9,22.8,6.2,22.8,6.2z M20.8,3.8l1.9-0.7l-0.9-1l-1.9,0.7L20.8,3.8z M22,2.1
			l0.9,1l1.9-0.7l-0.9-1C24,1.4,22,2.1,22,2.1z M19.7,2.7L21.6,2L21,1.2L19.1,2L19.7,2.7L19.7,2.7z M20.6,3.9l-0.9-1l-1.9,0.7l0.9,1
			L20.6,3.9z M25.3,2.5l0.9,1l1.9-0.7l-0.9-1C27.2,1.8,25.3,2.5,25.3,2.5z M21.7,5.1l-0.9-1l-1.9,0.7l0.9,1L21.7,5.1z M21.2,1.2
			l0.7,0.7l1.9-0.7l-0.7-0.8C23.1,0.5,21.2,1.2,21.2,1.2z M19.5,2.7l-0.6-0.7L17,2.8l0.6,0.6L19.5,2.7z M23.9,7.4l-0.9-1L21,7.1
			l0.9,1L23.9,7.4z M30.7,5.3l0.9,1l1.9-0.7l-0.9-1L30.7,5.3z M29.7,4.1l0.9,1l1.9-0.7l-0.9-1C31.6,3.5,29.7,4.1,29.7,4.1z
			 M24.2,1.4l0.9,1l1.9-0.7l-0.9-1C26.1,0.7,24.2,1.4,24.2,1.4z M28.6,3l0.9,1l1.9-0.7l-0.9-1L28.6,3z M31.9,6.5l0.9,1l1.9-0.7
			l-0.9-1L31.9,6.5z M34,8.8l0.9,1l1.9-0.7l-0.9-1C36,8.2,34,8.8,34,8.8z M27.3,1.6l1.4-0.5l-2.3-0.5C26.4,0.6,27.3,1.6,27.3,1.6z
			 M33,7.7l0.9,1L35.8,8l-0.9-1C34.9,7,33,7.7,33,7.7z M9,12.8l-0.9,0.3l1.9,0.7h0L9,12.8z M7.7,13l1.1-0.4l-0.9-1L6,12.3l0.1,0.1
			L7.7,13L7.7,13z M25,8.6l-0.9-1l-1.9,0.7l0.9,1L25,8.6z M7.8,11.5l-0.9-1l-1.9,0.7l0.9,1L7.8,11.5z"/>
		<path d="M44.2,5.2c0,0.4-0.1,0.7-0.5,1l-20,11.5c-0.9,0.5-1.9,0.6-2.8,0.2l-20-7.2c-0.3-0.1-0.5-0.4-0.6-0.6
			c-0.4,1.9-0.4,5,0.6,5.3l20,7.2c0.9,0.3,2,0.2,2.8-0.2l20-11.5C44.5,10.4,44.7,7,44.2,5.2z"/>
	</g>
</g>
</svg>
