<svg id="Camada_1" data-name="Camada 1" xmlns="http://www.w3.org/2000/svg" viewBox="0 0 468.38 304.12"><path d="M468.38,201.15H0v75.7H19.11v17.74a9.54,9.54,0,0,0,9.54,9.53H45.76a9.53,9.53,0,0,0,9.53-9.53V276.85h357.8v17.74a9.53,9.53,0,0,0,9.53,9.53h17.11a9.54,9.54,0,0,0,9.54-9.53V276.85h19.11Z"/><path d="M76.81,97.43v-24a23.74,23.74,0,0,1,23.74-23.73h83.34a23.73,23.73,0,0,1,23.73,23.73v24h53.14v-24a23.73,23.73,0,0,1,23.73-23.73h83.34a23.73,23.73,0,0,1,23.73,23.73v24h2.79a90.3,90.3,0,0,1,36.83,7.79V73.7C431.18,33,396.49,0,353.69,0h-239C71.89,0,37.2,33,37.2,73.7v31.52A90.3,90.3,0,0,1,74,97.43Z"/><path d="M468.38,189.89v-6c0-41.32-35.15-74.93-78.36-74.93H78.36C35.15,108.92,0,142.54,0,183.85v6H468.38Z"/></svg>