<?xml version="1.0" encoding="utf-8"?>
<!-- Generator: Adobe Illustrator 24.2.1, SVG Export Plug-In . SVG Version: 6.00 Build 0)  -->
<svg version="1.1" id="Camada_1" xmlns:xodm="http://www.corel.com/coreldraw/odm/2003"
	 xmlns="http://www.w3.org/2000/svg" xmlns:xlink="http://www.w3.org/1999/xlink" x="0px" y="0px" viewBox="0 0 44.5 44.5"
	 style="enable-background:new 0 0 44.5 44.5;" xml:space="preserve">
<g id="Camada_x0020_1">
	<path d="M41.8,2.9h-2.4V2.5c0-1.4-1.1-2.5-2.5-2.5H26c-1.4,0-2.5,1.1-2.5,2.5v0.5h-2.7V2.5c0-1.4-1.1-2.5-2.5-2.5H7.5
		C6.1,0,5,1.1,5,2.5v0.5H2.6C1.2,2.9,0,4.1,0,5.6v13.5v1.6v21c0,1.5,1.2,2.7,2.7,2.7h39.1c1.5,0,2.7-1.2,2.7-2.7V13.9v-1.7V5.6
		C44.4,4.1,43.2,2.9,41.8,2.9L41.8,2.9z M39.8,13.5L39.8,13.5L11.4,26.7c-1.7,0.8-3.6,0.3-4.8-1.1l-4.8-6l27.6-4.4
		C29.3,15.2,39.8,13.5,39.8,13.5z M24.8,2.5L24.8,2.5c0-0.7,0.6-1.3,1.3-1.3h10.9c0.7,0,1.3,0.6,1.3,1.3v5.2c0,0.7-0.6,1.3-1.3,1.3
		H26c-0.7,0-1.3-0.6-1.3-1.3C24.8,7.7,24.8,2.5,24.8,2.5z M6.2,2.5L6.2,2.5c0-0.7,0.6-1.3,1.3-1.3h10.9c0.7,0,1.3,0.6,1.3,1.3v5.2
		c0,0.7-0.6,1.3-1.3,1.3H7.5C6.8,9,6.2,8.4,6.2,7.7C6.2,7.7,6.2,2.5,6.2,2.5z M2.7,4.1L2.7,4.1h2.4v3.6c0,1.4,1.1,2.5,2.5,2.5h10.9
		c1.4,0,2.5-1.1,2.5-2.5V4.1h2.7v3.6c0,1.4,1.1,2.5,2.5,2.5h10.9c1.4,0,2.5-1.1,2.5-2.5V4.1h2.4c0.8,0,1.5,0.7,1.5,1.5v6.1L1.2,18.5
		V5.6C1.2,4.8,1.9,4.1,2.7,4.1L2.7,4.1z M43.3,41.8L43.3,41.8c0,0.8-0.7,1.5-1.5,1.5H2.7c-0.8,0-1.5-0.7-1.5-1.5v-21l4.4,5.5
		c1,1.3,2.5,1.9,4,1.9c0.7,0,1.5-0.2,2.2-0.5l31.4-14.6v0.7C43.3,13.9,43.3,41.8,43.3,41.8z"/>
</g>
</svg>
