<?xml version="1.0" encoding="utf-8"?>
<!-- Generator: Adobe Illustrator 24.2.1, SVG Export Plug-In . SVG Version: 6.00 Build 0)  -->
<svg version="1.1" id="Camada_1" xmlns:xodm="http://www.corel.com/coreldraw/odm/2003"
	 xmlns="http://www.w3.org/2000/svg" xmlns:xlink="http://www.w3.org/1999/xlink" x="0px" y="0px" viewBox="0 0 46.5 22.8"
	 style="enable-background:new 0 0 46.5 22.8;" xml:space="preserve">
<style type="text/css">
	.st0{fill:none;stroke:#000000;stroke-width:1.0054;stroke-linecap:round;stroke-linejoin:round;stroke-miterlimit:16.7567;}
	.st1{stroke:#000000;stroke-width:1.0054;stroke-linejoin:round;stroke-miterlimit:38.4158;}
</style>
<g id="Camada_x0020_1">
	<g id="_3003369732832">
		<line class="st0" x1="43.9" y1="13.3" x2="9.8" y2="13.3"/>
		<path class="st0" d="M9.8,13.3c-1.1-4.1-3-7-6.1-9.1C2.7,3.6,1.5,3.8,0.9,4.8S0.5,7,1.4,7.6c2.6,1.8,4.1,4.3,4.8,8.1
			c0.2,1,1,1.7,2,1.7"/>
		<line class="st0" x1="8.2" y1="17.4" x2="43.9" y2="17.4"/>
		<path class="st0" d="M43.9,17.4c1.1,0,2-0.9,2-2s-0.9-2-2-2"/>
		<path class="st0" d="M9.7,10.5c0.6-0.8,1.8-2.2,4.1-3.9c0,0-0.5-3.4-5-6c0,0-2.4,0.3-5.5,2.6c0.3,0.1,0.5,0.2,0.8,0.4
			C6.6,5.3,8.4,7.5,9.7,10.5z"/>
		<path class="st0" d="M10.1,11.2c0,0.9,0.7,1.6,1.6,1.6c0.9,0,1.6-0.7,1.6-1.6s-0.7-1.6-1.6-1.6S10.1,10.4,10.1,11.2z"/>
		<path class="st0" d="M14.9,6.8c-0.3,0-0.6,0.1-0.9,0.3"/>
		<polyline class="st0" points="14,7.1 14,7.1 14,7.1 		"/>
		<path class="st0" d="M14,7.1C14,7.1,14,7.1,14,7.1"/>
		<line class="st0" x1="13.9" y1="7.1" x2="11.8" y2="9"/>
		<path class="st0" d="M11.8,9c1.2,0.1,2.1,1,2.1,2.2"/>
		<line class="st0" x1="13.9" y1="11.2" x2="15.9" y2="9.1"/>
		<path class="st0" d="M15.9,9.1C15.9,9.1,15.9,9.1,15.9,9.1"/>
		<polyline class="st0" points="15.9,9.1 15.9,9 15.9,9 		"/>
		<path class="st0" d="M15.9,9c0.2-0.2,0.3-0.6,0.3-0.9c0-0.8-0.6-1.4-1.4-1.4"/>
		<path class="st0" d="M14.4,6.3c0.2-0.1,0.4-0.1,0.5-0.1c1.1,0,2,0.9,2,2c0,0.2-0.1,0.5-0.1,0.7"/>
		<line class="st0" x1="16.7" y1="8.8" x2="33.9" y2="8.8"/>
		<path class="st0" d="M33.9,8.8c0,0,1.5-3.5-4.2-3.1C22,6.2,24.2-0.1,10,0.5c3.4,2.3,4.2,5,4.4,5.7"/>
		<path class="st1" d="M8.9,17.8H7.5v0c0,1.7,0.9,0.6,0.9,2.4c0,0.4,0,0.8,0,1c-0.2,0.1-0.4,0.4-0.4,0.6c0,0.2,0.1,0.3,0.1,0.4h1.3
			c0.1-0.1,0.1-0.3,0.1-0.4c0-0.3-0.2-0.5-0.4-0.6c0-0.3,0-0.6,0-1c0-1.7,0.9-0.7,0.9-2.4v0H8.9L8.9,17.8z"/>
		<path class="st0" d="M12.9,18.5c0-0.2,0-0.4,0-0.7"/>
		<line class="st0" x1="12.9" y1="17.8" x2="12.3" y2="17.8"/>
		<path class="st0" d="M12.3,17.8c0,0.3,0,0.6,0,0.7c-0.2,0.1-0.3,0.3-0.3,0.5c0,0.1,0,0.2,0.1,0.3"/>
		<line class="st0" x1="12.1" y1="19.4" x2="13.1" y2="19.4"/>
		<path class="st0" d="M13.1,19.4c0.1-0.1,0.1-0.2,0.1-0.3c0-0.2-0.1-0.4-0.3-0.5"/>
		<path class="st1" d="M43.2,17.8h-1.4v0c0,1.7,0.9,0.6,0.9,2.4c0,0.4,0,0.8,0,1c-0.2,0.1-0.4,0.4-0.4,0.6c0,0.2,0.1,0.3,0.1,0.4
			h1.3c0.1-0.1,0.1-0.3,0.1-0.4c0-0.3-0.2-0.5-0.4-0.6c0-0.3,0-0.6,0-1c0-1.7,0.9-0.7,0.9-2.4v0H43.2L43.2,17.8z"/>
		<path class="st0" d="M39.8,18.5c0-0.2,0-0.4,0-0.7"/>
		<line class="st0" x1="39.8" y1="17.8" x2="39.1" y2="17.8"/>
		<path class="st0" d="M39.1,17.8c0,0.3,0,0.6,0,0.7c-0.2,0.1-0.3,0.3-0.3,0.5c0,0.1,0,0.2,0.1,0.3"/>
		<line class="st0" x1="38.9" y1="19.4" x2="39.9" y2="19.4"/>
		<path class="st0" d="M39.9,19.4c0.1-0.1,0.1-0.2,0.1-0.3c0-0.2-0.1-0.4-0.3-0.5"/>
		<polyline class="st0" points="33.9,9.4 16.3,9.4 13.3,12.9 44.7,12.9 		"/>
		<path class="st0" d="M44.7,12.9c-2.7-2.7-6.4-3.5-10.8-3.5"/>
	</g>
</g>
</svg>
