<?xml version="1.0" encoding="utf-8"?>
<!-- Generator: Adobe Illustrator 24.2.1, SVG Export Plug-In . SVG Version: 6.00 Build 0)  -->
<svg version="1.1" id="Camada_1" xmlns:xodm="http://www.corel.com/coreldraw/odm/2003"
	 xmlns="http://www.w3.org/2000/svg" xmlns:xlink="http://www.w3.org/1999/xlink" x="0px" y="0px" viewBox="0 0 44.5 38.2"
	 style="enable-background:new 0 0 44.5 38.2;" xml:space="preserve">
<g id="Camada_x0020_1">
	<g id="_3003456295616">
		<path d="M43.2,19.2l-7.5-8.9h-1.5c0.1-0.3,0.1-0.5,0.1-0.8c0-1.6-1.3-3-3-3h-5.2c-1.6,0-3,1.3-3,3c0,0.3,0,0.6,0.1,0.8h-2.2
			c0.1-0.3,0.1-0.5,0.1-0.8c0-1.6-1.3-3-3-3H13c-1.6,0-3,1.3-3,3c0,0.3,0,0.6,0.1,0.8H8.7l-7.5,8.9C0.5,19.6,0,20.4,0,21.3v4.8v9.7
			c0,1.3,1.1,2.4,2.4,2.4s2.4-1.1,2.4-2.4v-0.2h1.7v0.2c0,1.3,1.1,2.4,2.4,2.4s2.4-1.1,2.4-2.4v-0.2h1.7v0.2c0,1.3,1.1,2.4,2.4,2.4
			c1.3,0,2.4-1.1,2.4-2.4v-0.2h1.7v0.2c0,1.3,1.1,2.4,2.4,2.4c1.3,0,2.4-1.1,2.4-2.4v-0.2h1.7v0.2c0,1.3,1.1,2.4,2.4,2.4
			c1.3,0,2.4-1.1,2.4-2.4v-0.2h1.7v0.2c0,1.3,1.1,2.4,2.4,2.4s2.4-1.1,2.4-2.4v-0.2h1.7v0.2c0,1.3,1.1,2.4,2.4,2.4
			c1.3,0,2.4-1.1,2.4-2.4v-9.7v-4.8C44.4,20.4,43.9,19.6,43.2,19.2L43.2,19.2z M1.5,25.4L1.5,25.4v-4c0-0.5,0.4-0.9,0.9-0.9H42
			c0.5,0,0.9,0.4,0.9,0.9v4C43,25.4,1.5,25.4,1.5,25.4z M34.1,10.7L34.1,10.7C34.1,10.7,34.1,10.7,34.1,10.7
			C34.1,10.7,34.1,10.7,34.1,10.7z M33.9,11.1L33.9,11.1L33.9,11.1L33.9,11.1z M33.7,11.5L33.7,11.5C33.6,11.5,33.6,11.5,33.7,11.5
			C33.6,11.5,33.6,11.5,33.7,11.5z M26.2,8L26.2,8h5.2c0.8,0,1.5,0.7,1.5,1.5c0,0.8-0.7,1.5-1.5,1.5h-5.2c-0.8,0-1.5-0.7-1.5-1.5
			C24.7,8.7,25.3,8,26.2,8z M23.5,10.8L23.5,10.8C23.5,10.8,23.5,10.7,23.5,10.8C23.5,10.7,23.5,10.8,23.5,10.8z M24,11.5L24,11.5
			C24,11.5,23.9,11.5,24,11.5C23.9,11.5,24,11.5,24,11.5z M23.7,11.1L23.7,11.1L23.7,11.1L23.7,11.1z M21,10.7L21,10.7
			C21,10.7,21,10.8,21,10.7C21,10.8,21,10.7,21,10.7z M20.8,11.1L20.8,11.1L20.8,11.1L20.8,11.1z M20.5,11.5L20.5,11.5
			C20.5,11.5,20.5,11.5,20.5,11.5C20.5,11.5,20.5,11.5,20.5,11.5z M13,8L13,8h5.2c0.8,0,1.5,0.7,1.5,1.5c0,0.8-0.7,1.5-1.5,1.5H13
			c-0.8,0-1.5-0.7-1.5-1.5C11.5,8.7,12.2,8,13,8z M10.3,10.8L10.3,10.8C10.3,10.8,10.3,10.8,10.3,10.8
			C10.3,10.8,10.3,10.8,10.3,10.8z M10.8,11.5L10.8,11.5C10.8,11.5,10.8,11.5,10.8,11.5C10.8,11.5,10.8,11.5,10.8,11.5z M10.5,11.2
			L10.5,11.2L10.5,11.2L10.5,11.2z M9.4,11.8L9.4,11.8h1.7c0.5,0.4,1.2,0.7,1.9,0.7h5.2c0.7,0,1.4-0.3,1.9-0.7h4.1
			c0.5,0.4,1.2,0.7,1.9,0.7h5.2c0.7,0,1.4-0.3,1.9-0.7H35l6,7.1H3.4L9.4,11.8L9.4,11.8z M42,36.8L42,36.8c-0.5,0-1-0.4-1-1V30
			c0-0.4-0.3-0.7-0.7-0.7c-0.4,0-0.7,0.3-0.7,0.7v4.1h-1.7v-1.8c0-0.4-0.3-0.7-0.7-0.7c-0.4,0-0.7,0.3-0.7,0.7v3.5c0,0.5-0.4,1-1,1
			s-1-0.4-1-1V30c0-0.4-0.3-0.7-0.7-0.7c-0.4,0-0.7,0.3-0.7,0.7v4.1h-1.7v-1.8c0-0.4-0.3-0.7-0.7-0.7s-0.7,0.3-0.7,0.7v3.5
			c0,0.5-0.4,1-1,1c-0.5,0-1-0.4-1-1V30c0-0.4-0.3-0.7-0.7-0.7s-0.7,0.3-0.7,0.7v4.1h-1.7v-1.8c0-0.4-0.3-0.7-0.7-0.7
			c-0.4,0-0.7,0.3-0.7,0.7v3.5c0,0.5-0.4,1-1,1s-1-0.4-1-1V30c0-0.4-0.3-0.7-0.7-0.7c-0.4,0-0.7,0.3-0.7,0.7v4.1h-1.7v-1.8
			c0-0.4-0.3-0.7-0.7-0.7c-0.4,0-0.7,0.3-0.7,0.7v3.5c0,0.5-0.4,1-1,1c-0.5,0-1-0.4-1-1V30c0-0.4-0.3-0.7-0.7-0.7s-0.7,0.3-0.7,0.7
			v4.1h-1.7v-1.8c0-0.4-0.3-0.7-0.7-0.7c-0.4,0-0.7,0.3-0.7,0.7v3.5c0,0.5-0.4,1-1,1c-0.5,0-1-0.4-1-1V30c0-0.4-0.3-0.7-0.7-0.7
			S6.6,29.6,6.6,30v4.1H5v-1.8c0-0.4-0.3-0.7-0.7-0.7S3.5,32,3.5,32.4v3.5c0,0.5-0.4,1-1,1s-1-0.4-1-1v-8.9H43v8.9
			C43,36.4,42.6,36.8,42,36.8L42,36.8z"/>
		<polygon points="7.1,1.5 37.3,1.5 37.3,10.3 38.8,10.3 38.8,0 5.7,0 5.7,10.3 7.1,10.3 		"/>
	</g>
</g>
</svg>
