<?xml version="1.0" encoding="utf-8"?>
<!-- Generator: Adobe Illustrator 24.2.1, SVG Export Plug-In . SVG Version: 6.00 Build 0)  -->
<svg version="1.1" id="Camada_1" xmlns:xodm="http://www.corel.com/coreldraw/odm/2003"
	 xmlns="http://www.w3.org/2000/svg" xmlns:xlink="http://www.w3.org/1999/xlink" x="0px" y="0px" viewBox="0 0 46 32.6"
	 style="enable-background:new 0 0 46 32.6;" xml:space="preserve">
<style type="text/css">
	.st0{fill:none;stroke:#000000;stroke-width:1.5072;stroke-linecap:round;stroke-linejoin:round;stroke-miterlimit:16.9346;}
</style>
<g id="Camada_x0020_1">
	<path class="st0" d="M43.4,24.6c1.1-2.2,1.8-5.1,1.8-8.2c0-3-0.6-5.8-1.7-8.1 M43.5,8.2l1-4.5 M44.5,3.8c0.1-0.6-0.4-1.1-1-1
		 M43.5,2.8L39,3.7 M39,3.7c-4.5-1.8-10-2.9-16-2.9h0h0c-5.5,0-10.7,0.9-15,2.5 M8,3.3L2.4,2.2 M2.4,2.2c-0.6-0.1-1.1,0.4-1,1
		 M1.5,3.2l1.1,4.9 M2.6,8.1c-1.1,2.2-1.8,5.1-1.8,8.2c0,3,0.6,5.8,1.7,8.1 M2.5,24.4l-1,4.5 M1.5,28.8c-0.1,0.6,0.4,1.1,1,1
		 M2.4,29.9L7,29 M7,29c4.5,1.8,10,2.9,16,2.9h0h0c5.5,0,10.7-0.9,15-2.5 M38,29.4l5.5,1.1 M43.5,30.4c0.6,0.1,1.1-0.4,1-1
		 M44.5,29.4l-1.1-4.9 M43.1,20.7c0,0.9-0.2,1.8-0.5,2.4c-0.3-0.6-0.5-1.5-0.5-2.4c0-0.9,0.2-1.8,0.5-2.4c-0.3-0.6-0.5-1.5-0.5-2.4
		s0.2-1.8,0.5-2.4c0.3,0.6,0.5,1.5,0.5,2.4s-0.2,1.8-0.5,2.4C42.9,19,43.1,19.8,43.1,20.7z M42.6,13.5c-0.3-0.6-0.5-1.5-0.5-2.4
		c0-0.9,0.2-1.8,0.5-2.4c0.3,0.6,0.5,1.5,0.5,2.4C43.1,12.1,42.9,12.9,42.6,13.5z"/>
</g>
</svg>
