<?xml version="1.0" encoding="utf-8"?>
<!-- Generator: Adobe Illustrator 24.2.1, SVG Export Plug-In . SVG Version: 6.00 Build 0)  -->
<svg version="1.1" id="Camada_1" xmlns:xodm="http://www.corel.com/coreldraw/odm/2003"
	 xmlns="http://www.w3.org/2000/svg" xmlns:xlink="http://www.w3.org/1999/xlink" x="0px" y="0px" viewBox="0 0 45.4 40.1"
	 style="enable-background:new 0 0 45.4 40.1;" xml:space="preserve">
<style type="text/css">
	.st0{fill:#111111;}
	.st1{fill:none;stroke:#111111;stroke-width:0.8479;stroke-miterlimit:24.2269;}
</style>
<g id="Camada_x0020_1">
	<g id="_3003285869568">
		<polygon class="st0" points="2.8,40.1 0,40.1 0,0 2.8,0 		"/>
		<polygon class="st0" points="45.4,40.1 42.7,40.1 42.7,3.5 45.4,3.5 		"/>
		<polygon class="st0" points="42.7,14.3 2.8,14.3 2.8,11.4 42.7,11.4 		"/>
		<polygon class="st1" points="42.7,11.4 2.8,11.4 2.8,8 42.7,8 		"/>
		<line class="st1" x1="14" y1="8" x2="6.6" y2="8"/>
		<path class="st1" d="M6.6,8C5.5,8,4.5,7.1,4.5,5.9"/>
		<path class="st1" d="M4.5,5.9c0-1.1,0.9-2.1,2.1-2.1"/>
		<line class="st1" x1="6.6" y1="3.8" x2="14" y2="3.8"/>
		<path class="st1" d="M14,3.8c1.1,0,2.1,0.9,2.1,2.1"/>
		<path class="st1" d="M16.1,5.9C16.1,7,15.2,8,14,8"/>
		<polygon class="st0" points="42.7,34.7 2.8,34.7 2.8,31.8 42.7,31.8 		"/>
		<polygon class="st1" points="42.7,31.8 2.8,31.8 2.8,28.4 42.7,28.4 		"/>
		<line class="st1" x1="14" y1="28.4" x2="6.6" y2="28.4"/>
		<path class="st1" d="M6.6,28.4c-1.1,0-2.1-0.9-2.1-2.1"/>
		<path class="st1" d="M4.5,26.3c0-1.1,0.9-2.1,2.1-2.1"/>
		<line class="st1" x1="6.6" y1="24.2" x2="14" y2="24.2"/>
		<path class="st1" d="M14,24.2c1.1,0,2.1,0.9,2.1,2.1"/>
		<path class="st1" d="M16.1,26.3c0,1.1-0.9,2.1-2.1,2.1"/>
		<polygon class="st1" points="39.8,17.8 31,17.8 31,14.3 39.8,14.3 		"/>
		<polygon class="st1" points="39.8,21.3 31,21.3 31,17.8 39.8,17.8 		"/>
		<polygon class="st1" points="39.8,24.9 31,24.9 31,21.3 39.8,21.3 		"/>
		<polygon class="st1" points="39.8,28.4 31,28.4 31,24.9 39.8,24.9 		"/>
	</g>
</g>
</svg>
