<?xml version="1.0" encoding="utf-8"?>
<!-- Generator: Adobe Illustrator 24.2.1, SVG Export Plug-In . SVG Version: 6.00 Build 0)  -->
<svg version="1.1" id="Camada_1" xmlns:xodm="http://www.corel.com/coreldraw/odm/2003"
	 xmlns="http://www.w3.org/2000/svg" xmlns:xlink="http://www.w3.org/1999/xlink" x="0px" y="0px" viewBox="0 0 45.5 56.7"
	 style="enable-background:new 0 0 45.5 56.7;" xml:space="preserve">
<g id="Camada_x0020_1">
	<g id="_3003285887520">
		<path d="M22.6,11.1V7.8c0-0.1-0.1-0.3-0.3-0.3c-0.1,0-0.3,0.1-0.3,0.3v3.3c0,0.1,0.1,0.3,0.3,0.3C22.4,11.4,22.6,11.3,22.6,11.1z"
			/>
		<path d="M12.3,15.2c0.1,0,0.3-0.1,0.3-0.3v-3.3c0-0.1-0.1-0.3-0.3-0.3c-0.1,0-0.3,0.1-0.3,0.3v3.3C12,15.1,12.2,15.2,12.3,15.2z"
			/>
		<path d="M32.1,11.6v3.3c0,0.1,0.1,0.3,0.3,0.3c0.1,0,0.3-0.1,0.3-0.3v-3.3c0-0.1-0.1-0.3-0.3-0.3C32.2,11.3,32.1,11.5,32.1,11.6z"
			/>
		<path d="M22.3,5.2c0.6,0,1.1-0.5,1.1-1.1c0-0.5-0.3-0.9-0.8-1V0.3c0-0.1-0.1-0.3-0.3-0.3C22.2,0,22,0.1,22,0.3v2.8
			c-0.5,0.1-0.8,0.5-0.8,1C21.2,4.7,21.7,5.2,22.3,5.2L22.3,5.2z M22.3,3.4L22.3,3.4c0.4,0,0.7,0.3,0.7,0.7c0,0.4-0.3,0.7-0.7,0.7
			c-0.4,0-0.7-0.3-0.7-0.7C21.6,3.8,21.9,3.4,22.3,3.4z"/>
		<path d="M22.3,7.2c4.7,0,8.7,1.6,10,3.8c0-0.1,0-0.2,0-0.3c0-2.9-4.5-5.3-10-5.3s-10,2.4-10,5.3c0,0.1,0,0.2,0,0.3
			C13.7,8.7,17.7,7.2,22.3,7.2L22.3,7.2z"/>
		<polygon points="10.6,20.8 12.3,19.9 14,20.8 13.7,18.9 15.1,17.6 13.2,17.3 12.3,15.5 11.5,17.3 9.6,17.6 10.9,18.9 		"/>
		<path d="M24.4,11.9c-0.3-0.1-0.6-0.1-0.9-0.1c-1.7,0-3,1.4-3,3s1.4,3,3,3c0.3,0,0.7,0,0.9-0.1c-1.2-0.4-2.1-1.5-2.1-2.9
			S23.2,12.3,24.4,11.9L24.4,11.9z"/>
		<path d="M29.9,18c0,1.4,1.1,2.5,2.5,2.5s2.5-1.1,2.5-2.5s-1.1-2.5-2.5-2.5S29.9,16.6,29.9,18z M34.1,18L34.1,18
			c0,1-0.8,1.7-1.7,1.7c-1,0-1.7-0.8-1.7-1.7c0-1,0.8-1.7,1.7-1.7S34.1,17,34.1,18z"/>
		<path d="M44.1,54.3V23.5c0.5-0.4,0.8-1,0.8-1.6c0-1.2-0.9-2.1-2.1-2.1c-1.2,0-2.1,0.9-2.1,2.1c0,0.7,0.3,1.3,0.9,1.7v3.9H3.9v-3.9
			c0.5-0.4,0.8-1,0.8-1.6c0-1.2-0.9-2.1-2.1-2.1c-1.2,0-2.1,0.9-2.1,2.1c0,0.7,0.3,1.3,0.9,1.7v30.7H0.1v2.4h5.3v-2.4H4V50h37.7v4.2
			h-1.4v2.4h5.3v-2.4L44.1,54.3L44.1,54.3z M36.6,28.9L36.6,28.9v12.7H33V28.9C33,28.9,36.6,28.9,36.6,28.9z M31.7,28.9L31.7,28.9
			v12.7H28V28.9C28,28.9,31.7,28.9,31.7,28.9z M26.8,28.9L26.8,28.9v12.7h-3.7V28.9C23.1,28.9,26.8,28.9,26.8,28.9z M21.9,28.9
			L21.9,28.9v12.7h-3.7V28.9C18.2,28.9,21.9,28.9,21.9,28.9z M16.9,28.9L16.9,28.9v12.7h-3.7V28.9C13.3,28.9,16.9,28.9,16.9,28.9z
			 M12,28.9L12,28.9v12.7H8.4V28.9C8.4,28.9,12,28.9,12,28.9z M3.9,28.9L3.9,28.9h3.2v12.7H3.9C3.9,41.6,3.9,28.9,3.9,28.9z
			 M3.9,45.8L3.9,45.8V43h3.2v2.8H3.9z M8.4,45.8L8.4,45.8V43H12v2.8C12,45.8,8.4,45.8,8.4,45.8z M13.3,45.8L13.3,45.8V43h3.7v2.8
			H13.3z M18.2,45.8L18.2,45.8V43h3.7v2.8H18.2z M23.1,45.8L23.1,45.8V43h3.7v2.8H23.1z M28,45.8L28,45.8V43h3.7v2.8H28z M33,45.8
			L33,45.8V43h3.7v2.8H33z M41.6,45.8L41.6,45.8h-3.7V43h3.7V45.8z M41.6,41.6L41.6,41.6h-3.7V28.9h3.7V41.6z"/>
	</g>
</g>
</svg>
