<?xml version="1.0" encoding="utf-8"?>
<!-- Generator: Adobe Illustrator 24.2.1, SVG Export Plug-In . SVG Version: 6.00 Build 0)  -->
<svg version="1.1" id="Camada_1" xmlns:xodm="http://www.corel.com/coreldraw/odm/2003"
	 xmlns="http://www.w3.org/2000/svg" xmlns:xlink="http://www.w3.org/1999/xlink" x="0px" y="0px" viewBox="0 0 42.5 35.7"
	 style="enable-background:new 0 0 42.5 35.7;" xml:space="preserve">
<style type="text/css">
	.st0{fill:none;stroke:#111111;stroke-width:0.2072;stroke-miterlimit:25.9;}
	.st1{fill:none;stroke:#111111;stroke-width:0.2072;stroke-linecap:round;stroke-linejoin:round;stroke-miterlimit:10.36;}
	.st2{fill:#111111;stroke:#111111;stroke-width:1.3727;stroke-linejoin:round;stroke-miterlimit:59.3774;}
	.st3{fill:none;stroke:#111111;stroke-width:1.3727;stroke-linecap:round;stroke-linejoin:round;stroke-miterlimit:25.9;}
</style>
<g id="Camada_x0020_1">
	<g id="_3002298596640">
		<polygon class="st0" points="41.8,0.7 41.8,3.2 0.7,3.2 0.7,0.7 		"/>
		<polygon class="st0" points="37.7,31.5 37.7,35 34.8,35 34.8,31.5 		"/>
		<polygon class="st0" points="4.7,31.5 4.7,35 7.7,35 7.7,31.5 		"/>
		<polygon class="st0" points="39.5,3.2 39.5,31.5 3,31.5 3,3.2 		"/>
		<polyline class="st1" points="41.8,3.2 41.8,3.2 39.5,3.2 		"/>
		<polygon class="st2" points="3,3.2 0.7,3.2 0.7,0.7 41.8,0.7 41.8,3.2 39.5,3.2 		"/>
		<line class="st3" x1="3" y1="3.2" x2="3" y2="3.2"/>
		<polyline class="st3" points="3,3.2 39.5,3.2 39.5,31.5 3,31.5 3,3.2 		"/>
		<polygon class="st2" points="7.7,31.5 7.7,35 4.7,35 4.7,31.5 		"/>
		<polygon class="st2" points="37.7,31.5 37.7,35 34.8,35 34.8,31.5 		"/>
		<line class="st3" x1="3.2" y1="10.2" x2="39.3" y2="10.2"/>
		<line class="st3" x1="3.2" y1="17.3" x2="39.3" y2="17.3"/>
		<line class="st3" x1="3.2" y1="24.3" x2="39.3" y2="24.3"/>
		<line class="st3" x1="21.2" y1="3.4" x2="21.2" y2="10.2"/>
		<line class="st3" x1="11" y1="5.4" x2="13.2" y2="5.4"/>
		<line class="st3" x1="20.1" y1="12.6" x2="22.4" y2="12.6"/>
		<line class="st3" x1="20.1" y1="19.6" x2="22.4" y2="19.6"/>
		<line class="st3" x1="20.1" y1="26.6" x2="22.4" y2="26.6"/>
		<line class="st3" x1="29.2" y1="5.4" x2="31.5" y2="5.4"/>
	</g>
</g>
</svg>
