<svg id="Camada_1" data-name="Camada 1" xmlns="http://www.w3.org/2000/svg" viewBox="0 0 628.5 690.75"><rect x="104.5" y="145.65" width="60.75" height="18.3"/><rect x="104.5" y="470.92" width="60.75" height="18.3"/><rect x="224.08" y="470.92" width="60.75" height="18.3"/><rect x="343.67" y="401.19" width="60.75" height="18.3"/><rect x="164.29" y="401.19" width="60.75" height="18.3"/><rect x="463.25" y="401.19" width="60.75" height="18.3"/><rect x="224.08" y="145.65" width="60.75" height="18.3"/><rect x="343.67" y="145.65" width="60.75" height="18.3"/><rect x="463.25" y="145.65" width="60.75" height="18.3"/><path d="M447.89,0H61V636.85H74.1l4.1,53.9h23.92l4.2-53.9H298.13l4.1,53.9h23.92l4.2-53.9H522.43l4.1,53.9h23.92l4.2-53.9h12.82V0Zm0,28.11h91.47V179.9H447.89Zm-119.58,0h91.47V179.9H328.31Zm-119.59,0H300.2V179.9H208.72Zm-119.58,0h91.47V179.9H89.14Zm0,363.73H300.2v37H89.14Zm91.47,216.9H89.14V457h91.47ZM208.72,457H300.2V608.74H208.72ZM419.78,608.74H328.31V391.84h91.47Zm119.58,0H447.89V391.84h91.47Zm-91.47-245H89.14v-138H539.36v138Z"/></svg>