<?xml version="1.0" encoding="utf-8"?>
<!-- Generator: Adobe Illustrator 24.2.1, SVG Export Plug-In . SVG Version: 6.00 Build 0)  -->
<svg version="1.1" id="Camada_1" xmlns:xodm="http://www.corel.com/coreldraw/odm/2003"
	 xmlns="http://www.w3.org/2000/svg" xmlns:xlink="http://www.w3.org/1999/xlink" x="0px" y="0px" viewBox="0 0 30 48.5"
	 style="enable-background:new 0 0 30 48.5;" xml:space="preserve">
<style type="text/css">
	.st0{fill:#111111;stroke:#111111;stroke-width:0.9127;stroke-linejoin:round;stroke-miterlimit:83.6994;}
	.st1{fill:none;stroke:#111111;stroke-width:0.9127;stroke-linecap:round;stroke-linejoin:round;stroke-miterlimit:36.5091;}
	.st2{fill:#111111;}
	.st3{fill:none;stroke:#111111;stroke-width:0.8397;stroke-miterlimit:36.5091;}
	.st4{fill:none;stroke:#111111;stroke-width:0.9127;stroke-miterlimit:36.5091;}
</style>
<g id="Camada_x0020_1">
	<g id="_3003285885600">
		<g>
			<polygon class="st0" points="29.6,23.5 0.4,23.5 0.4,21.5 29.6,21.5 			"/>
			<polygon class="st1" points="27.9,44.5 2.1,44.5 2.1,23.5 27.9,23.5 			"/>
			<polygon class="st0" points="4.1,48 2.1,48 2.1,44.5 4.9,44.5 			"/>
			<polygon class="st0" points="25.9,48 27.9,48 27.9,44.5 25.1,44.5 			"/>
			<polygon class="st1" points="24.6,33.7 5.4,33.7 5.4,26.4 24.6,26.4 			"/>
			<path class="st2" d="M16.2,29c0,0.7-0.5,1.2-1.2,1.2s-1.2-0.5-1.2-1.2s0.5-1.2,1.2-1.2S16.2,28.4,16.2,29z"/>
			<g>
				<polygon class="st1" points="24.6,41 5.4,41 5.4,33.7 24.6,33.7 				"/>
				<path class="st2" d="M16.2,36.4c0,0.7-0.5,1.2-1.2,1.2s-1.2-0.5-1.2-1.2s0.5-1.2,1.2-1.2S16.2,35.7,16.2,36.4z"/>
			</g>
		</g>
		<g>
			<g>
				<polygon class="st3" points="23.7,8.4 18.2,0.4 15,0.4 11.8,0.4 6.4,8.4 15,8.4 				"/>
				<line class="st4" x1="15" y1="10.9" x2="11.3" y2="10.9"/>
				<path class="st4" d="M11.3,10.9c-1.7,2.3-1.5,5.6,1.2,10.2"/>
				<polyline class="st4" points="12.5,21.1 15,21.1 17.5,21.1 				"/>
				<path class="st4" d="M17.5,21.1c2.7-4.6,2.9-7.9,1.2-10.2"/>
				<line class="st4" x1="18.7" y1="10.9" x2="15" y2="10.9"/>
			</g>
			<polygon class="st2" points="16.1,10.9 14,10.9 14,8.4 16.1,8.4 			"/>
			<line class="st1" x1="8.4" y1="8.6" x2="8.4" y2="15.6"/>
			<path class="st2" d="M9.3,15.7c0,0.5-0.4,0.9-0.9,0.9s-0.9-0.4-0.9-0.9s0.4-0.9,0.9-0.9S9.3,15.2,9.3,15.7z"/>
		</g>
	</g>
</g>
</svg>
