<svg id="Camada_1" data-name="Camada 1" xmlns="http://www.w3.org/2000/svg" viewBox="0 0 45.5 20.86"><defs><style>.cls-1{fill:#fff;}.cls-2{fill:#111;}</style></defs><polygon points="0 2.5 0 4.2 45.5 4.2 45.5 2.5 0 2.5"/><polygon points="1.78 20.86 2.79 20.86 2.79 4.7 1.78 4.7 1.78 20.86"/><polygon points="3.29 20.86 9.79 15.3 9.79 4.7 3.29 4.7 3.29 20.86"/><polygon points="43.72 20.86 42.72 20.86 42.72 4.7 43.72 4.7 43.72 20.86"/><polygon points="42.22 20.86 35.71 15.3 35.71 4.7 42.22 4.7 42.22 20.86"/><polygon points="29.83 13.7 27.77 10.6 27.77 4.7 29.83 4.7 29.83 13.7"/><polygon points="45.5 2 39.9 0 5.6 0 0 2 45.5 2"/><rect class="cls-1" x="30.11" y="4.98" width="11.19" height="3.91"/><path class="cls-2" d="M41,5.26V8.61H30.39V5.26H41m.55-.56H29.83V9.17H41.58V4.7Z"/><path class="cls-2" d="M36.44,6.35a.71.71,0,0,1-.73.74A.71.71,0,0,1,35,6.35a.71.71,0,0,1,.74-.73A.7.7,0,0,1,36.44,6.35Z"/><rect class="cls-1" x="30.11" y="9.45" width="11.19" height="3.91"/><path class="cls-2" d="M41,9.73v3.35H30.39V9.73H41m.55-.56H29.83v4.47H41.58V9.17Z"/><path class="cls-2" d="M36.44,10.82a.71.71,0,0,1-.73.74.71.71,0,0,1-.74-.74.71.71,0,0,1,.74-.73A.7.7,0,0,1,36.44,10.82Z"/><rect x="10.79" y="4.7" width="15.98" height="4.95"/></svg>