<?xml version="1.0" encoding="utf-8"?>
<!-- Generator: Adobe Illustrator 27.3.1, SVG Export Plug-In . SVG Version: 6.00 Build 0)  -->
<svg version="1.1" id="Camada_1" xmlns="http://www.w3.org/2000/svg" xmlns:xlink="http://www.w3.org/1999/xlink" x="0px" y="0px"
	 viewBox="0 0 24.7 36" style="enable-background:new 0 0 24.7 36;" xml:space="preserve">
<style type="text/css">
	.st0{fill:none;stroke:#000000;stroke-width:1.5;stroke-linecap:round;stroke-linejoin:round;}
	.st1{fill:none;stroke:#000000;stroke-width:1.5;stroke-miterlimit:10;}
	.st2{fill:none;stroke:#000000;stroke-miterlimit:10;}
</style>
<path class="st0" d="M2.8,27.5L5.3,18c1-3.4,4.8-2.6,5.9,1.7l3.7,15.6"/>
<path class="st0" d="M15,17.8l0.3-1.7c1-3.4,4.8-2.6,5.9,1.7L24,29.5"/>
<path class="st1" d="M21.7,19.8L12,23.1c0,0-6.5-3.1-6.8-3.6c-0.8-1.4-1.4-3.6-1.4-3.6l-2.9-11c-1.1-4.9,6-5.7,7.6-0.4l3.7,11
	c0,0,0.6,2.3,2.5,2.8S21.6,18.7,21.7,19.8z"/>
<path class="st2" d="M8.6,16c0,0-7.4-1.3-7.8-2c-0.5-0.7,1.7-0.8,2.3-0.8"/>
<path class="st2" d="M18,13.8c0,0-3.6-1.7-4.9-2.1c-1.2-0.4-2.4-0.1-2.4-0.1"/>
</svg>
