<?xml version="1.0" encoding="utf-8"?>
<!-- Generator: Adobe Illustrator 24.2.1, SVG Export Plug-In . SVG Version: 6.00 Build 0)  -->
<svg version="1.1" id="Camada_1" xmlns:xodm="http://www.corel.com/coreldraw/odm/2003"
	 xmlns="http://www.w3.org/2000/svg" xmlns:xlink="http://www.w3.org/1999/xlink" x="0px" y="0px" viewBox="0 0 45.5 30.6"
	 style="enable-background:new 0 0 45.5 30.6;" xml:space="preserve">
<g id="Camada_x0020_1">
	<g id="_3003285831760">
		<path d="M13.8,15.2h17.8V6.7H13.8V15.2z M25.2,10.7L25.2,10.7l-2.9,2.9c0,0.1-0.1,0.1-0.2,0.1s-0.2,0-0.2-0.1
			c-0.1-0.1-0.1-0.3,0-0.4l2.9-2.9c0.1-0.1,0.3-0.1,0.4,0C25.3,10.4,25.3,10.6,25.2,10.7z M20,13.2L20,13.2l5-5
			c0.1-0.1,0.3-0.1,0.4,0c0.1,0.1,0.1,0.3,0,0.4l-5,5c-0.1,0.1-0.1,0.1-0.2,0.1c-0.1,0-0.2,0-0.2-0.1C19.9,13.5,19.9,13.3,20,13.2z"
			/>
		<path d="M33.7,17.3v-1.2V5.7V4.6h-22v12.7h1.2h19.6H33.7L33.7,17.3z M12.9,5.7L12.9,5.7h19.6v10.4H12.9V5.7z"/>
		<path d="M44.3,20.7v-4.5V15V6.8V5.6V1.2V0l0,0h-1.2l0,0H38l0,0h-1.2l0,0H8.6l0,0H7.5l0,0H2.3l0,0H1.2l0,0v1.2v4.5v1.2V15v1.2v4.5
			H0v1.2v5.4v1.2h1.2v2.2h1.2v-2.2h3.1v1.5h1.2v-1.5h8.3h1.2h13.2h1.2h8.3v1.5h1.2v-1.5H43v2.2h1.2v-2.2h1.2v-1.2v-5.4v-1.2H44.3
			L44.3,20.7z M38,1.2L38,1.2h5.1v4.5H38C38,5.6,38,1.2,38,1.2z M38,6.8L38,6.8h5.1V15H38C38,15,38,6.8,38,6.8z M38,16.2L38,16.2
			h5.1v4.5H38C38,20.7,38,16.2,38,16.2z M2.3,1.2L2.3,1.2h5.1v4.5H2.3C2.3,5.6,2.3,1.2,2.3,1.2z M2.3,6.8L2.3,6.8h5.1V15H2.3
			C2.3,15,2.3,6.8,2.3,6.8z M2.3,16.2L2.3,16.2h5.1v4.5H2.3V16.2z M14.9,27.2L14.9,27.2H1.2v-5.4h13.8V27.2z M29.3,27.2L29.3,27.2
			H16.1v-2.5h13.2V27.2z M29.3,24.3L29.3,24.3H16.1v-2.5h13.2V24.3z M29.3,20.6L29.3,20.6H16.1h-1.2H8.6v-4.5V15V6.8V5.6V1.2h28.2
			v4.5v1.2V15v1.2v4.5h-6.3H29.3L29.3,20.6z M44.3,27.2L44.3,27.2H30.5v-5.4h13.8V27.2z"/>
		<path d="M8.1,25.1c0.3,0,0.6-0.2,0.6-0.6c0-0.3-0.2-0.6-0.6-0.6c-0.3,0-0.6,0.2-0.6,0.6C7.5,24.8,7.7,25.1,8.1,25.1z"/>
		<path d="M37.4,25.1c0.3,0,0.6-0.2,0.6-0.6c0-0.3-0.2-0.6-0.6-0.6s-0.6,0.2-0.6,0.6C36.8,24.8,37.1,25.1,37.4,25.1z"/>
	</g>
</g>
</svg>
