<?xml version="1.0" encoding="utf-8"?>
<!-- Generator: Adobe Illustrator 24.2.1, SVG Export Plug-In . SVG Version: 6.00 Build 0)  -->
<svg version="1.1" id="Camada_1" xmlns:xodm="http://www.corel.com/coreldraw/odm/2003"
	 xmlns="http://www.w3.org/2000/svg" xmlns:xlink="http://www.w3.org/1999/xlink" x="0px" y="0px" viewBox="0 0 31.4 30"
	 style="enable-background:new 0 0 31.4 30;" xml:space="preserve">
<g id="Camada_x0020_1">
	<g id="_3003287417216">
		<path d="M28.9,13.5c-1.1-0.1-2.8,0.1-4.2,1.4c-1.2,1-2.1,2.6-2.5,4.7c-2-0.5-4.2-0.7-6.5-0.7s-4.5,0.3-6.5,0.7
			c-0.5-2.1-1.3-3.6-2.5-4.7c-1.4-1.2-3.1-1.5-4.2-1.4c-1.6,0.2-2.7,1.7-2.4,3.3c0.2,1.4,1.4,2.5,2.9,2.5c0.2,0.2,0.8,2,0.8,5
			c0,1.6,1.3,2.9,2.9,2.9h1c-0.5,0.2-0.8,0.7-0.8,1.3c0,0.8,0.7,1.5,1.5,1.5s1.5-0.7,1.5-1.5c0-0.6-0.3-1.1-0.8-1.3h6.6h6.6
			c-0.5,0.2-0.8,0.7-0.8,1.3c0,0.8,0.7,1.5,1.5,1.5s1.5-0.7,1.5-1.5c0-0.6-0.3-1.1-0.8-1.3h1c1.6,0,2.9-1.3,2.9-2.9
			c0-3,0.7-4.8,0.8-5c1.4,0,2.7-1,2.9-2.5C31.5,15.2,30.4,13.7,28.9,13.5z"/>
		<path d="M7.6,13.9c1.2,1,2,2.4,2.6,4.1c1.8-0.3,3.6-0.5,5.5-0.5s3.7,0.2,5.5,0.5c0.6-1.7,1.4-3.1,2.6-4.1c0.3-0.3,0.7-0.6,1.1-0.8
			V9.2c0-5.1-4.1-9.2-9.2-9.2S6.5,4.2,6.5,9.2V13C6.9,13.3,7.2,13.5,7.6,13.9z"/>
	</g>
</g>
</svg>
