<?xml version="1.0" encoding="utf-8"?>
<!-- Generator: Adobe Illustrator 24.2.1, SVG Export Plug-In . SVG Version: 6.00 Build 0)  -->
<svg version="1.1" id="Camada_1" xmlns:xodm="http://www.corel.com/coreldraw/odm/2003"
	 xmlns="http://www.w3.org/2000/svg" xmlns:xlink="http://www.w3.org/1999/xlink" x="0px" y="0px" viewBox="0 0 45.5 38.2"
	 style="enable-background:new 0 0 45.5 38.2;" xml:space="preserve">
<style type="text/css">
	.st0{fill:#111111;}
</style>
<g id="Camada_x0020_1">
	<g id="_3003366905152">
		<g>
			<path class="st0" d="M36,0H9.5C9,0,8.7,0.4,8.7,0.8v15.6c0,0.4,0.4,0.8,0.8,0.8h6.8c0,0.1-0.1,0.2-0.1,0.3c0,0.4,0.4,0.8,0.8,0.8
				h11.6c0.4,0,0.8-0.4,0.8-0.8c0-0.1,0-0.2-0.1-0.3H36c0.4,0,0.8-0.4,0.8-0.8V0.8C36.8,0.4,36.4,0,36,0z M35.2,15.6L35.2,15.6h-25
				v-14h24.9v14H35.2z"/>
			<path class="st0" d="M33.9,2.9H11.5v11.4h22.4V2.9z M26.1,8.1L26.1,8.1l-4,4c-0.1,0.1-0.2,0.1-0.3,0.1s-0.2,0-0.3-0.1
				c-0.2-0.2-0.2-0.4,0-0.6l4-4c0.2-0.2,0.4-0.2,0.6,0C26.3,7.7,26.3,7.9,26.1,8.1L26.1,8.1z M26.4,5.3L26.4,5.3l-6.8,6.8
				c-0.1,0.1-0.2,0.1-0.3,0.1s-0.2,0-0.3-0.1c-0.2-0.2-0.2-0.4,0-0.6l6.8-6.8c0.2-0.2,0.4-0.2,0.6,0C26.6,4.9,26.6,5.2,26.4,5.3
				L26.4,5.3z"/>
		</g>
		<path class="st0" d="M44.7,19.1H0.8c-0.4,0-0.8,0.4-0.8,0.8s0.4,0.8,0.8,0.8h0.8v16.8c0,0.4,0.4,0.8,0.8,0.8s0.8-0.4,0.8-0.8v-0.8
			H22v0.8c0,0.4,0.4,0.8,0.8,0.8s0.8-0.4,0.8-0.8v-0.8h18.8v0.8c0,0.4,0.4,0.8,0.8,0.8c0.4,0,0.8-0.4,0.8-0.8V20.7h0.8
			c0.4,0,0.8-0.4,0.8-0.8C45.5,19.4,45.1,19.1,44.7,19.1L44.7,19.1z M21.9,20.7L21.9,20.7v4.2H3.1v-4.2H21.9z M3.1,35.1L3.1,35.1
			v-8.7h18.8v8.7H3.1z M23.5,35.1L23.5,35.1v-8.7h18.8v8.7H23.5z M42.3,24.8L42.3,24.8H23.5v-4.2h18.8V24.8z"/>
		<path class="st0" d="M19.7,28.1c-0.4,0-0.8,0.4-0.8,0.8v3.7c0,0.4,0.4,0.8,0.8,0.8s0.8-0.4,0.8-0.8v-3.7
			C20.5,28.5,20.2,28.1,19.7,28.1z"/>
		<path class="st0" d="M12.5,23.1c0.4,0,0.8-0.4,0.8-0.8s-0.4-0.8-0.8-0.8s-0.8,0.4-0.8,0.8S12.1,23.1,12.5,23.1z"/>
		<path class="st0" d="M25.7,28.1c-0.4,0-0.8,0.4-0.8,0.8v3.7c0,0.4,0.4,0.8,0.8,0.8s0.8-0.4,0.8-0.8v-3.7
			C26.5,28.5,26.2,28.1,25.7,28.1z"/>
		<path class="st0" d="M32.9,23.1c0.4,0,0.8-0.4,0.8-0.8s-0.4-0.8-0.8-0.8c-0.4,0-0.8,0.4-0.8,0.8C32.1,22.7,32.5,23.1,32.9,23.1z"
			/>
	</g>
</g>
</svg>
