<?xml version="1.0" encoding="utf-8"?>
<!-- Generator: Adobe Illustrator 24.2.1, SVG Export Plug-In . SVG Version: 6.00 Build 0)  -->
<svg version="1.1" id="Camada_1" xmlns:xodm="http://www.corel.com/coreldraw/odm/2003"
	 xmlns="http://www.w3.org/2000/svg" xmlns:xlink="http://www.w3.org/1999/xlink" x="0px" y="0px" viewBox="0 0 45.4 44.9"
	 style="enable-background:new 0 0 45.4 44.9;" xml:space="preserve">
<style type="text/css">
	.st0{fill:none;stroke:#111111;stroke-width:1.4566;stroke-linecap:round;stroke-linejoin:round;stroke-miterlimit:24.2766;}
	.st1{fill:#111111;stroke:#111111;stroke-width:1.4566;stroke-linejoin:round;stroke-miterlimit:55.6556;}
</style>
<g id="Camada_x0020_1">
	<g id="_3003390755664">
		<polygon class="st0" points="15.4,39.2 0.7,39.2 0.7,0.7 15.4,0.7 		"/>
		<polygon class="st1" points="44.6,39.2 0.7,39.2 0.7,41.9 44.6,41.9 		"/>
		<polygon class="st1" points="5.2,44.2 0.7,44.2 0.7,41.9 5.2,41.9 		"/>
		<polygon class="st1" points="24.9,44.2 20.5,44.2 20.5,41.9 24.9,41.9 		"/>
		<polygon class="st1" points="44.6,44.2 40.2,44.2 40.2,41.9 44.6,41.9 		"/>
		<line class="st0" x1="12.4" y1="17.8" x2="12.4" y2="22.5"/>
		<line class="st0" x1="32.3" y1="31.5" x2="27.7" y2="31.5"/>
		<line class="st0" x1="32.3" y1="36.7" x2="27.7" y2="36.7"/>
		<polygon class="st0" points="44.6,29 30,29 30,0.7 44.6,0.7 		"/>
		<line class="st0" x1="41.7" y1="13.3" x2="41.7" y2="16.7"/>
		<polygon class="st0" points="30,29 15.4,29 15.4,0.7 30,0.7 		"/>
		<line class="st0" x1="27" y1="13.3" x2="27" y2="16.7"/>
		<g>
			<polygon class="st0" points="44.6,34.1 15.4,34.1 15.4,29 44.6,29 			"/>
		</g>
		<g>
			<polygon class="st0" points="44.6,39.2 15.4,39.2 15.4,34.1 44.6,34.1 			"/>
		</g>
	</g>
</g>
</svg>
