<?xml version="1.0" encoding="utf-8"?>
<!-- Generator: Adobe Illustrator 24.2.1, SVG Export Plug-In . SVG Version: 6.00 Build 0)  -->
<svg version="1.1" id="Camada_1" xmlns:xodm="http://www.corel.com/coreldraw/odm/2003"
	 xmlns="http://www.w3.org/2000/svg" xmlns:xlink="http://www.w3.org/1999/xlink" x="0px" y="0px" viewBox="0 0 45.5 25.6"
	 style="enable-background:new 0 0 45.5 25.6;" xml:space="preserve">
<g id="Camada_x0020_1">
	<g id="_3003390713360">
		<path d="M42.5,9.8c-1.6,0-2.9,1.3-2.9,2.9v6.2H22.7H5.8v-6.2c0-1.6-1.3-2.9-2.9-2.9S0,11,0,12.6c0,1.5,1.2,2.8,2.8,2.9V20
			c0,0.8,0.7,1.5,1.5,1.5h0.3h1.3h16.9h16.9h1.3h0.3c0.8,0,1.5-0.7,1.5-1.5v-4.4c1.5-0.1,2.8-1.3,2.8-2.9C45.5,11,44.2,9.8,42.5,9.8
			L42.5,9.8z"/>
		<path d="M38.6,12.7c0-1.6,0.9-2.9,2.3-3.5V8.6C40.9,5,38,2,34.3,2h-4.9v12.1h9.2C38.6,14.1,38.6,12.7,38.6,12.7z"/>
		<path d="M28.5,2c0-1.1-2.6-2-5.7-2S17,0.9,17,2v12.1h11.5C28.5,14.1,28.5,2,28.5,2z"/>
		<polygon points="39.4,25.6 41.3,25.6 41.3,22.5 38.9,22.5 		"/>
		<path d="M6.8,12.7v1.4H16V2h-4.9C7.5,2,4.5,4.9,4.5,8.6v0.6C5.9,9.8,6.8,11.1,6.8,12.7z"/>
		<polygon points="6.8,15.2 6.8,17.8 22.7,17.8 38.6,17.8 38.6,15.2 22.7,15.2 		"/>
		<polygon points="4.1,25.6 6.1,25.6 6.6,22.5 4.1,22.5 		"/>
	</g>
</g>
</svg>
