<?xml version="1.0" encoding="utf-8"?>
<!-- Generator: Adobe Illustrator 25.0.0, SVG Export Plug-In . SVG Version: 6.00 Build 0)  -->
<svg version="1.1" id="Camada_1" xmlns="http://www.w3.org/2000/svg" xmlns:xlink="http://www.w3.org/1999/xlink" x="0px" y="0px"
	 viewBox="0 0 594.7 105.7" style="enable-background:new 0 0 594.7 105.7;" xml:space="preserve">
<style type="text/css">
	.st0{fill:#002882;}
	.st1{fill:#FFFFFF;}
	.st2{fill:#FFCB00;}
</style>
<path class="st0" d="M52.8,0h489c29.2,0,52.8,23.7,52.8,52.8v0c0,29.2-23.7,52.8-52.8,52.8h-489C23.7,105.7,0,82,0,52.9v0
	C0,23.7,23.7,0,52.8,0z"/>
<path class="st1" d="M137.2,40.5v8.7h11v4.5h-11v8.9h13.9v4.7h-19.8V35.8h19.8v4.6H137.2z"/>
<path class="st1" d="M182.7,35.8v31.4h-3c-0.4,0-0.8-0.1-1.2-0.2c-0.4-0.2-0.7-0.5-0.9-0.8l-16.4-20.9c0.1,1,0.1,1.8,0.1,2.7v19.2
	h-5.1V35.8h3.1c0.2,0,0.4,0,0.6,0c0.2,0,0.3,0.1,0.5,0.1c0.1,0.1,0.3,0.2,0.4,0.3c0.2,0.1,0.3,0.3,0.4,0.5l16.4,21
	c0-0.5-0.1-1-0.1-1.5s0-0.9,0-1.4v-19H182.7z"/>
<path class="st1" d="M211.6,40.6h-9.5v26.6h-5.8V40.6h-9.5v-4.8h24.8L211.6,40.6z"/>
<path class="st1" d="M240.2,67.2h-5.3c-0.9,0.1-1.7-0.4-2.2-1.2l-6.6-10c-0.2-0.3-0.5-0.6-0.8-0.8c-0.4-0.2-0.9-0.3-1.3-0.2h-2.5
	v12.2h-5.8V35.8h9.6c1.8,0,3.7,0.2,5.5,0.7c1.4,0.4,2.6,1,3.8,1.8c0.9,0.8,1.7,1.7,2.2,2.8c0.5,1.2,0.7,2.4,0.7,3.7c0,1-0.1,2-0.5,3
	c-0.3,0.9-0.8,1.8-1.3,2.6c-0.6,0.8-1.3,1.5-2.2,2c-0.9,0.6-1.9,1.1-2.9,1.4c0.4,0.2,0.7,0.5,1,0.8c0.3,0.3,0.6,0.6,0.9,1
	L240.2,67.2z M225.2,50.8c1,0,1.9-0.1,2.9-0.4c0.7-0.2,1.4-0.6,2-1.1c0.5-0.5,0.9-1.1,1.2-1.7c0.3-0.7,0.4-1.4,0.4-2.2
	c0.1-1.4-0.5-2.8-1.6-3.7c-1.4-1-3.1-1.4-4.8-1.3h-3.7v10.4H225.2z"/>
<path class="st1" d="M249.4,40.5v8.7h11v4.5h-11v8.9h13.9v4.7h-19.8V35.8h19.8v4.6H249.4z"/>
<path class="st1" d="M293.7,51.5v12.7c-1.5,1.1-3.3,2-5.1,2.6c-1.9,0.6-3.8,0.8-5.8,0.8c-2.4,0-4.7-0.4-7-1.2
	c-2-0.7-3.8-1.9-5.3-3.3c-1.5-1.4-2.6-3.2-3.4-5.1c-0.8-2-1.2-4.2-1.2-6.4c0-2.2,0.3-4.4,1.1-6.5c1.5-3.9,4.5-6.9,8.4-8.4
	c2.2-0.8,4.5-1.2,6.8-1.2c1.2,0,2.4,0.1,3.6,0.3c1.1,0.2,2.1,0.5,3.1,0.8c0.9,0.3,1.8,0.8,2.6,1.3c0.8,0.5,1.5,1,2.1,1.7l-1.7,2.7
	c-0.2,0.4-0.6,0.7-1,0.8c-0.5,0.1-1,0-1.4-0.3l-1.4-0.8c-0.5-0.3-1-0.5-1.6-0.7c-0.7-0.2-1.3-0.4-2-0.5c-0.8-0.1-1.7-0.2-2.5-0.2
	c-1.4,0-2.9,0.2-4.2,0.8c-1.2,0.5-2.3,1.3-3.2,2.2c-0.9,1-1.6,2.2-2,3.5c-0.5,1.5-0.7,3-0.7,4.5c0,1.6,0.2,3.3,0.8,4.8
	c0.5,1.3,1.2,2.5,2.2,3.6c0.9,1,2.1,1.7,3.4,2.2c1.4,0.5,2.9,0.8,4.4,0.8c1,0,2.1-0.1,3.1-0.4c0.9-0.2,1.8-0.6,2.7-1v-5.7h-3.9
	c-0.3,0-0.6-0.1-0.9-0.3c-0.2-0.2-0.3-0.5-0.3-0.8v-3.3L293.7,51.5z"/>
<path class="st1" d="M325.8,67.2h-4.5c-0.4,0-0.9-0.1-1.2-0.4c-0.3-0.2-0.6-0.6-0.7-0.9l-2.4-6.4h-13l-2.3,6.4
	c-0.1,0.4-0.4,0.7-0.7,0.9c-0.3,0.3-0.8,0.4-1.2,0.4h-4.6l12.3-31.3h6L325.8,67.2z M315.5,55.4l-3.8-10.4c-0.2-0.5-0.4-1-0.6-1.7
	s-0.4-1.3-0.6-2.1c-0.2,0.7-0.4,1.4-0.6,2.1s-0.4,1.2-0.6,1.7l-3.8,10.4L315.5,55.4z"/>
<path class="st1" d="M344,67.2h-5.9V35.8h5.9V67.2z"/>
<path class="st1" d="M385,35.8v31.4h-5.1V46.9c0-0.8,0-1.7,0.1-2.6l-9.5,17.8c-0.4,0.8-1.2,1.3-2.1,1.3h-0.8c-0.9,0-1.7-0.5-2.1-1.3
	L356,44.2c0,0.5,0.1,1,0.1,1.4s0,0.9,0,1.3v20.3H351V35.8h4.4c0.3,0,0.5,0,0.7,0c0.2,0,0.3,0,0.5,0.1c0.2,0.1,0.3,0.2,0.4,0.3
	c0.1,0.2,0.3,0.3,0.4,0.5l9.4,17.4c0.2,0.5,0.5,0.9,0.7,1.4s0.4,1,0.6,1.5c0.2-0.5,0.4-1,0.6-1.5s0.5-1,0.7-1.4l9.3-17.4
	c0.1-0.2,0.2-0.4,0.4-0.5c0.1-0.1,0.3-0.2,0.4-0.3c0.2-0.1,0.3-0.1,0.5-0.1c0.2,0,0.4,0,0.7,0H385z"/>
<path class="st1" d="M397.9,40.5v8.7h11v4.5h-11v8.9h13.9v4.7H392V35.8h19.8v4.6H397.9z"/>
<path class="st1" d="M444.8,51.5c0,2.2-0.4,4.3-1.1,6.3c-0.7,1.9-1.8,3.6-3.2,5c-1.4,1.4-3.1,2.5-5,3.2c-2.1,0.8-4.3,1.2-6.5,1.2
	H417V35.8h12c2.2,0,4.4,0.4,6.4,1.2c3.8,1.4,6.8,4.4,8.2,8.2C444.4,47.2,444.8,49.3,444.8,51.5z M438.8,51.5c0-1.6-0.2-3.1-0.7-4.6
	c-0.4-1.3-1.1-2.5-2-3.5c-0.9-0.9-1.9-1.7-3.1-2.2c-1.3-0.5-2.7-0.8-4.1-0.8h-6.1v22.1h6.1c1.4,0,2.8-0.2,4.1-0.8
	c1.2-0.5,2.3-1.2,3.1-2.2c0.9-1,1.6-2.2,2-3.5C438.6,54.6,438.8,53.1,438.8,51.5L438.8,51.5z"/>
<path class="st1" d="M455.8,67.2H450V35.8h5.9L455.8,67.2z"/>
<path class="st1" d="M489.7,67.2h-4.5c-0.4,0-0.9-0.1-1.2-0.4c-0.3-0.2-0.6-0.6-0.7-0.9l-2.3-6.4h-13l-2.3,6.4
	c-0.1,0.4-0.4,0.7-0.7,0.9c-0.4,0.3-0.8,0.4-1.2,0.4h-4.5l12.3-31.3h5.9L489.7,67.2z M479.4,55.3l-3.8-10.4c-0.2-0.5-0.4-1-0.6-1.7
	s-0.4-1.3-0.6-2.1c-0.2,0.7-0.4,1.4-0.6,2.1s-0.4,1.2-0.6,1.7l-3.8,10.4H479.4z"/>
<path class="st1" d="M511.8,40.6h-9.5v26.6h-5.8V40.6H487v-4.8h24.7L511.8,40.6z"/>
<path class="st1" d="M539.7,67.2h-4.5c-0.4,0-0.9-0.1-1.2-0.4c-0.3-0.2-0.6-0.6-0.7-0.9l-2.3-6.4h-13l-2.3,6.4
	c-0.1,0.4-0.4,0.7-0.7,0.9c-0.4,0.3-0.8,0.4-1.2,0.4h-4.5l12.3-31.3h5.9L539.7,67.2z M529.4,55.3l-3.8-10.4c-0.2-0.5-0.4-1-0.6-1.7
	s-0.4-1.3-0.6-2.1c-0.2,0.7-0.4,1.4-0.6,2.1s-0.4,1.2-0.6,1.7l-3.8,10.4L529.4,55.3z"/>
<ellipse transform="matrix(0.5525 -0.8335 0.8335 0.5525 -19.5531 90.529)" class="st2" cx="74.5" cy="63.5" rx="2.4" ry="2.2"/>
<path class="st2" d="M75.9,45.8H70l-0.3,5.5h11.5c-0.5-0.6-1.2-1.4-2-2.3C78.1,47.9,77.1,46.8,75.9,45.8z"/>
<ellipse transform="matrix(0.5525 -0.8335 0.8335 0.5525 -33.7875 64.026)" class="st2" cx="42.7" cy="63.5" rx="2.4" ry="2.2"/>
<path class="st2" d="M53,12c-22.6,0-40.9,18.3-40.9,40.9S30.4,93.8,53,93.8c22.6,0,40.9-18.3,40.9-40.9c0,0,0,0,0,0
	C93.9,30.3,75.6,12,53,12z M46.5,66c-1.4,2.2-4.2,2.9-6.5,1.6c-2.1-1.7-2.4-4.8-0.7-7c1.5-1.8,4.1-2.3,6.1-1.2
	C47.5,60.9,48,63.9,46.5,66L46.5,66z M78.2,66c-1.2,2.2-3.9,3-6.1,1.8c-2.2-1.2-3-3.9-1.8-6.1l0,0c0.1-0.2,0.3-0.5,0.4-0.7
	c1.3-2.1,4-2.8,6.1-1.5c2,1.2,2.7,3.7,1.7,5.8C78.6,65.6,78.4,65.8,78.2,66L78.2,66z M81.9,63.8h-1.2c0.3-2.2-0.6-4.5-2.5-5.8
	c-3-1.8-6.9-0.8-8.7,2.2c-0.7,1.1-1.1,2.3-1.2,3.5H48.9c0.3-2.2-0.6-4.5-2.5-5.8c-3-1.8-6.9-0.8-8.7,2.2c-0.7,1.1-1.1,2.3-1.2,3.5
	H33c-0.9,0.1-1.7-0.6-1.8-1.5c0-0.1,0-0.1,0-0.2l0.4-6.9h5.5c0.6,0,1.2-0.5,1.2-1.1s-0.5-1.2-1.1-1.2c0,0,0,0,0,0H22.9
	c-0.4,0-0.8-0.4-0.8-0.8l0,0c0-0.4,0.3-0.8,0.8-0.8c0,0,0,0,0,0h20.5c0.6,0,1.1-0.5,1.1-1.2c0-0.6-0.5-1.1-1.1-1.1H26.6
	c-0.4,0-0.7-0.3-0.8-0.7l0,0c0-0.4,0.3-0.8,0.8-0.8H40c0.6,0,1.1-0.5,1.1-1.2c0-0.6-0.5-1.1-1.1-1.1H24.7c-0.4,0.1-0.8-0.2-0.9-0.7
	c-0.1-0.4,0.2-0.8,0.6-0.9c0,0,0,0,0,0c0.1,0,0.1,0,0.2,0h17.9c0.6,0,1.1-0.5,1.1-1.2c0-0.6-0.5-1.1-1.1-1.1H28.7
	c-0.5,0-0.9-0.4-0.9-0.9l0,0c0-0.5,0.4-0.9,0.9-0.9c0,0,0,0,0,0h3.8v-0.3c0.1-1,0.9-1.7,1.9-1.7h32.9c0.9-0.1,1.7,0.6,1.7,1.5
	c0,0,0,0,0,0c0,0.1,0,0.1,0,0.2l-0.3,4.9h7.6c0.7,0,7.5,7.5,7.5,8.2l-0.6,10.2C83.3,63.2,82.6,63.8,81.9,63.8L81.9,63.8z"/>
</svg>
