<?xml version="1.0" encoding="UTF-8"?>
<!DOCTYPE svg PUBLIC "-//W3C//DTD SVG 1.1//EN" "http://www.w3.org/Graphics/SVG/1.1/DTD/svg11.dtd">
<!-- Creator: CorelDRAW 2019 (64 Bit) -->
<svg xmlns="http://www.w3.org/2000/svg" xml:space="preserve" width="20.7446mm" height="20.7446mm" version="1.1" style="shape-rendering:geometricPrecision; text-rendering:geometricPrecision; image-rendering:optimizeQuality; fill-rule:evenodd; clip-rule:evenodd"
viewBox="0 0 44.51 44.51"
 xmlns:xlink="http://www.w3.org/1999/xlink"
 xmlns:xodm="http://www.corel.com/coreldraw/odm/2003">
 <defs>
  <style type="text/css">
   <![CDATA[
    .fil0 {fill:aqua;fill-rule:nonzero}
   ]]>
  </style>
 </defs>
 <g id="Camada_x0020_1">
  <metadata id="CorelCorpID_0Corel-Layer"/>
  <path class="fil0" d="M44.51 22.26c0,12.29 -9.96,22.26 -22.26,22.26 -12.29,0 -22.26,-9.96 -22.26,-22.26 0,-12.29 9.96,-22.26 22.26,-22.26 12.29,0 22.26,9.96 22.26,22.26zm-24.83 11.78l0 0 16.51 -16.51c0.56,-0.56 0.56,-1.47 0,-2.03l-2.03 -2.03c-0.56,-0.56 -1.47,-0.56 -2.03,0l-13.47 13.47 -6.29 -6.29c-0.56,-0.56 -1.47,-0.56 -2.03,0l-2.03 2.03c-0.56,0.56 -0.56,1.47 0,2.03l9.33 9.33c0.56,0.56 1.47,0.56 2.03,0z"/>
 </g>
</svg>
