<?xml version="1.0" encoding="UTF-8"?>
<svg id="Camada_1" data-name="Camada 1" xmlns="http://www.w3.org/2000/svg" viewBox="0 0 78.86 78.81">
  <g id="Regular-S">
    <path d="m39.4,78.81c21.53,0,39.45-17.87,39.45-39.4S60.89,0,39.36,0,0,17.87,0,39.4s17.92,39.4,39.4,39.4Zm0-7.42c-17.72,0-31.88-14.21-31.88-31.98S21.63,7.42,39.36,7.42s32.03,14.21,32.03,31.98-14.21,31.98-31.98,31.98Z"/>
    <path d="m30.57,58.4c1.12,1.12,3.42,1.03,4.59-.1l15.58-14.55c2.44-2.25,2.44-6.3,0-8.59l-15.58-14.5c-1.32-1.22-3.32-1.32-4.54-.15-1.37,1.27-1.42,3.42-.1,4.69l15.33,14.26-15.33,14.31c-1.27,1.22-1.32,3.32.05,4.64Z"/>
  </g>
</svg>