<?xml version="1.0" encoding="UTF-8"?>
<!DOCTYPE svg PUBLIC "-//W3C//DTD SVG 1.1//EN" "http://www.w3.org/Graphics/SVG/1.1/DTD/svg11.dtd">
<!-- Creator: CorelDRAW 2019 (64 Bit) -->
<svg xmlns="http://www.w3.org/2000/svg" xml:space="preserve" width="37.3107mm" height="24.9522mm" version="1.1" style="shape-rendering:geometricPrecision; text-rendering:geometricPrecision; image-rendering:optimizeQuality; fill-rule:evenodd; clip-rule:evenodd"
viewBox="0 0 129.02 86.28"
 xmlns:xlink="http://www.w3.org/1999/xlink"
 xmlns:xodm="http://www.corel.com/coreldraw/odm/2003">
 <defs>
  <style type="text/css">
   <![CDATA[
    .str0 {stroke:white;stroke-width:3.66;stroke-miterlimit:10}
    .str1 {stroke:white;stroke-width:3.66;stroke-linecap:round;stroke-linejoin:round;stroke-miterlimit:10}
    .fil0 {fill:none;fill-rule:nonzero}
   ]]>
  </style>
 </defs>
 <g id="Camada_x0020_1">
  <metadata id="CorelCorpID_0Corel-Layer"/>
  <g id="_3002362851136">
   <line class="fil0 str0" x1="4.86" y1="30.7" x2="80.85" y2= "3.42" />
   <path class="fil0 str0" d="M80.85 3.42c6.92,-2.44 11.01,-2.05 16.37,0.97"/>
   <line class="fil0 str0" x1="97.22" y1="4.39" x2="122.94" y2= "20.57" />
   <path class="fil0 str0" d="M122.94 20.57c3.99,2.44 4.77,7.89 -0.1,10.81"/>
   <line class="fil0 str0" x1="122.84" y1="31.38" x2="55.71" y2= "64.8" />
   <path class="fil0 str0" d="M55.71 64.8c-5.55,2.44 -9.06,2.83 -13.83,-0.39"/>
   <line class="fil0 str0" x1="41.88" y1="64.41" x2="3.79" y2= "36.06" />
   <path class="fil0 str0" d="M3.79 36.06c-1.95,-1.56 -0.74,-4.42 1.07,-5.36"/>
   <path class="fil0 str1" d="M126.21 26.41c1.32,6.45 2.29,18.89 -3.81,22.55"/>
   <line class="fil0 str1" x1="122.4" y1="48.97" x2="55.71" y2= "82.53" />
   <path class="fil0 str1" d="M55.71 82.53c-5.55,2.44 -9.06,2.83 -13.83,-0.39"/>
   <line class="fil0 str1" x1="41.88" y1="82.14" x2="3.79" y2= "53.79" />
   <path class="fil0 str1" d="M3.79 53.79c-2.09,-4.13 -2.7,-17.02 -0.87,-20.63"/>
  </g>
 </g>
</svg>
