<?xml version="1.0" encoding="UTF-8"?>
<!DOCTYPE svg PUBLIC "-//W3C//DTD SVG 1.1//EN" "http://www.w3.org/Graphics/SVG/1.1/DTD/svg11.dtd">
<!-- Creator: CorelDRAW 2019 (64 Bit) -->
<svg xmlns="http://www.w3.org/2000/svg" xml:space="preserve" width="32.3078mm" height="13.7395mm" version="1.1" style="shape-rendering:geometricPrecision; text-rendering:geometricPrecision; image-rendering:optimizeQuality; fill-rule:evenodd; clip-rule:evenodd"
viewBox="0 0 106.56 45.32"
 xmlns:xlink="http://www.w3.org/1999/xlink"
 xmlns:xodm="http://www.corel.com/coreldraw/odm/2003">
 <defs>
  <style type="text/css">
   <![CDATA[
    .fil0 {fill:aqua;fill-rule:nonzero}
   ]]>
  </style>
 </defs>
 <g id="Camada_x0020_1">
  <metadata id="CorelCorpID_0Corel-Layer"/>
  <path class="fil0" d="M93.63 11.44l-13.18 0 0.5 -8.47c0.1,-1.64 -1.21,-2.97 -2.91,-2.97l-56.69 0c-1.71,0 -3.17,1.33 -3.26,2.97l-0.03 0.51 -6.63 0c-0.84,0 -1.52,0.68 -1.52,1.52 0,0.84 0.68,1.52 1.52,1.52l6.45 0 7.42 0 10.04 0c1.1,0 1.98,0.89 1.98,1.98 0,1.1 -0.89,1.98 -1.98,1.98l-16.48 0 -1.22 0 -13.08 0c-0.73,0 -1.32,0.59 -1.32,1.32 0,0.73 0.59,1.32 1.32,1.32l12.92 0 1.37 0 12.04 0c1.1,0 1.98,0.89 1.98,1.98l0 0c0,1.1 -0.89,1.98 -1.98,1.98l-11.48 0 -2.16 0 -9.54 0c-0.73,0 -1.32,0.59 -1.32,1.32 0,0.73 0.59,1.32 1.32,1.32l9.38 0 2.31 0 17.27 0c1.1,0 1.98,0.89 1.98,1.98 0,1.1 -0.89,1.98 -1.98,1.98l-19.07 0 -0.74 0 -15.46 0c-0.78,0 -1.41,0.63 -1.41,1.41 0,0.78 0.63,1.41 1.41,1.41l15.29 0 0.91 0 8.42 0c1.1,0 1.98,0.89 1.98,1.98 0,1.1 -0.89,1.98 -1.98,1.98l-9.56 0 -0.7 11.86c-0.1,1.64 1.21,2.97 2.91,2.97l6.22 0c0.11,-2.07 0.78,-4.19 2.05,-6.1 3.49,-5.27 10.18,-6.98 14.95,-3.82 3.25,2.15 4.76,6.01 4.29,9.92l14.53 0 14.66 0 4.4 0c0.11,-2.07 0.78,-4.19 2.05,-6.1 3.49,-5.27 10.18,-6.98 14.95,-3.82 3.25,2.15 4.76,6.01 4.29,9.92l2.03 0c1.28,0 2.37,-1 2.44,-2.22l1.03 -17.56c0.07,-1.23 -11.65,-14.09 -12.93,-14.09zm-11.54 12.61l0 0 0.56 -9.63 10.17 0c0.89,0.74 2.89,2.67 5.6,5.63 1.45,1.58 2.62,2.93 3.5,4l-19.83 0z"/>
 </g>
</svg>
