<?xml version="1.0" encoding="UTF-8"?>
<svg id="Camada_1" data-name="Camada 1" xmlns="http://www.w3.org/2000/svg" viewBox="0 0 70 70">
  <defs>
    <style>
      .cls-1 {
        fill: #fff;
      }
    </style>
  </defs>
  <g id="Regular-S">
    <path class="cls-1" d="m2.94,52.59h64.08c1.67,0,2.98-1.32,2.98-2.98s-1.32-2.98-2.98-2.98H2.94c-1.62,0-2.94,1.32-2.94,2.98s1.32,2.98,2.94,2.98Zm0-14.61h64.08c1.67,0,2.98-1.32,2.98-2.98s-1.32-2.98-2.98-2.98H2.94c-1.62,0-2.94,1.32-2.94,2.98s1.32,2.98,2.94,2.98Zm0-14.65h64.08c1.67,0,2.98-1.32,2.98-2.94s-1.32-2.98-2.98-2.98H2.94c-1.62,0-2.94,1.32-2.94,2.98s1.32,2.94,2.94,2.94Z"/>
  </g>
</svg>