<?xml version="1.0" encoding="utf-8"?>
<!-- Generator: Adobe Illustrator 27.4.0, SVG Export Plug-In . SVG Version: 6.00 Build 0)  -->
<svg version="1.1" id="Camada_1" xmlns="http://www.w3.org/2000/svg" xmlns:xlink="http://www.w3.org/1999/xlink" x="0px" y="0px"
	 viewBox="0 0 75.4 76.1" style="enable-background:new 0 0 75.4 76.1;" xml:space="preserve">
<style type="text/css">
	.st0{fill:#FFFFFF;}
</style>
<g id="Regular-S">
	<path class="st0" d="M0,31c0,17.1,13.9,31,31,31c6.6,0,12.6-2,17.7-5.6l18.2,18.2c1,1,2.3,1.4,3.6,1.4c2.8,0,4.9-2.2,4.9-5
		c0-1.4-0.5-2.6-1.4-3.5l-18.1-18C59.8,44.3,62,38,62,31C62,13.9,48.2,0,31,0S0,13.9,0,31z M7.5,31C7.5,18,18,7.5,31.1,7.5
		S54.6,18,54.6,31S44.1,54.6,31.1,54.6S7.5,44,7.5,31z"/>
</g>
</svg>
