<?xml version="1.0" encoding="utf-8"?>
<!-- Generator: Adobe Illustrator 24.2.1, SVG Export Plug-In . SVG Version: 6.00 Build 0)  -->
<svg version="1.1" id="Camada_1" xmlns="http://www.w3.org/2000/svg" xmlns:xlink="http://www.w3.org/1999/xlink" x="0px" y="0px"
	 viewBox="0 0 512 512" style="enable-background:new 0 0 512 512;" xml:space="preserve">
<path d="M256,8C119,8,8,119,8,256s111,248,248,248s248-111,248-248S393,8,256,8z M256,456c-110.5,0-200-89.5-200-200
	S145.5,56,256,56s200,89.5,200,200c0,110.4-89.5,200-199.9,200H256z"/>
<path d="M388,216h-92v-92c0-6.6-5.4-12-12-12h-56c-6.6,0-12,5.4-12,12v92h-92c-6.6,0-12,5.4-12,12v56c0,6.6,5.4,12,12,12h92v92
	c0,6.6,5.4,12,12,12h56c6.6,0,12-5.4,12-12v-92h92c6.6,0,12-5.4,12-12v-56C400,221.4,394.6,216,388,216z"/>
</svg>
