<?xml version="1.0" encoding="UTF-8"?>
<!DOCTYPE svg PUBLIC "-//W3C//DTD SVG 1.1//EN" "http://www.w3.org/Graphics/SVG/1.1/DTD/svg11.dtd">
<!-- Creator: CorelDRAW 2019 (64 Bit) -->
<svg xmlns="http://www.w3.org/2000/svg" xml:space="preserve" width="27.6651mm" height="27.3844mm" version="1.1" style="shape-rendering:geometricPrecision; text-rendering:geometricPrecision; image-rendering:optimizeQuality; fill-rule:evenodd; clip-rule:evenodd"
viewBox="0 0 72.62 71.88"
 xmlns:xlink="http://www.w3.org/1999/xlink"
 xmlns:xodm="http://www.corel.com/coreldraw/odm/2003">
 <defs>
  <style type="text/css">
   <![CDATA[
    .str0 {stroke:white;stroke-width:2.78;stroke-linecap:round;stroke-linejoin:round;stroke-miterlimit:10}
    .fil0 {fill:none;fill-rule:nonzero}
   ]]>
  </style>
 </defs>
 <g id="Camada_x0020_1">
  <metadata id="CorelCorpID_0Corel-Layer"/>
  <g id="_3003376175008">
   <polygon class="fil0 str0" points="24.67,62.61 1.39,62.61 1.39,1.39 24.67,1.39 "/>
   <polygon class="fil0 str0" points="71.23,62.61 1.39,62.61 1.39,66.81 71.23,66.81 "/>
   <polygon class="fil0 str0" points="8.46,70.49 1.39,70.49 1.39,66.81 8.46,66.81 "/>
   <polygon class="fil0 str0" points="71.23,70.49 64.16,70.49 64.16,66.81 71.23,66.81 "/>
   <line class="fil0 str0" x1="19.95" y1="28.57" x2="19.95" y2= "36.01" />
   <polygon class="fil0 str0" points="71.23,62.61 47.95,62.61 47.95,1.39 71.23,1.39 "/>
   <line class="fil0 str0" x1="66.51" y1="28.57" x2="66.51" y2= "36.01" />
   <polygon class="fil0 str0" points="47.95,62.61 24.67,62.61 24.67,1.39 47.95,1.39 "/>
   <line class="fil0 str0" x1="43.23" y1="28.57" x2="43.23" y2= "36.01" />
  </g>
 </g>
</svg>
