<svg id="Camada_1" data-name="Camada 1" xmlns="http://www.w3.org/2000/svg" viewBox="0 0 25.69 50.72"><defs><style>.cls-1{fill:#ff0;}</style></defs><path class="cls-1" d="M18.61,25.37a47,47,0,0,0-.3-5.27,45.27,45.27,0,0,0-.87-5.23,45.92,45.92,0,0,0-1.42-5,38,38,0,0,0-2-4.64,4.3,4.3,0,0,1-.3-.77,2.16,2.16,0,0,1-.1-.63,1.49,1.49,0,0,1,.35-1,4,4,0,0,1,.79-.69L18.45,0A43.82,43.82,0,0,1,24,12.29a49.82,49.82,0,0,1,1.71,13.08A49.81,49.81,0,0,1,24,38.47a43.6,43.6,0,0,1-5.53,12.25L14.8,48.6a3.42,3.42,0,0,1-.82-.68,1.52,1.52,0,0,1-.34-1,3.18,3.18,0,0,1,.37-1.4A43.33,43.33,0,0,0,16,40.83a45.5,45.5,0,0,0,1.45-5,45.36,45.36,0,0,0,.9-5.21A46.53,46.53,0,0,0,18.61,25.37Z"/><circle class="cls-1" cx="5.08" cy="16.33" r="5.08"/><circle class="cls-1" cx="5.08" cy="34.39" r="5.08"/></svg>