<?xml version="1.0" encoding="UTF-8"?>
<!DOCTYPE svg PUBLIC "-//W3C//DTD SVG 1.1//EN" "http://www.w3.org/Graphics/SVG/1.1/DTD/svg11.dtd">
<!-- Creator: CorelDRAW 2019 (64 Bit) -->
<svg xmlns="http://www.w3.org/2000/svg" xml:space="preserve" width="26.5444mm" height="26.5443mm" version="1.1" style="shape-rendering:geometricPrecision; text-rendering:geometricPrecision; image-rendering:optimizeQuality; fill-rule:evenodd; clip-rule:evenodd"
viewBox="0 0 83.19 83.19"
 xmlns:xlink="http://www.w3.org/1999/xlink"
 xmlns:xodm="http://www.corel.com/coreldraw/odm/2003">
 <defs>
  <style type="text/css">
   <![CDATA[
    .fil0 {fill:white;fill-rule:nonzero}
   ]]>
  </style>
 </defs>
 <g id="Camada_x0020_1">
  <metadata id="CorelCorpID_0Corel-Layer"/>
  <path class="fil0" d="M83.19 41.59c0,11.48 -4.66,21.88 -12.18,29.41 -7.53,7.53 -17.93,12.18 -29.41,12.18 -11.48,0 -21.88,-4.66 -29.41,-12.18 -7.53,-7.53 -12.18,-17.93 -12.18,-29.41 0,-11.48 4.66,-21.88 12.18,-29.41 7.53,-7.53 17.93,-12.18 29.41,-12.18 11.48,0 21.88,4.66 29.41,12.18 7.53,7.53 12.18,17.93 12.18,29.41zm-16.48 25.11c6.43,-6.43 10.4,-15.3 10.4,-25.11 0,-9.81 -3.97,-18.69 -10.4,-25.11 -6.43,-6.43 -15.31,-10.4 -25.11,-10.4 -9.81,0 -18.69,3.97 -25.11,10.4 -6.43,6.43 -10.4,15.3 -10.4,25.11 0,9.81 3.97,18.69 10.4,25.11 6.43,6.43 15.3,10.4 25.11,10.4 9.81,0 18.69,-3.98 25.11,-10.4zm-28.75 -35.46l2.25 -1.3c0.91,-0.53 1.23,-1.7 0.7,-2.62l-5.6 -9.7c-0.53,-0.91 -1.7,-1.23 -2.62,-0.7l-2.25 1.3 7.51 13.01zm11.16 19.33l0 0 7.52 13.01 2.26 -1.29c0.92,-0.53 1.23,-1.7 0.7,-2.61l-5.6 -9.7c-0.53,-0.92 -1.7,-1.23 -2.62,-0.7l-2.26 1.3zm-10.49 -6.83l0 0c-5.14,-8.85 -3.92,-10.62 -2.98,-11.16l0.27 -0.16 -7.52 -13.02 -0.34 0.2c-1.69,0.98 -8.18,8.8 3.15,28.42 11.33,19.63 21.34,17.92 23.04,16.93l0.34 -0.2 -7.52 -13.01 -0.27 0.15c-0.95,0.55 -3.03,0.69 -8.18,-8.16z"/>
 </g>
</svg>
