<svg id="Camada_1" data-name="Camada 1" xmlns="http://www.w3.org/2000/svg" viewBox="0 0 628.5 690.75"><path d="M622.54,360.55,604.63,348a14,14,0,0,0-5.09-2.21c-4.86-1-485.85-103.26-496.41-105.61-6.35-1.41-15-.86-56.47,20.29C26.45,270.8,7.9,281.21,7.12,281.65A14,14,0,0,0,0,293.82V389.9a14,14,0,0,0,12.18,13.85l366,47.14A13.2,13.2,0,0,0,380,451a14.06,14.06,0,0,0,2.15-.17L596.4,417.42a13.93,13.93,0,0,0,9.6-6.26l20.29-31.64A14,14,0,0,0,622.54,360.55ZM585.89,390.8,379.81,423,27.92,377.62v-2.35L171.72,329l20.13-41.36,212.72,45.24a18.1,18.1,0,0,0-1.27,6.74c0,7.49,4.3,13.56,9.61,13.56s9.61-6.07,9.61-13.56a17.86,17.86,0,0,0-.24-3l6.66,1.41a17.69,17.69,0,0,0-1.52,7.3c0,7.5,4.3,13.57,9.61,13.57s9.61-6.07,9.61-13.57a19.22,19.22,0,0,0-.35-3.61l7,1.5a17.54,17.54,0,0,0-1.79,7.86c0,7.49,4.31,13.57,9.61,13.57s9.61-6.08,9.61-13.57a18.35,18.35,0,0,0-.49-4.26l7.48,1.59a17.26,17.26,0,0,0-2.09,8.42c0,7.49,4.31,13.56,9.62,13.56s9.61-6.07,9.61-13.56a18.57,18.57,0,0,0-.66-4.92L591,372.53l4.58,3.21Z"/><path d="M394.62,410.66,85.18,368.53a3.49,3.49,0,0,0-1,6.92l309.45,42.12a2.53,2.53,0,0,0,.47,0,3.49,3.49,0,0,0,.47-6.94Z"/><path d="M426.31,403.57,116.87,361.44a3.49,3.49,0,0,0-.94,6.92l309.44,42.13.48,0a3.49,3.49,0,0,0,.46-6.95Z"/><path d="M458,396.48,148.56,354.35a3.49,3.49,0,1,0-.94,6.92L457.06,403.4a3.87,3.87,0,0,0,.48,0,3.49,3.49,0,0,0,.46-6.95Z"/><path d="M489.7,389.39,180.25,347.27a3.49,3.49,0,1,0-.94,6.91l309.44,42.13.48,0a3.49,3.49,0,0,0,.47-6.95Z"/></svg>