<?xml version="1.0" encoding="UTF-8"?>
<!DOCTYPE svg PUBLIC "-//W3C//DTD SVG 1.1//EN" "http://www.w3.org/Graphics/SVG/1.1/DTD/svg11.dtd">
<!-- Creator: CorelDRAW 2019 (64 Bit) -->
<svg xmlns="http://www.w3.org/2000/svg" xml:space="preserve" width="221.721mm" height="243.681mm" version="1.1" style="shape-rendering:geometricPrecision; text-rendering:geometricPrecision; image-rendering:optimizeQuality; fill-rule:evenodd; clip-rule:evenodd"
viewBox="0 0 22172.08 24368.12"
 xmlns:xlink="http://www.w3.org/1999/xlink"
 xmlns:xodm="http://www.corel.com/coreldraw/odm/2003">
 <defs>
  <style type="text/css">
   <![CDATA[
    .fil0 {fill:black}
   ]]>
  </style>
 </defs>
 <g id="Camada_x0020_1">
  <metadata id="CorelCorpID_0Corel-Layer"/>
  <path class="fil0" d="M3161.77 3161.77c584.5,0 1058.33,473.83 1058.33,1058.33 0,584.5 -473.83,1058.33 -1058.33,1058.33 -584.5,0 -1058.33,-473.83 -1058.33,-1058.33 0,-584.5 473.83,-1058.33 1058.33,-1058.33zm489.48 12897.7l3641.86 0 -675.38 -1248.86c-336.5,-622.27 344.89,-1211.03 936.11,-1211.03l7037.93 0c593.24,0 1271.68,590.49 936.11,1211.03l-675.38 1248.86 3641.87 0 0 -5568.74c0,-311.82 -257.03,-568.85 -568.85,-568.85l-13705.41 0c-311.82,0 -568.86,257.02 -568.86,568.85l0 5568.74zm14843.12 1058.34l-14843.12 0 0 1469.16c0,311.83 257.03,568.86 568.86,568.86l13705.41 0c311.83,0 568.85,-257.04 568.85,-568.86l0 -1469.16zm-10174.74 -1058.34l5506.34 0c14.55,-62.44 63.59,-162.1 94.27,-218.84l707.69 -1308.61c-61.94,-19.32 -6427.98,-6.4 -7074.09,-6.4 -10.58,0 -22.89,2.27 -36.16,6.4 256.64,474.56 513.24,931.52 761.96,1412.28 21.77,42.09 32.46,82.93 39.99,115.17zm4878.18 -3271.42c90.18,114.73 70.29,280.86 -44.44,371.04 -114.73,90.18 -280.86,70.29 -371.04,-44.44 -497.95,-632.99 -223.34,-1056.68 41.29,-1464.93 162.84,-251.24 319.27,-492.59 -14.42,-808 -252.08,-237.72 110.14,-621.74 361.74,-384.48 653.69,617.88 379.98,1040.18 95.04,1479.8 -163.52,252.27 -333.22,514.08 -68.17,851.01zm-3933.42 0c90.18,114.73 70.29,280.86 -44.44,371.04 -114.73,90.18 -280.86,70.29 -371.04,-44.44 -497.95,-632.99 -223.34,-1056.68 41.29,-1464.93 162.84,-251.24 319.27,-492.59 -14.42,-808 -252.08,-237.72 110.14,-621.74 361.74,-384.48 653.69,617.88 379.98,1040.18 95.04,1479.8 -163.52,252.27 -333.22,514.08 -68.17,851.01zm1966.71 0c90.18,114.73 70.29,280.86 -44.44,371.04 -114.73,90.18 -280.86,70.29 -371.04,-44.44 -497.95,-632.99 -223.34,-1056.68 41.29,-1464.93 162.84,-251.24 319.27,-492.59 -14.42,-808 -252.08,-237.72 110.14,-621.74 361.74,-384.48 653.69,617.87 379.98,1040.18 95.04,1479.8 -163.52,252.27 -333.22,514.08 -68.17,851.01zm8197.93 9992.57c216.88,792.44 -386.84,1587.5 -1212.47,1587.5l-1137.71 0c-825.62,0 -1429.35,-795.06 -1212.47,-1587.5l-9587.14 0c216.88,792.44 -386.85,1587.5 -1212.47,1587.5l-1137.71 0c-825.63,0 -1429.35,-795.06 -1212.47,-1587.5l-1010.03 0c-939.6,0 -1706.56,-766.94 -1706.56,-1706.54l0 -18335.65c0,-953.54 777.17,-1733.01 1730.95,-1733.01l1378.8 0c-22.37,-545.52 418.86,-1005.42 964.84,-1005.42l3836.45 0c545.98,0 987.21,459.9 964.84,1005.42l4420.32 0c-22.37,-545.52 418.86,-1005.42 964.84,-1005.42l3836.45 0c545.98,0 987.21,459.9 964.84,1005.42l1378.8 0c953.78,0 1730.95,779.49 1730.95,1733.02l0 4511.15 -26.46 0 0 13824.46c0,939.61 -766.94,1706.57 -1706.56,1706.57l-1010.03 0zm-1212.47 52.92l-1137.71 0c-364.99,0 -364.99,555.62 0,555.62l1137.71 0c364.99,0 364.99,-555.62 0,-555.62zm-13149.79 0l-1137.71 0c-364.99,0 -364.99,555.62 0,555.62l1137.71 0c364.99,0 364.99,-555.62 0,-555.62zm-846.66 -13890.62l13705.41 0c852.37,0 1547.81,695.44 1547.81,1547.81l0 8096.24c0,852.36 -695.43,1547.82 -1547.81,1547.82l-13705.41 0c-852.38,0 -1547.82,-695.44 -1547.82,-1547.82l0 -8096.24c0,-852.38 695.45,-1547.81 1547.82,-1547.81zm-3294.07 -1693.33l0 13824.49c0,428.28 352.23,780.5 780.52,780.5l18732.5 0c428.29,0 780.52,-352.24 780.52,-780.53l0 -13824.46 -20293.54 0zm51.75 -978.96l20216.5 0 0 -3532.19c0,-413.37 -339.68,-754.06 -753.16,-754.06l-18710.18 0c-413.47,0 -753.16,340.69 -753.16,754.05l0 3532.2zm17992.83 -3108.86c584.5,0 1058.33,473.83 1058.33,1058.33 0,584.5 -473.83,1058.33 -1058.33,1058.33 -584.5,0 -1058.33,-473.83 -1058.33,-1058.33 0,-584.5 473.83,-1058.33 1058.33,-1058.33zm-6323.54 0c584.5,0 1058.33,473.83 1058.33,1058.33 0,584.5 -473.83,1058.33 -1058.33,1058.33 -584.5,0 -1058.33,-473.83 -1058.33,-1058.33 0,-584.5 473.83,-1058.33 1058.33,-1058.33zm-3161.77 0c584.5,0 1058.33,473.83 1058.33,1058.33 0,584.5 -473.83,1058.33 -1058.33,1058.33 -584.5,0 -1058.33,-473.83 -1058.33,-1058.33 0,-584.5 473.83,-1058.33 1058.33,-1058.33zm-3161.77 0c584.5,0 1058.33,473.83 1058.33,1058.33 0,584.5 -473.83,1058.33 -1058.33,1058.33 -584.5,0 -1058.33,-473.83 -1058.33,-1058.33 0,-584.5 473.83,-1058.33 1058.33,-1058.33z"/>
 </g>
</svg>
