<svg id="Camada_1" data-name="Camada 1" xmlns="http://www.w3.org/2000/svg" viewBox="0 0 686.26 464.93"><path d="M.09,109c-1.66,17.47,20,309.4,25.78,326s596.34,29.94,596.34,29.94V129.39C602.25,116.57.09,109,.09,109ZM54,364.86c-5.4-21.5-20.78-216.45-12.52-231.7,6.51-12,443.3,8.7,443.3,8.7s-21,230-34.91,255.22C441.2,396.58,58.61,383.21,54,364.86Zm546.87,37.42c-6.88,1-47.93,2.42-49.75,2.42s-6.88-8.29-15.17-9.1-51.17,2.23-51.17,2.23l36.85-252.67s66.15,1.7,72.29,2.71,12.41,1.21,12.41,18,1.21,225.48,1.21,225.48S607.74,401.26,600.87,402.28Z"/><circle cx="565.75" cy="321.67" r="28.17"/><circle cx="565.75" cy="223.09" r="28.17"/><polygon points="679.6 14.14 636.3 122.22 636.54 435.48 686.26 301.91 679.6 14.14"/><polygon points="153.96 0 668.79 14.14 624.35 110.89 10.07 95.65 153.96 0"/></svg>