<svg id="Camada_1" data-name="Camada 1" xmlns="http://www.w3.org/2000/svg" viewBox="0 0 628.5 690.75"><path d="M502.66,143.1c-3.22-5.76-20.74-33.84-80.71-84.56C356.63,3.29,323.47.29,319.91.13h-.31C215.18-2.3,152.05,32.56,149.42,34c-.39.22-.76.45-1.12.7L125,51a13.92,13.92,0,0,0-5.78,9.17l-7.1,43.64a13.73,13.73,0,0,0-.15,3.14l1.65,25.28a13.88,13.88,0,0,0-1.68,6.62v12.52a13.88,13.88,0,0,0,2.61,8.11l13.3,18.5c11.09,139,27.35,345.76,27.51,356,.14,8.15,1.14,14,3.17,18.52a20.22,20.22,0,0,0,2.22,3.82c14.23,42.38,39.1,77.17,45.93,86.27,3.81,12,11.69,20.71,15.47,24.36,3.37,4.56,12.73,11.39,46.55,20.47a13.75,13.75,0,0,0,7.42-.06l2.4-.68c9.17,3.32,19,4.11,26.4,4.11a91.63,91.63,0,0,0,11.17-.64,13.88,13.88,0,0,0,7.29-3.27l7.37-6.38c51.75-14.13,79.86-27.71,92.08-34.6l2.58,1.29a13.86,13.86,0,0,0,11.66.36c24.16-10.29,31.15-48.46,32.31-56,0-.2.05-.4.08-.6.37-3.48,37.9-348.21,39.56-362.89a53.39,53.39,0,0,1,2.38-11.5A128.9,128.9,0,0,0,516,194.58C519.52,170.17,505.81,147.84,502.66,143.1ZM319,27.91h0Zm-.5,0c1.25.17,9.24,1.55,24.18,9.16.5,4.23.72,7.86.53,8.25-.4.81-38.93,10.54-64.89,15s-73.81,12.37-85.16,13.18c-7.37.53-20-9.31-28-16.28,7-3.52,32-15,71-22.54,0,.19,0,.38,0,.57,0,9.56,10,17.31,22.37,17.31s22.37-7.75,22.37-17.31a13.87,13.87,0,0,0-1.54-6.31C291.52,28,304.6,27.59,318.46,27.9ZM242,647.45c-2-1.79-7.54-7.76-9.2-14.54a14,14,0,0,0-2.58-5.3c-.3-.37-29.68-38-44.06-83a14.05,14.05,0,0,0-2.53-4.62,42.88,42.88,0,0,1-.51-6.55c-.23-14.52-25.07-326.12-27.9-361.6a13.85,13.85,0,0,0-2.57-7l-12.95-18v-2.5a13.86,13.86,0,0,0,2-8.13l-1.92-29.55,4.95-30.45c11.49,19.19,32.13,53.34,39.31,62.36,5.75,7.22,22.94,25.31,38.22,41.08,16,29,37.81,75,37.81,93.59V655.79c-7.38-2.45-13.53-4.85-16.13-6.39A12.76,12.76,0,0,0,242,647.45Zm246.53-456.8a102,102,0,0,1-3.77,17.83,80.05,80.05,0,0,0-3.38,16.39c-1.66,14.55-38.22,350.47-39.55,362.71-1.56,9.85-6.15,24.14-11.6,30.92l-1.89-.94A13.6,13.6,0,0,0,414,618.73c-1.13.78-26.17,17.63-93.55,35.72a14,14,0,0,0-5.49,2.92l-6.35,5.49c-5.53.27-14.17,0-20.72-2.39V273.27c0-10.78-4.08-25.39-9.8-40.56,13,1.53,32.64,3.49,32.64,3.49C412.52,224.45,474,197.83,474,197.83,487.28,185,487.05,179,487.05,179a52.08,52.08,0,0,0-1.87-9.26C487.63,176,489.53,183.61,488.52,190.65Z"/></svg>