<?xml version="1.0" encoding="UTF-8"?>
<svg id="Camada_1" data-name="Camada 1" xmlns="http://www.w3.org/2000/svg" viewBox="0 0 47.83 28.02">
  <defs>
    <style>
      .cls-1 {
        fill: #fff;
      }

      .cls-1, .cls-2 {
        fill-rule: evenodd;
      }
    </style>
  </defs>
  <g id="_1818494268416" data-name=" 1818494268416">
    <path class="cls-2" d="m23.92,0C37.13,0,47.83,6.27,47.83,14.01s-10.71,14.01-23.92,14.01S0,21.75,0,14.01,10.71,0,23.92,0h0Z"/>
    <path class="cls-1" d="m30.11,1.95c9.48,1.49,16.43,6.33,16.43,12.06s-6.95,10.57-16.43,12.06c6.58-1.85,11.26-6.55,11.26-12.06S36.69,3.8,30.11,1.95h0Zm-12.39,24.12h0C8.24,24.58,1.29,19.74,1.29,14.01S8.24,3.44,17.72,1.95c-6.58,1.85-11.26,6.55-11.26,12.06s4.68,10.21,11.26,12.06Z"/>
    <path class="cls-1" d="m35.48,6.29c2.84,1.99,4.6,4.72,4.6,7.73s-1.75,5.73-4.6,7.73c.91-1.19,1.62-2.52,2.08-3.96-2.26,3.42-7.52,5.82-13.64,5.82s-11.37-2.4-13.64-5.82c.45,1.44,1.16,2.77,2.08,3.96-2.84-1.99-4.6-4.72-4.6-7.73s1.75-5.73,4.6-7.73c-.91,1.19-1.62,2.52-2.08,3.96,2.26-3.42,7.52-5.82,13.64-5.82s11.37,2.4,13.64,5.82c-.45-1.44-1.16-2.77-2.08-3.96h0Z"/>
    <g>
      <path class="cls-2" d="m23.92,26.95c-5.35,0-10.21-2.92-12.5-7.31,2.79,2.66,7.44,4.29,12.5,4.29s9.71-1.64,12.5-4.29c-2.29,4.39-7.15,7.31-12.5,7.31ZM11.42,8.38c2.29-4.39,7.15-7.31,12.5-7.31s10.21,2.92,12.5,7.31c-2.79-2.66-7.44-4.29-12.5-4.29s-9.71,1.64-12.5,4.29Z"/>
      <path d="m23.92,1.41c4.51,0,8.67,2.13,11.16,5.47-2.87-1.96-6.87-3.12-11.16-3.12s-8.29,1.16-11.16,3.12c2.49-3.34,6.64-5.47,11.16-5.47m11.16,19.74c-2.49,3.34-6.64,5.47-11.16,5.47s-8.67-2.13-11.16-5.47c2.87,1.96,6.87,3.12,11.16,3.12s8.29-1.16,11.16-3.12M23.92.74c-6.45,0-11.9,4.01-13.64,9.51,2.26-3.42,7.52-5.82,13.64-5.82s11.37,2.4,13.64,5.82c-1.74-5.5-7.19-9.51-13.64-9.51h0Zm13.64,17.04c-2.26,3.42-7.52,5.82-13.64,5.82s-11.37-2.4-13.64-5.82c1.74,5.5,7.19,9.51,13.64,9.51s11.9-4.01,13.64-9.51h0Z"/>
    </g>
    <path d="m13.74,20.12l.21-1.75h.55l.11.67c.02.1.03.2.04.29.01.09.02.18.03.27.02-.15.03-.28.04-.36.01-.09.02-.15.03-.2l.14-.67h.54l.18,1.75h-.43l-.05-.81s0-.05,0-.09c-.01-.21-.02-.39-.02-.52l-.28,1.42h-.31l-.26-1.43c0,.12,0,.29-.03.51,0,.05,0,.09,0,.11l-.07.81h-.42Zm2.7-.31h0c.11,0,.19-.05.24-.14.05-.09.08-.23.08-.42s-.03-.33-.08-.42c-.05-.09-.14-.14-.24-.14s-.19.05-.24.14c-.05.09-.08.23-.08.42s.03.33.08.42c.05.09.13.14.24.14Zm.75-.54h0c0,.27-.07.48-.2.63-.14.16-.32.24-.55.24s-.42-.08-.55-.24c-.13-.16-.2-.38-.2-.66s.07-.5.2-.66c.13-.16.32-.24.55-.24s.42.08.55.24c.13.16.2.39.2.68h0Zm-.33-1.5h0l-.44.44h-.2l.27-.44h.36Zm.91,2.35h0l-.61-1.75h.43l.25.79c.02.08.05.16.06.25.02.09.03.18.04.28,0-.09.02-.18.03-.26.02-.09.04-.17.06-.25l.24-.8h.44l-.6,1.75h-.36Zm.99,0h0v-1.75h.9v.32h-.48v.35h.44v.32h-.44v.41h.48v.34h-.9Zm1.13,0h0v-1.75h.43v1.75h-.43Zm.65-.06h0v-.36c.05.04.11.07.16.09.05.02.1.03.16.03.07,0,.13-.02.17-.05.04-.03.06-.07.06-.13,0-.07-.06-.14-.17-.22-.03-.02-.05-.04-.07-.05-.13-.1-.22-.18-.27-.26-.05-.08-.07-.16-.07-.26,0-.15.05-.27.16-.37.1-.09.24-.14.41-.14.06,0,.12,0,.18.02.06.01.12.04.18.06v.31c-.07-.03-.13-.05-.17-.06-.04-.01-.08-.02-.11-.02-.06,0-.11.02-.15.05s-.06.07-.06.12c0,.04.01.09.04.13.03.04.1.1.2.17.14.1.23.18.28.25s.06.15.06.24c0,.16-.05.28-.16.38-.11.09-.26.14-.45.14-.07,0-.14,0-.2-.02-.06-.01-.12-.03-.17-.06h0Zm4.27.04h0s-.08.02-.12.03c-.04,0-.08.01-.12.01-.27,0-.49-.08-.66-.24-.17-.16-.25-.37-.25-.64s.08-.49.25-.66c.17-.17.38-.25.65-.25.05,0,.1,0,.14.01.04,0,.09.02.13.03v.33s-.08-.02-.12-.03c-.04,0-.08,0-.11,0-.14,0-.26.05-.35.15-.09.1-.13.24-.13.41s.05.3.14.4.21.15.35.15c.04,0,.07,0,.11-.01.04,0,.08-.02.11-.03v.35h0Zm.86-.29h0c.11,0,.19-.05.24-.14.05-.09.08-.23.08-.42s-.03-.33-.08-.42c-.05-.09-.14-.14-.24-.14s-.19.05-.24.14c-.05.09-.08.23-.08.42s.03.33.08.42c.05.09.13.14.24.14Zm.75-.54h0c0,.27-.07.48-.2.63-.14.16-.32.24-.55.24s-.42-.08-.55-.24c-.13-.16-.2-.38-.2-.66s.07-.5.2-.66c.13-.16.32-.24.55-.24s.42.08.55.24c.13.16.2.39.2.68h0Zm.19.85h0v-1.75h.42v1.41h.48v.34h-.91Zm2.09-.02h0s-.08.02-.12.03c-.04,0-.08.01-.12.01-.27,0-.49-.08-.66-.24-.17-.16-.25-.37-.25-.64s.08-.49.25-.66c.17-.17.38-.25.65-.25.05,0,.1,0,.14.01.04,0,.09.02.13.03v.33s-.08-.02-.12-.03c-.04,0-.08,0-.11,0-.14,0-.26.05-.35.15-.09.1-.13.24-.13.41s.05.3.14.4.21.15.35.15c.04,0,.07,0,.11-.01.04,0,.08-.02.11-.03v.35h0Zm.19.02h0v-1.75h.42v.65h.47v-.65h.42v1.75h-.42v-.76h-.47v.76h-.42Zm2.25-.31h0c.11,0,.19-.05.24-.14.05-.09.08-.23.08-.42s-.03-.33-.08-.42c-.05-.09-.14-.14-.24-.14s-.19.05-.24.14c-.05.09-.08.23-.08.42s.03.33.08.42c.05.09.13.14.24.14Zm.75-.54h0c0,.27-.07.48-.2.63-.14.16-.32.24-.55.24s-.42-.08-.55-.24c-.13-.16-.2-.38-.2-.66s.07-.5.2-.66c.13-.16.32-.24.55-.24s.42.08.55.24c.13.16.2.39.2.68h0Zm-.36-1.44h0c-.02.1-.05.18-.09.22-.04.05-.1.07-.17.07-.01,0-.03,0-.04,0-.01,0-.03,0-.05,0l-.11-.03s-.03,0-.04,0c-.01,0-.03,0-.04,0-.03,0-.05,0-.07.02-.02.01-.03.04-.04.07h-.14c.02-.1.05-.17.09-.21.04-.05.1-.07.16-.07.02,0,.03,0,.05,0,.02,0,.04,0,.06.01l.11.03s.02,0,.03,0c.01,0,.02,0,.03,0,.03,0,.05,0,.07-.02.02-.02.03-.04.04-.08h.13Zm.54,2.29h0v-1.75h.9v.32h-.48v.35h.44v.32h-.44v.41h.48v.34h-.9Zm1.04-.06h0v-.36c.05.04.11.07.16.09.05.02.1.03.16.03.07,0,.13-.02.17-.05.04-.03.06-.07.06-.13,0-.07-.06-.14-.17-.22-.03-.02-.05-.04-.07-.05-.13-.1-.22-.18-.27-.26-.05-.08-.07-.16-.07-.26,0-.15.05-.27.16-.37.1-.09.24-.14.41-.14.06,0,.12,0,.18.02.06.01.12.04.18.06v.31c-.07-.03-.13-.05-.17-.06-.04-.01-.08-.02-.11-.02-.06,0-.11.02-.15.05-.04.03-.06.07-.06.12,0,.04.01.09.04.13.03.04.1.1.2.17.14.1.23.18.28.25s.06.15.06.24c0,.16-.05.28-.16.38-.11.09-.26.14-.45.14-.07,0-.14,0-.2-.02-.06-.01-.12-.03-.17-.06h0Zm-10.84.06h0v-1.17h.6v.22h-.32v.24h.29v.21h-.29v.27h.32v.23h-.6Z"/>
    <g>
      <path class="cls-2" d="m12.03,11.54h.13c.15,0,.26.05.33.16.05.08.08.28.08.6v3.01l-2.3-3.92h-1.02v.14c.11,0,.19.01.24.03.11.05.19.1.25.16.06.06.14.17.25.35v3.64c0,.29-.02.48-.06.56-.07.13-.18.2-.34.2h-.13v.14h1.31v-.14h-.13c-.15,0-.26-.05-.33-.16-.05-.08-.07-.28-.07-.6v-3.22l2.48,4.21h.1v-4.41c0-.29.02-.48.06-.56.07-.13.18-.2.34-.2h.13v-.14h-1.31v.14h0Z"/>
      <path class="cls-2" d="m17.11,16.31c-.09-.1-.18-.33-.29-.68l-1.31-4.35h-.1l-1.33,4.3c-.11.38-.22.63-.31.75-.05.06-.15.11-.31.15v.14h1.19v-.14c-.18-.02-.3-.06-.35-.12-.05-.06-.08-.13-.08-.21,0-.1.03-.25.09-.46l.26-.83h1.46l.23.75c.07.24.11.42.11.54,0,.09-.03.16-.08.22-.05.06-.15.09-.3.11v.14h1.49v-.14c-.15-.01-.27-.07-.36-.18h0Zm-2.45-1.72h0l.66-2.11.64,2.11h-1.29Z"/>
      <path class="cls-2" d="m20.43,16.19c-.19.15-.4.22-.65.22-.28,0-.53-.09-.75-.28-.22-.19-.38-.45-.49-.8-.11-.35-.16-.76-.16-1.23,0-.57.06-1.05.17-1.44.12-.39.27-.67.48-.84.2-.18.43-.26.68-.26.3,0,.55.12.77.35.21.23.38.62.49,1.15h.09l-.09-1.78h-.1c-.02.12-.05.22-.1.29-.04.05-.08.07-.13.07-.03,0-.09-.03-.17-.09-.26-.18-.53-.28-.81-.28-.35,0-.67.12-.97.36-.29.24-.53.58-.7,1.02-.17.44-.25.92-.25,1.44,0,.65.13,1.21.38,1.69.34.64.83.96,1.45.96.35,0,.65-.11.9-.32.25-.22.47-.56.66-1.02l-.09-.08c-.22.43-.43.72-.62.86h0Z"/>
      <path class="cls-2" d="m21.47,11.54h.13c.09,0,.17.03.26.09.06.05.09.1.11.17.02.08.04.26.04.52v3.38c0,.31-.02.51-.07.59-.07.13-.18.19-.34.19h-.13v.14h1.62v-.14h-.14c-.09,0-.17-.03-.25-.09-.06-.05-.1-.1-.12-.17-.02-.08-.04-.26-.04-.52v-3.38c0-.31.02-.51.07-.59.07-.12.18-.19.34-.19h.14v-.14h-1.62v.14h0Z"/>
      <path class="cls-2" d="m25.3,11.28c-.49,0-.92.23-1.27.68-.41.53-.61,1.2-.61,2.03s.18,1.47.53,1.99c.35.51.79.77,1.31.77s.95-.26,1.31-.79c.36-.52.54-1.18.54-1.98s-.18-1.41-.54-1.93c-.36-.52-.78-.77-1.27-.77h0Zm.83,4.62h0c-.23.38-.52.57-.88.57-.33,0-.6-.17-.8-.52-.26-.46-.39-1.12-.39-1.97s.13-1.46.38-1.9c.2-.35.47-.52.81-.52.36,0,.64.17.84.52.25.44.38,1.11.38,2,0,.83-.12,1.43-.35,1.81Z"/>
      <path class="cls-2" d="m30.05,11.54h.13c.15,0,.26.05.33.16.05.08.08.28.08.6v3.01l-2.3-3.92h-1.02v.14c.11,0,.19.01.24.03.11.05.19.1.25.16.06.06.14.17.25.35v3.64c0,.29-.02.48-.06.56-.07.13-.18.2-.34.2h-.13v.14h1.31v-.14h-.13c-.15,0-.26-.05-.33-.16-.05-.08-.07-.28-.07-.6v-3.22l2.48,4.21h.1v-4.41c0-.29.02-.48.06-.56.07-.13.18-.2.34-.2h.13v-.14h-1.31v.14h0Z"/>
      <path class="cls-2" d="m35.13,16.31c-.09-.1-.18-.33-.29-.68l-1.31-4.35h-.1l-1.33,4.3c-.11.38-.22.63-.31.75-.05.06-.15.11-.31.15v.14h1.19v-.14c-.18-.02-.3-.06-.35-.12-.05-.06-.08-.13-.08-.21,0-.1.03-.25.09-.46l.26-.83h1.46l.23.75c.07.24.11.42.11.54,0,.09-.03.16-.08.22-.05.06-.15.09-.3.11v.14h1.49v-.14c-.15-.01-.27-.07-.36-.18h0Zm-2.45-1.72h0l.66-2.11.64,2.11h-1.29,0Z"/>
      <path class="cls-2" d="m38.81,15.18c-.1.32-.19.56-.29.71-.1.15-.2.26-.32.31-.12.06-.32.09-.61.09h-.28c-.24,0-.39-.01-.43-.04-.05-.03-.08-.07-.1-.12-.03-.08-.04-.23-.04-.44v-3.28c0-.31.02-.51.04-.59.03-.08.08-.15.17-.21s.22-.08.42-.08v-.14h-1.71v.14h.14c.14,0,.25.06.32.17.05.08.08.29.08.61v3.37c0,.3-.02.49-.06.57-.07.14-.18.22-.34.22h-.14v.14h2.92l.32-1.42-.09-.03h0Z"/>
    </g>
  </g>
</svg>