<svg id="Camada_1" data-name="Camada 1" xmlns="http://www.w3.org/2000/svg" viewBox="0 0 628.5 690.75"><path d="M529.16,67.55a11.87,11.87,0,0,0-9.22-11.27C479.22,47,436,40.6,388.1,36.83,379.53,15.25,350.11,0,314.25,0S249,15.25,240.4,36.83C192.5,40.6,149.28,47,108.56,56.28a11.87,11.87,0,0,0-9.22,11.27L85.11,643.49A11.87,11.87,0,0,0,97,655.64c20,0,34.48,4.84,52.88,11,30.6,10.18,72.51,24.14,164.4,24.14s133.8-14,164.4-24.14c18.4-6.13,32.93-11,52.88-11a11.87,11.87,0,0,0,11.86-12.15Zm-80.65,189c-15.88,3.2-31.93,5.63-47.92,7.23-6-10.58-12.66-18.92-20.53-25.57,23.33-1.85,46.19-4.61,68.45-8.25ZM265.85,254.6c19.07-2.78,77.73-2.78,96.8,0a59.23,59.23,0,0,1,11.8,12.25c-29.39,1.43-91,1.43-120.4,0A59.24,59.24,0,0,1,265.85,254.6Zm-37.94,9.15c-16-1.6-32-4-47.92-7.23V229.93c22.26,3.64,45.12,6.4,68.45,8.25C240.57,244.83,233.88,253.17,227.91,263.75ZM180,280.69a512.38,512.38,0,0,0,51.22,7.18,18.12,18.12,0,0,0,2.77.81,57.66,57.66,0,0,0,6.39.91c4.43.44,10.73.82,18.73,1.13,14.58.56,34.16.87,55.15.87s40.57-.31,55.15-.87c8-.31,14.3-.69,18.73-1.13a57.66,57.66,0,0,0,6.39-.91,18.12,18.12,0,0,0,2.77-.81,512.38,512.38,0,0,0,51.22-7.18V597.42c-31.93-18.43-86.09-27-134.3-27.17C266.07,570.4,211.92,579,180,597.42Zm268.52-74.8a847.81,847.81,0,0,1-134.26,11.39A847.81,847.81,0,0,1,180,205.89V79c25.55-3.69,93.78-12.93,134.17-12.61h.18C354.69,66.1,423,75.34,448.51,79ZM314.21,594c53.52.17,95.55,10,118.75,21.94-37.6,5.66-74.13,5.62-109.66,5.58H305.2c-35.54,0-72.06.08-109.66-5.58C218.74,604,260.75,594.14,314.21,594Zm42.07-559.2-6.79-.35-4.3-.2h0q-5.64-.24-11.31-.44l-1.54-.06-2.63-.09h0c-5.54-.18-10.51-.32-15.2-.42H314c-4.69.1-9.66.24-15.2.42h0l-2.63.09-1.54.06h0q-5.67.19-11.31.44h0l-4.3.2-6.79.35c9.37-6.33,24.29-11.05,42-11.05S346.91,28.44,356.28,34.77ZM471.16,644.1C440.48,654.31,402.29,667,314.25,667S188,654.31,157.34,644.1c-16.12-5.37-30.43-10.14-48.23-11.67l13.72-555q16.39-3.54,33.44-6.44V622.89c0,.14,0,.29,0,.43s0,.46,0,.69v.07c0,.13,0,.26,0,.39s.06.45.11.68v.06c0,.17.08.34.12.51s.08.35.13.53l0,.08c.05.19.12.37.19.56s.09.28.15.42,0,.07,0,.11c.08.19.17.37.26.56s.1.23.16.35a1.09,1.09,0,0,1,.08.15c.08.15.17.3.26.44l.08.14c.05.08.09.17.15.25a1,1,0,0,0,.11.17l.24.34.12.16.19.27a1.15,1.15,0,0,1,.14.17l.25.27.07.09c.11.11.21.24.32.35l.13.14.28.26c.15.14.3.29.46.42l.11.09.29.23.55.4c.13.1.27.18.41.27s.36.23.55.33l.15.09.31.15.07,0,.49.24.18.08.5.18h0l.4.15.19.06.64.16.27.08.12,0,.09,0h.09c48.84,10.76,94.85,10.72,139.35,10.66h27.07c41.73,0,84.85-.64,130.43-10.69l.1,0h0c.34-.07.67-.16,1-.26l.18-.06.2-.07.6-.22.28-.12.2-.09.48-.24.33-.17.07,0,.3-.18.46-.29.15-.1c.18-.13.36-.26.53-.4s.21-.15.3-.23L468,632c.16-.13.3-.28.45-.41l.29-.27.14-.14.3-.34.09-.11.24-.26.14-.18c.06-.07.11-.16.17-.24a1.33,1.33,0,0,0,.14-.19l.24-.32.12-.19.12-.21.1-.17c.09-.15.18-.29.26-.44l.08-.16c.06-.11.1-.22.16-.34s.18-.37.26-.56c0,0,0-.08,0-.11s.1-.27.15-.41.14-.38.19-.57l0-.08c.05-.17.09-.35.13-.53s.09-.33.12-.51l0-.06c0-.22.07-.45.1-.68s0-.26.05-.39,0-.05,0-.07c0-.22,0-.45,0-.68s0-.29,0-.44V71q17.06,2.91,33.44,6.44l13.72,555C501.59,634,487.28,638.73,471.16,644.1Z"/><path d="M264.91,137.58a49.34,49.34,0,1,0,49.34-49.34A49.39,49.39,0,0,0,264.91,137.58Zm75,0A25.62,25.62,0,1,1,314.25,112,25.65,25.65,0,0,1,339.87,137.58Z"/><path d="M314.63,532.88C353,531.64,375,513.19,375,482.26c0-21.83-11.36-42.18-23.39-63.73-10.07-18-20.48-36.68-25.83-58.24a11.86,11.86,0,0,0-23,0c-5.35,21.56-15.76,40.21-25.83,58.24-12,21.55-23.38,41.9-23.38,63.73,0,30.93,22,49.38,60.34,50.62h.76Zm-37.38-50.62c0-15.65,9.44-32.57,20.37-52.16,5.51-9.86,11.4-20.42,16.63-31.86,5.23,11.44,11.12,22,16.63,31.86,10.93,19.59,20.37,36.51,20.37,52.16,0,7,0,25.58-37,26.9C277.25,507.84,277.25,489.26,277.25,482.26Z"/></svg>