<?xml version="1.0" encoding="UTF-8"?>
<!DOCTYPE svg PUBLIC "-//W3C//DTD SVG 1.1//EN" "http://www.w3.org/Graphics/SVG/1.1/DTD/svg11.dtd">
<!-- Creator: CorelDRAW 2019 (64 Bit) -->
<svg xmlns="http://www.w3.org/2000/svg" xml:space="preserve" width="150.635mm" height="88.2438mm" version="1.1" style="shape-rendering:geometricPrecision; text-rendering:geometricPrecision; image-rendering:optimizeQuality; fill-rule:evenodd; clip-rule:evenodd"
viewBox="0 0 15063.52 8824.38"
 xmlns:xlink="http://www.w3.org/1999/xlink"
 xmlns:xodm="http://www.corel.com/coreldraw/odm/2003">
 <defs>
  <style type="text/css">
   <![CDATA[
    .fil0 {fill:#002781}
    .fil3 {fill:#009440}
    .fil1 {fill:#FFCB00}
    .fil2 {fill:white}
    .fil4 {fill:#002781;fill-rule:nonzero}
   ]]>
  </style>
 </defs>
 <g id="Camada_x0020_1">
  <metadata id="CorelCorpID_0Corel-Layer"/>
  <g id="_1818494268416">
   <path class="fil0" d="M7531.76 -0.06c4159.65,0 7531.72,1975.44 7531.72,4412.25 0,2436.81 -3372.07,4412.24 -7531.72,4412.24 -4159.65,0 -7531.72,-1975.43 -7531.72,-4412.24 0,-2436.81 3372.07,-4412.25 7531.72,-4412.25z"/>
   <path class="fil1" d="M9482.58 614.29c2985.9,470.22 5173.44,1992.79 5173.44,3797.9 0,1805.09 -2187.51,3327.63 -5173.36,3797.86 2071.91,-581.8 3544.95,-2062.83 3544.95,-3797.86 0,-1735.05 -1473.08,-3216.11 -3545.03,-3797.9zm-3901.73 7595.76l0 0c-2985.85,-470.23 -5173.35,-1992.77 -5173.35,-3797.86 0,-1805.11 2187.54,-3327.68 5173.43,-3797.9 -2071.94,581.79 -3545.03,2062.85 -3545.03,3797.9 0,1735.03 1473.05,3216.06 3544.95,3797.86z"/>
   <path class="fil2" d="M11172.87 1979.36c895.5,627.89 1447.65,1486.25 1447.65,2432.83 0,946.59 -552.16,1804.94 -1447.66,2432.84 287.45,-374.21 510.51,-794.43 653.7,-1246.66 -713.07,1077.49 -2367.72,1832.72 -4294.8,1832.72 -1927.09,0 -3581.73,-755.23 -4294.8,-1832.72 143.18,452.23 366.24,872.45 653.7,1246.66 -895.5,-627.89 -1447.66,-1486.25 -1447.66,-2432.84 0,-946.58 552.15,-1804.94 1447.64,-2432.83 -287.45,374.2 -510.51,794.42 -653.69,1246.64 713.07,-1077.49 2367.72,-1832.71 4294.81,-1832.71 1927.08,0 3581.74,755.22 4294.8,1832.71 -143.18,-452.22 -366.23,-872.44 -653.69,-1246.64z"/>
   <path class="fil3" d="M7531.76 232.17c2031.32,0 3746.89,1263.28 4294.8,2993.83 -713.07,-1077.49 -2367.71,-1832.71 -4294.8,-1832.71 -1927.09,0 -3581.74,755.22 -4294.8,1832.71 547.91,-1730.55 2263.48,-2993.83 4294.8,-2993.83zm4294.8 5366.2l0 0c-547.92,1730.55 -2263.49,2993.83 -4294.8,2993.83 -2031.32,0 -3746.88,-1263.28 -4294.8,-2993.83 713.07,1077.49 2367.71,1832.72 4294.8,1832.72 1927.08,0 3581.73,-755.23 4294.8,-1832.72z"/>
   <path class="fil4" d="M4327.36 6336.48l65.7 -550.07 172.31 0 34.81 209.85c5.17,31.89 9.56,62.49 13.17,91.8 3.45,29.19 6.27,57.61 8.47,85.25 5.48,-48.47 10.19,-86.66 13.95,-114.69 3.92,-28.03 7.06,-48.73 9.41,-62.36l43.27 -209.85 170.44 0 56.44 550.07 -135.46 0 -14.27 -255.49c-0.32,-6.04 -0.79,-15.04 -1.42,-27.13 -3.91,-66.73 -5.95,-121.51 -5.95,-164.2l-87.34 446.82 -96.9 0 -82.16 -449.9c0,37.41 -2.82,91.03 -8.31,160.6 -1.25,15.81 -2.03,27.51 -2.66,35.35l-20.7 253.95 -132.8 0zm849.88 -97.98l0 0c34.18,0 59.74,-14.66 76.83,-44.1 16.93,-29.32 25.4,-73.55 25.4,-132.57 0,-59.53 -8.47,-104.02 -25.4,-133.34 -17.09,-29.44 -42.65,-44.1 -76.83,-44.1 -34.34,0 -59.9,14.66 -76.67,43.85 -16.78,29.31 -25.25,73.8 -25.25,133.59 0,59.54 8.47,103.9 25.25,132.96 16.77,29.18 42.33,43.71 76.67,43.71zm235.82 -168.95l0 0c0,83.83 -21.48,150.44 -64.29,199.81 -42.96,49.38 -100.19,74.06 -171.84,74.06 -74.17,0 -131.87,-24.81 -173.1,-74.44 -41.4,-49.51 -62.09,-118.55 -62.09,-207.02 0,-88.08 20.85,-157.25 62.71,-207.4 41.87,-50.02 99.25,-75.09 172.48,-75.09 73.53,0 131.23,25.59 173.25,76.89 41.87,51.18 62.88,122.28 62.88,213.19zm-105.37 -472.92l0 0 -137.04 139.64 -61.46 0 85.77 -139.64 112.73 0zm285.27 739.85l0 0 -191.13 -550.07 135.47 0 79.02 249.06c7.69,24.31 14.27,50.28 19.6,77.92 5.33,27.65 9.57,56.71 12.55,87.05 2.19,-28.16 5.8,-55.8 10.82,-83.06 5.01,-27.26 11.44,-53.75 19.12,-79.72l77.15 -251.25 139.23 0 -189.72 550.07 -112.11 0zm313.02 0l0 0 0 -550.07 282.23 0 0 101.84 -152.4 0 0 111.09 138.29 0 0 101.07 -138.29 0 0 128.83 152.4 0 0 107.24 -282.23 0zm354.73 0l0 0 0 -550.07 136.41 0 0 550.07 -136.41 0zm204.21 -19.16l0 0 0 -114.31c16.93,12.09 33.39,21.09 49.7,27.14 16.31,6.04 32.77,9.12 49.23,9.12 22.74,0 40.61,-4.88 53.63,-14.65 13.01,-9.78 19.6,-23.15 19.6,-39.99 0,-20.83 -17.72,-43.46 -53,-67.89 -9.88,-6.69 -17.25,-11.96 -22.11,-15.82 -41.08,-30.09 -69.14,-57.09 -84.51,-81.13 -15.21,-23.92 -22.89,-51.05 -22.89,-81.39 0,-47.45 16.3,-85.77 48.92,-115.08 32.61,-29.19 75.26,-43.85 127.94,-43.85 18.66,0 37,2.19 55.19,6.56 18.35,4.37 37.48,11.18 57.7,20.44l0 97.21c-23.52,-9.39 -41.86,-15.82 -54.88,-19.42 -13.01,-3.47 -24.61,-5.27 -34.65,-5.27 -19.28,0 -35.12,5.02 -47.35,14.92 -12.23,9.9 -18.34,22.88 -18.34,38.96 0,14.14 4.54,27.26 13.79,39.47 9.25,12.22 30.74,30.22 64.45,54.13 45,31.63 74,57.99 86.86,78.95 12.86,20.96 19.29,46.29 19.29,75.86 0,50.02 -17.25,89.63 -51.75,118.56 -34.49,29.06 -81.53,43.58 -140.95,43.58 -22.74,0 -43.59,-2.18 -62.72,-6.42 -19.13,-4.25 -36.85,-10.8 -53.15,-19.68zm1343.16 13.25l0 0c-12.86,4.24 -25.87,7.46 -38.88,9.64 -13.02,2.19 -26.03,3.21 -39.2,3.21 -85.61,0 -155.07,-25.45 -208.53,-76.5 -53.46,-50.92 -80.28,-117.78 -80.28,-200.33 0,-85.89 26.19,-155.33 78.4,-208.04 52.2,-52.72 120.57,-79.08 204.76,-79.08 15.68,0 30.42,1.03 44.22,3.21 13.8,2.06 26.97,5.41 39.51,9.91l0 102.6c-12.86,-4.24 -25.4,-7.33 -37.47,-9.38 -12.08,-1.93 -23.99,-2.96 -35.6,-2.96 -44.84,0 -81.06,16.2 -108.97,48.6 -27.91,32.41 -41.86,75.35 -41.86,128.84 0,51.43 14.27,93.09 42.96,124.98 28.69,31.89 65.54,47.83 110.54,47.83 11.45,0 23.05,-1.15 34.81,-3.34 11.76,-2.31 23.67,-5.53 35.59,-9.77l0 110.58zm272.25 -92.07l0 0c34.19,0 59.74,-14.66 76.83,-44.1 16.94,-29.32 25.4,-73.55 25.4,-132.57 0,-59.53 -8.46,-104.02 -25.4,-133.34 -17.09,-29.44 -42.64,-44.1 -76.83,-44.1 -34.33,0 -59.89,14.66 -76.67,43.85 -16.77,29.31 -25.24,73.8 -25.24,133.59 0,59.54 8.47,103.9 25.24,132.96 16.78,29.18 42.34,43.71 76.67,43.71zm235.82 -168.95l0 0c0,83.83 -21.48,150.44 -64.28,199.81 -42.96,49.38 -100.19,74.06 -171.85,74.06 -74.16,0 -131.86,-24.81 -173.1,-74.44 -41.39,-49.51 -62.09,-118.55 -62.09,-207.02 0,-88.08 20.85,-157.25 62.72,-207.4 41.86,-50.02 99.25,-75.09 172.47,-75.09 73.54,0 131.24,25.59 173.26,76.89 41.86,51.18 62.87,122.28 62.87,213.19zm59.33 266.93l0 0 0 -550.07 132.65 0 0 442.83 152.4 0 0 107.24 -285.05 0zm659.38 -5.91l0 0c-12.86,4.24 -25.87,7.46 -38.89,9.64 -13.01,2.19 -26.02,3.21 -39.19,3.21 -85.61,0 -155.07,-25.45 -208.54,-76.5 -53.47,-50.92 -80.28,-117.78 -80.28,-200.33 0,-85.89 26.19,-155.33 78.4,-208.04 52.21,-52.72 120.57,-79.08 204.77,-79.08 15.68,0 30.42,1.03 44.22,3.21 13.8,2.06 26.97,5.41 39.51,9.91l0 102.6c-12.86,-4.24 -25.4,-7.33 -37.47,-9.38 -12.08,-1.93 -23.99,-2.96 -35.6,-2.96 -44.84,0 -81.06,16.2 -108.97,48.6 -27.91,32.41 -41.86,75.35 -41.86,128.84 0,51.43 14.27,93.09 42.96,124.98 28.69,31.89 65.54,47.83 110.54,47.83 11.44,0 23.05,-1.15 34.81,-3.34 11.76,-2.31 23.67,-5.53 35.59,-9.77l0 110.58zm59.33 5.91l0 0 0 -550.07 132.65 0 0 203.67 149.58 0 0 -203.67 133.59 0 0 550.07 -133.59 0 0 -239.16 -149.58 0 0 239.16 -132.65 0zm709.86 -97.98l0 0c34.19,0 59.74,-14.66 76.83,-44.1 16.94,-29.32 25.4,-73.55 25.4,-132.57 0,-59.53 -8.46,-104.02 -25.4,-133.34 -17.09,-29.44 -42.64,-44.1 -76.83,-44.1 -34.33,0 -59.89,14.66 -76.67,43.85 -16.77,29.31 -25.24,73.8 -25.24,133.59 0,59.54 8.47,103.9 25.24,132.96 16.78,29.18 42.34,43.71 76.67,43.71zm235.82 -168.95l0 0c0,83.83 -21.48,150.44 -64.28,199.81 -42.96,49.38 -100.19,74.06 -171.85,74.06 -74.16,0 -131.86,-24.81 -173.1,-74.44 -41.39,-49.51 -62.09,-118.55 -62.09,-207.02 0,-88.08 20.85,-157.25 62.72,-207.4 41.86,-50.02 99.25,-75.09 172.47,-75.09 73.54,0 131.24,25.59 173.26,76.89 41.86,51.18 62.87,122.28 62.87,213.19zm-111.95 -454.41l0 0c-5.17,32.15 -14.27,55.42 -27.44,69.95 -13.01,14.53 -30.73,21.86 -53.46,21.86 -4.39,0 -8.78,-0.26 -13.33,-0.9 -4.7,-0.64 -9.57,-1.67 -14.74,-2.83l-34.96 -10.28c-4.24,-1.16 -8.63,-2.19 -13.18,-2.83 -4.39,-0.65 -8.46,-0.9 -12.07,-0.9 -8.62,0 -15.52,2.31 -21.01,6.81 -5.33,4.5 -9.72,11.96 -13.01,22.5l-43.28 0c6.12,-30.09 15.68,-52.33 28.7,-66.86 13.01,-14.53 30.1,-21.86 51.27,-21.86 5.01,0 10.19,0.39 15.83,1.29 5.8,0.9 11.76,2.31 18.19,4.37l34.49 9c3.46,1.03 6.75,1.8 10.2,2.31 3.29,0.52 6.58,0.78 9.56,0.78 9.25,0 16.78,-2.57 22.42,-7.59 5.65,-5.01 10.2,-13.24 13.49,-24.82l42.33 0zm171.28 721.34l0 0 0 -550.07 282.23 0 0 101.84 -152.4 0 0 111.09 138.29 0 0 101.07 -138.29 0 0 128.83 152.4 0 0 107.24 -282.23 0zm328.39 -19.16l0 0 0 -114.31c16.93,12.09 33.39,21.09 49.7,27.14 16.31,6.04 32.77,9.12 49.23,9.12 22.74,0 40.61,-4.88 53.63,-14.65 13.01,-9.78 19.6,-23.15 19.6,-39.99 0,-20.83 -17.72,-43.46 -53,-67.89 -9.88,-6.69 -17.25,-11.96 -22.11,-15.82 -41.08,-30.09 -69.14,-57.09 -84.51,-81.13 -15.21,-23.92 -22.89,-51.05 -22.89,-81.39 0,-47.45 16.31,-85.77 48.92,-115.08 32.61,-29.19 75.26,-43.85 127.94,-43.85 18.66,0 37.01,2.19 55.19,6.56 18.35,4.37 37.48,11.18 57.7,20.44l0 97.21c-23.51,-9.39 -41.86,-15.82 -54.87,-19.42 -13.02,-3.47 -24.62,-5.27 -34.66,-5.27 -19.28,0 -35.12,5.02 -47.35,14.92 -12.23,9.9 -18.34,22.88 -18.34,38.96 0,14.14 4.55,27.26 13.8,39.47 9.25,12.22 30.73,30.22 64.44,54.13 45,31.63 74,57.99 86.86,78.95 12.86,20.96 19.29,46.29 19.29,75.86 0,50.02 -17.25,89.63 -51.74,118.56 -34.5,29.06 -81.54,43.58 -140.96,43.58 -22.74,0 -43.59,-2.18 -62.72,-6.42 -19.13,-4.25 -36.85,-10.8 -53.15,-19.68zm-3414.71 19.16l0 0 0 -367.34 188.47 0 0 68 -101.78 0 0 74.19 92.36 0 0 67.5 -92.36 0 0 86.04 101.78 0 0 71.61 -188.47 0z"/>
   <g>
    <path class="fil0" d="M3788.43 3634.01l41.22 0c46.59,0 80.64,16.99 102.44,50.97 16.13,24.86 24.5,88.26 24.5,189.36l0 949.32 -725.5 -1234.82 -321.99 0 0 45.17c34.35,0 60.04,3.73 77.06,10.78 34.35,15.32 60.34,31.9 78.26,49.72 17.62,17.82 43.91,54.69 78.25,110.63l0 1144.9c0,91.99 -6.27,151.24 -19.11,176.94 -21.21,42.26 -57.05,63.4 -107.83,63.4l-40.92 0 0 44.75 412.78 0 0 -44.75 -41.81 0c-46,0 -80.35,-16.99 -102.45,-50.97 -15.83,-25.28 -23.59,-88.26 -23.59,-189.37l0 -1013.95 782.24 1325.56 31.67 0 0 -1387.31c0,-92.4 6.27,-151.24 19.11,-177.35 20.91,-41.85 56.46,-62.98 106.63,-62.98l42.11 0 0 -45.17 -413.07 0 0 45.17z"/>
    <path class="fil0" d="M5387.58 5134.85c-27.18,-32.74 -57.35,-104.01 -90.5,-214.23l-413.08 -1369.07 -30.46 0 -417.57 1354.57c-36.14,118.92 -68.99,198.06 -98.86,236.6 -14.64,19.48 -46.59,35.22 -96.18,47.66l0 44.75 373.66 0 0 -44.75c-57.35,-5.81 -94.39,-18.24 -111.71,-37.3 -17.03,-19.06 -25.69,-41.02 -25.69,-65.89 0,-31.9 9.86,-79.55 29.87,-143.37l80.34 -259.81 459.38 0 71.69 236.61c23.29,77.07 35.24,133.01 35.24,168.65 0,26.93 -8.36,49.72 -25.09,67.95 -16.73,18.65 -48.69,29.84 -95.88,33.16l0 44.75 468.34 0 0 -44.75c-48.39,-4.15 -86.32,-22.79 -113.5,-55.53zm-772.99 -540.76l0 0 206.39 -665.05 201.31 665.05 -407.7 0z"/>
    <path class="fil0" d="M6432.97 5097.14c-59.14,45.99 -126.94,68.79 -204,68.79 -88.71,0 -167.56,-29.01 -236.56,-87.44 -69.29,-58.42 -120.96,-142.13 -155.31,-251.11 -34.65,-109.39 -51.67,-238.67 -51.67,-387.43 0,-180.24 18.21,-331.49 54.65,-452.9 36.45,-121.41 86.32,-209.67 149.95,-265.19 63.61,-55.53 134.7,-83.29 213.55,-83.29 94.09,0 174.43,36.88 241.64,110.63 66.9,73.76 118.57,194.34 154.72,361.75l27.17 0 -27.17 -559.4 -30.47 0c-6.57,38.54 -17.32,69.2 -32.55,90.74 -11.66,15.34 -25.39,23.21 -40.92,23.21 -10.46,0 -28.08,-9.11 -52.57,-26.93 -83.34,-58.02 -168.16,-87.02 -253.88,-87.02 -110.22,0 -211.77,37.71 -304.96,113.12 -92.9,75.83 -166.07,182.32 -219.24,319.89 -52.86,137.58 -79.45,288.83 -79.45,452.91 0,203.86 40.33,381.21 120.68,531.63 107.82,202.63 260.15,303.74 456.68,303.74 109.32,0 203.4,-33.98 282.85,-101.94 79.15,-67.96 148.75,-175.28 208.19,-321.97l-27.19 -24.03c-70.48,135.91 -135.3,226.66 -194.14,272.24z"/>
    <path class="fil0" d="M6760.93 3634.01l42.11 0c28.08,0 54.96,9.53 80.65,29 17.92,14.51 29.86,31.91 35.84,52.22 7.46,26.52 11.35,81.63 11.35,164.92l0 1063.67c0,98.62 -7.17,161.19 -21.21,186.89 -22.1,39.77 -57.65,59.67 -106.63,59.67l-42.11 0 0 44.75 508.65 0 0 -44.75 -43.01 0c-28.07,0 -54.66,-9.95 -79.74,-29.43 -18.53,-14.5 -30.77,-31.9 -36.74,-52.21 -7.47,-26.52 -11.35,-81.63 -11.35,-164.92l0 -1063.67c0,-98.62 7.46,-160.78 22.1,-186.89 22.1,-39.36 57.35,-59.25 105.73,-59.25l43.01 0 0 -45.17 -508.65 0 0 45.17z"/>
    <path class="fil0" d="M7968.49 3551.55c-155.01,0 -288.23,71.27 -399.93,214.64 -128.13,165.34 -192.35,378.32 -192.35,639.79 0,255.66 55.56,464.09 166.67,625.27 111.1,160.78 248.5,241.59 411.58,241.59 161.58,0 299.28,-82.46 413.08,-247.8 113.79,-164.92 170.85,-372.52 170.85,-622.79 0,-242.82 -56.46,-445.03 -169.36,-607.47 -112.9,-162.43 -246.41,-243.23 -400.54,-243.23zm260.46 1454.02l0 0c-72.58,120.58 -164.58,181.07 -275.99,181.07 -104.53,0 -188.47,-55.11 -252.09,-165.33 -82.73,-144.61 -124.25,-351.38 -124.25,-620.3 0,-262.3 40.02,-461.19 119.78,-597.11 64.21,-109.39 149.34,-164.09 255.67,-164.09 113.2,0 201.61,55.11 265.83,165.33 80.04,138.4 120.07,348.49 120.07,629.84 0,259.81 -36.44,450 -109.02,570.59z"/>
    <path class="fil0" d="M9463.11 3634.01l41.22 0c46.59,0 80.64,16.99 102.44,50.97 16.13,24.86 24.5,88.26 24.5,189.36l0 949.32 -725.51 -1234.82 -321.98 0 0 45.17c34.35,0 60.04,3.73 77.06,10.78 34.35,15.32 60.34,31.9 78.26,49.72 17.62,17.82 43.91,54.69 78.25,110.63l0 1144.9c0,91.99 -6.27,151.24 -19.11,176.94 -21.21,42.26 -57.05,63.4 -107.83,63.4l-40.92 0 0 44.75 412.78 0 0 -44.75 -41.81 0c-46,0 -80.35,-16.99 -102.45,-50.97 -15.83,-25.28 -23.6,-88.26 -23.6,-189.37l0 -1013.95 782.26 1325.56 31.66 0 0 -1387.31c0,-92.4 6.27,-151.24 19.12,-177.35 20.9,-41.85 56.44,-62.98 106.62,-62.98l42.12 0 0 -45.17 -413.08 0 0 45.17z"/>
    <path class="fil0" d="M11062.26 5134.85c-27.18,-32.74 -57.35,-104.01 -90.5,-214.23l-413.08 -1369.07 -30.47 0 -417.56 1354.57c-36.14,118.92 -68.99,198.06 -98.86,236.6 -14.64,19.48 -46.6,35.22 -96.18,47.66l0 44.75 373.66 0 0 -44.75c-57.35,-5.81 -94.39,-18.24 -111.71,-37.3 -17.03,-19.06 -25.69,-41.02 -25.69,-65.89 0,-31.9 9.86,-79.55 29.87,-143.37l80.34 -259.81 459.38 0 71.68 236.61c23.3,77.07 35.25,133.01 35.25,168.65 0,26.93 -8.36,49.72 -25.09,67.95 -16.73,18.65 -48.69,29.84 -95.88,33.16l0 44.75 468.34 0 0 -44.75c-48.39,-4.15 -86.32,-22.79 -113.5,-55.53zm-772.99 -540.76l0 0 206.39 -665.05 201.31 665.05 -407.7 0z"/>
    <path class="fil0" d="M12222.95 4779.73c-30.17,101.93 -60.64,176.94 -90.81,224.18 -30.46,47.24 -63.91,80.38 -100.66,99.03 -36.73,18.65 -100.65,27.77 -191.75,27.77l-86.62 0c-76.46,0 -121.86,-4.15 -136.49,-12.02 -14.64,-8.29 -25.4,-20.72 -32.26,-37.71 -9.26,-25.28 -14.04,-71.27 -14.04,-138.4l0 -1034.26c0,-97.79 4.78,-159.94 14.04,-185.64 9.26,-26.1 26.58,-47.65 51.97,-64.64 25.39,-16.99 69.59,-24.86 132.62,-24.03l0 -45.17 -537.34 0 0 45.17 44.8 0c44.81,0 78.56,17.82 101.26,53.45 16.43,25.69 24.49,89.92 24.49,192.69l0 1062.43c0,93.65 -5.97,153.73 -18.22,179.84 -21.5,45.17 -57.35,67.96 -107.53,67.96l-44.8 0 0 44.75 918.75 0 101.56 -446.7 -28.97 -8.7z"/>
   </g>
  </g>
 </g>
</svg>
